<?xml version="1.0" encoding="UTF-8"?>
<svg id="Layer_2" data-name="Layer 2" xmlns="http://www.w3.org/2000/svg" viewBox="0 0 103.41 43.07">
  <defs>
    <style>
      .cls-1 {
        fill: #303030;
      }
    </style>
  </defs>
  <g id="Layer_1-2" data-name="Layer 1">
    <g>
      <g>
        <path class="cls-1" d="M27.39,36.63c-1.1,0-2-.04-2.69-.12-.69-.08-1.33-.27-1.9-.57-.58-.3-1.24-.79-1.98-1.47-1.1-1.02-2.04-1.96-2.82-2.82-.78-.86-1.54-1.57-2.27-2.12-.73-.55-1.59-.82-2.59-.82-2.36-.03-4.37-.46-6.05-1.31-1.68-.85-3.03-1.97-4.07-3.35-1.04-1.39-1.8-2.93-2.29-4.63-.49-1.7-.73-3.39-.73-5.06s.27-3.31.83-5c.55-1.69,1.38-3.24,2.5-4.65,1.11-1.41,2.52-2.55,4.21-3.41,1.69-.86,3.66-1.29,5.92-1.29s4.38.43,6.07,1.29c1.69.86,3.08,2.01,4.17,3.43,1.09,1.43,1.89,2.97,2.42,4.65.52,1.67.79,3.33.79,4.98,0,1.36-.19,2.73-.56,4.12-.37,1.39-.94,2.71-1.71,3.98-.77,1.27-1.73,2.39-2.88,3.35-1.15.97-2.5,1.71-4.03,2.24.72,0,1.36.05,1.92.16.56.1,1.13.32,1.71.65.58.33,1.21.83,1.9,1.51.9.84,1.62,1.52,2.17,2.06.55.54,1.01.95,1.38,1.25.37.3.72.5,1.04.61.32.1.67.16,1.06.16v2.2h-1.5ZM13.75,26.27c1.43,0,2.64-.34,3.63-1.02.99-.68,1.79-1.57,2.4-2.67.61-1.1,1.07-2.31,1.36-3.63.29-1.32.44-2.62.44-3.9,0-1.75-.17-3.39-.52-4.92-.35-1.53-.87-2.87-1.57-4.02-.7-1.15-1.59-2.06-2.67-2.73-1.08-.67-2.32-.99-3.73-.96-1.43.03-2.64.39-3.63,1.08-.99.69-1.79,1.6-2.4,2.71-.61,1.11-1.06,2.33-1.34,3.67-.28,1.33-.42,2.64-.42,3.92s.15,2.68.46,4.12c.31,1.44.79,2.8,1.46,4.08.67,1.28,1.54,2.31,2.61,3.1,1.08.78,2.38,1.18,3.92,1.18Z"/>
        <path class="cls-1" d="M40.91,28.08c-.08-.39-.12-.73-.13-1-.01-.27-.03-.59-.06-.96-.87.89-1.8,1.54-2.78,1.96-.99.42-2,.63-3.05.63-1.74,0-3.08-.48-4.01-1.45-.94-.97-1.4-2.16-1.4-3.57,0-1.25.33-2.32,1-3.2.67-.88,1.54-1.59,2.61-2.16,1.08-.56,2.27-.99,3.57-1.29,1.31-.3,2.6-.46,3.88-.49v-2.16c0-.76-.08-1.46-.25-2.1-.17-.64-.47-1.15-.9-1.53-.44-.38-1.08-.57-1.92-.57-.56.03-1.13.15-1.71.37-.58.22-1.03.57-1.36,1.04.2.24.33.49.38.76.05.27.08.52.08.73,0,.47-.18.96-.54,1.47-.36.51-.94.75-1.73.73-.69-.03-1.22-.27-1.59-.75-.37-.47-.56-1.03-.56-1.69,0-.99.35-1.86,1.06-2.61.7-.75,1.66-1.33,2.86-1.76,1.2-.43,2.55-.65,4.03-.65,2.2,0,3.89.59,5.07,1.76,1.18,1.18,1.75,3.06,1.73,5.65v2.49c0,.75,0,1.49-.02,2.24-.01.75-.02,1.58-.02,2.49,0,.39-.01.88-.04,1.47-.03.59-.06,1.17-.12,1.75.46-.05.93-.08,1.4-.1.47-.01.86-.03,1.17-.06v2.55h-6.65ZM40.48,18.86c-.77.05-1.52.18-2.27.37-.74.2-1.41.46-2,.8-.59.34-1.06.76-1.4,1.27-.35.51-.51,1.09-.48,1.75.03.81.28,1.41.77,1.78.49.38,1.05.57,1.69.57.74,0,1.41-.16,2.02-.47.6-.31,1.16-.73,1.67-1.25v-4.82Z"/>
        <path class="cls-1" d="M57.19,28.71c-.72,0-1.42-.09-2.09-.27-.68-.18-1.29-.52-1.84-1.02-.55-.5-.99-1.24-1.33-2.22-.33-.98-.5-2.28-.5-3.9l.08-10.12-2.73.04v-2.75c.77-.03,1.51-.29,2.23-.8.72-.51,1.34-1.18,1.88-2.02.54-.84.9-1.73,1.08-2.67h2.34l-.04,5.49h5.42v2.51l-5.42.12-.04,10.08c0,.78.07,1.51.21,2.18.14.67.4,1.2.77,1.59.37.39.88.59,1.52.59.49,0,1.04-.16,1.67-.47.63-.31,1.26-.94,1.9-1.88l1.57,1.45c-.64.99-1.3,1.76-1.98,2.31-.68.55-1.33.95-1.96,1.22-.63.26-1.18.42-1.67.47-.49.05-.85.08-1.08.08Z"/>
        <path class="cls-1" d="M76.24,28.08c-.08-.39-.12-.73-.13-1-.01-.27-.03-.59-.06-.96-.87.89-1.8,1.54-2.78,1.96-.99.42-2,.63-3.05.63-1.74,0-3.08-.48-4.01-1.45-.94-.97-1.4-2.16-1.4-3.57,0-1.25.33-2.32,1-3.2.67-.88,1.54-1.59,2.61-2.16,1.08-.56,2.27-.99,3.57-1.29,1.31-.3,2.6-.46,3.88-.49v-2.16c0-.76-.08-1.46-.25-2.1-.17-.64-.47-1.15-.9-1.53-.44-.38-1.08-.57-1.92-.57-.56.03-1.13.15-1.71.37-.58.22-1.03.57-1.36,1.04.2.24.33.49.38.76.05.27.08.52.08.73,0,.47-.18.96-.54,1.47-.36.51-.94.75-1.73.73-.69-.03-1.22-.27-1.59-.75-.37-.47-.56-1.03-.56-1.69,0-.99.35-1.86,1.06-2.61.7-.75,1.66-1.33,2.86-1.76,1.2-.43,2.55-.65,4.03-.65,2.2,0,3.89.59,5.07,1.76,1.18,1.18,1.75,3.06,1.73,5.65v2.49c0,.75,0,1.49-.02,2.24-.01.75-.02,1.58-.02,2.49,0,.39-.01.88-.04,1.47-.03.59-.06,1.17-.12,1.75.46-.05.93-.08,1.4-.1.47-.01.86-.03,1.17-.06v2.55h-6.65ZM75.82,18.86c-.77.05-1.52.18-2.27.37-.74.2-1.41.46-2,.8-.59.34-1.06.76-1.4,1.27-.35.51-.51,1.09-.48,1.75.03.81.28,1.41.77,1.78.49.38,1.05.57,1.69.57.74,0,1.41-.16,2.02-.47.6-.31,1.16-.73,1.67-1.25v-4.82Z"/>
        <path class="cls-1" d="M85.23,26c.74,0,1.27-.16,1.57-.49.31-.33.5-.79.58-1.39.08-.6.12-1.28.12-2.04v-7.37c0-.47.01-.97.04-1.49.03-.52.06-1.06.12-1.61-.44.03-.91.05-1.42.06-.51.01-.94.03-1.27.06v-2.51h1.42c1.02,0,1.88-.12,2.57-.37.69-.25,1.18-.5,1.46-.76h1.61c.05.31.09.81.12,1.49.03.68.04,1.36.04,2.04.59-.78,1.2-1.46,1.84-2.02.64-.56,1.3-.99,1.98-1.29.68-.3,1.38-.45,2.09-.45.82,0,1.54.24,2.17.71.63.47.94,1.23.94,2.27,0,.34-.08.71-.25,1.1-.17.39-.42.72-.77.98-.35.26-.81.39-1.4.39-.54,0-1.04-.18-1.52-.53-.47-.35-.72-.92-.75-1.71-.54-.03-1.09.17-1.67.59-.58.42-1.09.93-1.56,1.53-.46.6-.82,1.22-1.08,1.84l.04,7.45c0,.42-.01.92-.04,1.51-.03.59-.06,1.16-.12,1.71.41-.05.85-.08,1.31-.1.46-.01.85-.02,1.15-.02v2.51h-9.33v-2.08Z"/>
      </g>
      <g>
        <path class="cls-1" d="M38.46,42.84c-.1-.13-.18-.43-.24-.88h-.03c-.22.34-.51.6-.85.79-.34.19-.82.28-1.44.28-.82,0-1.48-.21-1.97-.63-.5-.42-.74-1.02-.74-1.8s.27-1.4.82-1.77c.55-.38,1.31-.64,2.3-.78.73-.1,1.22-.21,1.49-.32.26-.11.39-.3.39-.58s-.11-.52-.33-.69c-.22-.17-.55-.26-.97-.26-.94,0-1.44.37-1.5,1.11h-1.83c.03-.75.33-1.38.89-1.87.57-.5,1.38-.74,2.46-.74,2.18,0,3.27.97,3.27,2.92v4.04c0,.6.09.96.27,1.1v.08h-1.99ZM36.4,41.55c.57,0,1.01-.15,1.34-.45.33-.3.49-.66.49-1.07v-1.19c-.22.13-.7.29-1.44.46-.59.13-1,.29-1.24.46-.24.17-.36.43-.36.78,0,.67.4,1.01,1.21,1.01Z"/>
        <path class="cls-1" d="M44.63,43.07c-1.11,0-1.98-.25-2.61-.75-.63-.5-.97-1.18-1.03-2.05h1.91c.13.88.7,1.32,1.7,1.32.45,0,.81-.08,1.05-.25.25-.16.37-.39.37-.67,0-.1-.02-.2-.05-.28-.04-.08-.1-.16-.18-.22-.09-.07-.16-.12-.23-.16-.07-.04-.18-.08-.34-.12-.16-.04-.29-.07-.37-.09-.09-.02-.23-.05-.44-.09-.21-.04-.35-.06-.43-.09-.42-.08-.77-.17-1.04-.26-.27-.09-.55-.22-.84-.39-.29-.17-.51-.4-.66-.7-.15-.29-.22-.65-.22-1.06,0-.83.3-1.45.89-1.89.59-.43,1.35-.65,2.28-.65,1,0,1.79.23,2.36.7.57.47.9,1.11.98,1.93h-1.86c-.08-.77-.58-1.16-1.5-1.16-.41,0-.74.08-.98.23-.24.15-.36.37-.36.65,0,.09.02.18.05.26.04.08.1.14.18.2.09.06.17.1.25.14.08.04.2.07.35.11.15.04.28.07.39.09.11.03.26.06.45.09.19.04.34.06.45.09.32.07.59.14.8.19.21.06.45.15.72.28.27.13.49.27.64.43.16.16.29.38.41.65.12.27.17.59.17.95,0,.78-.3,1.41-.9,1.86-.6.46-1.39.69-2.37.69Z"/>
        <path class="cls-1" d="M51.98,43.07c-1.11,0-1.98-.25-2.61-.75-.63-.5-.97-1.18-1.03-2.05h1.91c.13.88.7,1.32,1.7,1.32.45,0,.81-.08,1.05-.25.25-.16.37-.39.37-.67,0-.1-.02-.2-.05-.28-.04-.08-.1-.16-.18-.22-.09-.07-.16-.12-.23-.16-.07-.04-.18-.08-.34-.12-.16-.04-.29-.07-.37-.09-.09-.02-.23-.05-.44-.09-.21-.04-.35-.06-.43-.09-.42-.08-.77-.17-1.04-.26-.27-.09-.55-.22-.84-.39-.29-.17-.51-.4-.66-.7-.15-.29-.22-.65-.22-1.06,0-.83.3-1.45.89-1.89.59-.43,1.35-.65,2.28-.65,1,0,1.79.23,2.36.7.57.47.9,1.11.98,1.93h-1.86c-.08-.77-.58-1.16-1.5-1.16-.41,0-.74.08-.98.23-.24.15-.36.37-.36.65,0,.09.02.18.05.26.04.08.1.14.18.2.09.06.17.1.25.14.08.04.2.07.35.11.15.04.28.07.39.09.11.03.26.06.45.09.19.04.34.06.45.09.32.07.59.14.8.19.21.06.45.15.72.28.27.13.49.27.64.43.16.16.29.38.41.65.12.27.17.59.17.95,0,.78-.3,1.41-.9,1.86-.6.46-1.39.69-2.37.69Z"/>
        <path class="cls-1" d="M56.18,33.66v-1.89h2.06v1.89h-2.06ZM56.18,42.84v-7.94h2.06v7.94h-2.06Z"/>
        <path class="cls-1" d="M62.73,43.07c-1.11,0-1.98-.25-2.61-.75-.63-.5-.97-1.18-1.03-2.05h1.91c.13.88.7,1.32,1.7,1.32.45,0,.81-.08,1.05-.25.25-.16.37-.39.37-.67,0-.1-.02-.2-.05-.28-.04-.08-.1-.16-.18-.22-.09-.07-.16-.12-.23-.16-.07-.04-.18-.08-.34-.12-.16-.04-.29-.07-.37-.09-.09-.02-.23-.05-.44-.09-.21-.04-.35-.06-.43-.09-.42-.08-.77-.17-1.04-.26-.27-.09-.55-.22-.84-.39-.29-.17-.51-.4-.66-.7-.15-.29-.22-.65-.22-1.06,0-.83.3-1.45.89-1.89.59-.43,1.35-.65,2.28-.65,1,0,1.79.23,2.36.7.57.47.9,1.11.98,1.93h-1.86c-.08-.77-.58-1.16-1.5-1.16-.41,0-.74.08-.98.23-.24.15-.36.37-.36.65,0,.09.02.18.05.26.04.08.1.14.18.2.09.06.17.1.25.14.08.04.2.07.35.11.15.04.28.07.39.09.11.03.26.06.45.09.19.04.34.06.45.09.32.07.59.14.8.19.21.06.45.15.72.28.27.13.49.27.64.43.16.16.29.38.41.65.12.27.17.59.17.95,0,.78-.3,1.41-.9,1.86-.6.46-1.39.69-2.37.69Z"/>
        <path class="cls-1" d="M66.32,36.29v-1.39h1.08v-2.48h2.02v2.48h1.33v1.39h-1.33v4.21c0,.53.26.79.77.79l.61-.02v1.55c-.31.02-.74.03-1.29.03-.6,0-1.1-.15-1.5-.44-.4-.29-.61-.78-.61-1.46v-4.66h-1.08Z"/>
        <path class="cls-1" d="M76.78,42.84c-.1-.13-.18-.43-.24-.88h-.03c-.22.34-.51.6-.85.79-.34.19-.82.28-1.44.28-.82,0-1.48-.21-1.97-.63-.5-.42-.74-1.02-.74-1.8s.27-1.4.82-1.77c.55-.38,1.31-.64,2.3-.78.73-.1,1.22-.21,1.49-.32.26-.11.39-.3.39-.58s-.11-.52-.33-.69c-.22-.17-.55-.26-.97-.26-.94,0-1.44.37-1.5,1.11h-1.83c.03-.75.33-1.38.89-1.87.57-.5,1.38-.74,2.46-.74,2.18,0,3.27.97,3.27,2.92v4.04c0,.6.09.96.27,1.1v.08h-1.99ZM74.72,41.55c.57,0,1.01-.15,1.34-.45.33-.3.49-.66.49-1.07v-1.19c-.22.13-.7.29-1.44.46-.59.13-1,.29-1.24.46-.24.17-.36.43-.36.78,0,.67.4,1.01,1.21,1.01Z"/>
        <path class="cls-1" d="M81.81,34.9v1.08h.05c.54-.87,1.3-1.3,2.3-1.3.8,0,1.44.28,1.94.83.49.55.74,1.27.74,2.14v5.18h-2.06v-4.87c0-.43-.12-.78-.36-1.05-.24-.27-.57-.4-.99-.4-.45,0-.83.17-1.13.51-.3.34-.45.78-.45,1.32v4.5h-2.06v-7.94h2.02Z"/>
        <path class="cls-1" d="M91.72,43.07c-1.2,0-2.17-.4-2.89-1.19-.73-.79-1.09-1.8-1.09-3s.36-2.21,1.07-3c.71-.79,1.65-1.19,2.81-1.19.98,0,1.78.26,2.39.79.62.53,1,1.23,1.14,2.12h-2.02c-.07-.36-.23-.66-.49-.88-.25-.23-.57-.34-.94-.34-.61,0-1.07.22-1.39.67-.32.44-.48,1.06-.48,1.84s.16,1.38.47,1.83c.31.45.77.67,1.38.67.9,0,1.42-.45,1.56-1.35h1.99c-.07.88-.42,1.6-1.05,2.17-.63.57-1.45.86-2.46.86Z"/>
        <path class="cls-1" d="M99.77,43.07c-1.25,0-2.24-.39-2.96-1.18-.72-.79-1.08-1.8-1.08-3.03s.36-2.18,1.08-2.98c.72-.8,1.64-1.2,2.76-1.2,1.22,0,2.17.43,2.83,1.3.67.87,1,2.03,1,3.48h-5.64c.08.63.29,1.12.62,1.46.33.35.79.52,1.36.52.76,0,1.26-.32,1.5-.97h2.03c-.15.74-.54,1.36-1.15,1.86-.62.5-1.4.74-2.36.74ZM99.61,36.31c-1,0-1.6.57-1.8,1.7h3.46c-.03-.51-.2-.92-.5-1.23-.3-.31-.69-.47-1.15-.47Z"/>
      </g>
    </g>
  </g>
</svg>