<?xml version="1.0" encoding="UTF-8"?>
<svg id="Layer_2" data-name="Layer 2" xmlns="http://www.w3.org/2000/svg" viewBox="0 0 117.88 65.2">
  <defs>
    <style>
      .cls-1 {
        font-family: Aeonik-Bold, Aeonik;
        font-size: 25px;
        font-weight: 700;
      }

      .cls-1, .cls-2, .cls-3, .cls-4 {
        fill: #303030;
      }

      .cls-5 {
        letter-spacing: 0em;
      }

      .cls-3 {
        font-family: Aeonik-Light, Aeonik;
        font-size: 12.95px;
        font-weight: 300;
      }

      .cls-4 {
        opacity: .6;
      }

      .cls-6 {
        letter-spacing: .01em;
      }
    </style>
  </defs>
  <g id="Layer_1-2" data-name="Layer 1">
    <g>
      <g>
        <g>
          <path class="cls-4" d="M41.7,41.41c0,1.04-.55,2.09-1.6,2.63L4.17,62.3c-1.92.98-4.17-.45-4.17-2.65v-15.42h.08s0,0,0,0l41.62-2.82Z"/>
          <path class="cls-2" d="M41.7,41.41L.08,38.69H.08s-.08,0-.08,0v-15.86c0-2.2,2.27-3.63,4.19-2.64l35.92,18.54c1.06.55,1.59,1.61,1.59,2.66Z"/>
        </g>
        <circle class="cls-2" cx="7.02" cy="9.72" r="6.94"/>
      </g>
      <text class="cls-1" transform="translate(53.02 21.25)"><tspan class="cls-6" x="0" y="0">I</tspan><tspan class="cls-5" x="6.97" y="0">C</tspan><tspan class="cls-6" x="24.6" y="0">C</tspan></text>
      <text class="cls-3" transform="translate(53.38 38.06)"><tspan x="0" y="0">innovative</tspan><tspan x="0" y="12.23">creative</tspan><tspan x="0" y="24.47">consultants</tspan></text>
    </g>
  </g>
</svg>