<?xml version="1.0" encoding="UTF-8"?>
<svg id="Layer_2" data-name="Layer 2" xmlns="http://www.w3.org/2000/svg" viewBox="0 0 172.55 37.28">
  <defs>
    <style>
      .cls-1 {
        fill: #08101d;
      }
    </style>
  </defs>
  <g id="Layer_1-2" data-name="Layer 1">
    <g>
      <path class="cls-1" d="M166.33,27.96c-1.7,3.46-4.41,5.36-7.63,5.36-7.74,0-8.98-9.49-9.13-11.14h22.98v-.23c-.02-3.88-1.08-16.52-13.85-16.52-4.3,0-7.91,1.7-10.45,4.92-2.25,2.85-3.49,6.67-3.49,10.77,0,7.48,4.36,15.54,13.94,15.54,5.55,0,10.05-2.91,12.33-7.97l.13-.29-4.75-.58-.07.15ZM149.69,18.85l.13-.78h0c.04-.28.46-2.74,1.83-5.05,1.69-2.84,4.06-4.27,7.05-4.27,6.96,0,8.63,7.75,8.89,9.31l.12.77-18.03.02Z"/>
      <path class="cls-1" d="M44.12,6.66h-14.63l-.11-.68c4.38-.99,6.53-5.17,6.76-5.65l.16-.33h-5.19s-.05.17-.05.17c-1.04,4-4.99,5.67-6.29,6.21l-.22.09-.45,3.51h19.59l.43-3.33Z"/>
      <path class="cls-1" d="M36.1,29.15V13.01h-4.86v15.97c0,1.5.39,2.99,1.12,4.3,1.86,3.3,5.46,4.01,8.23,4.01,1.36,0,2.52-.17,3.17-.29l.18-.03.24-3.45h-3.72c-2.4,0-4.36-1.96-4.36-4.36Z"/>
      <path class="cls-1" d="M95.66,6.66h-14.63l-.11-.68c4.38-.99,6.53-5.17,6.76-5.65l.16-.33h-5.19s-.05.17-.05.17c-1.04,4-4.99,5.67-6.29,6.21l-.22.09-.45,3.51h19.59l.43-3.33Z"/>
      <path class="cls-1" d="M87.63,29.15V13.01h-4.86v15.97c0,1.5.39,2.99,1.12,4.3,1.86,3.3,5.46,4.01,8.23,4.01,1.36,0,2.52-.17,3.17-.29l.18-.03.24-3.45h-3.72c-2.4,0-4.36-1.96-4.36-4.36Z"/>
      <path class="cls-1" d="M16.12,19.66c-1.98-.79-3.78-1.18-5.38-1.52-3.58-.78-5.54-1.2-5.14-5.01.21-2.04,1.92-4.42,6.01-4.42,5.04,0,5.91,4.36,6.04,5.24l.03.22,4.71-.57-.04-.24c-.4-2.25-2.25-7.53-10.73-7.98-3.09-.17-5.87.76-7.83,2.62-1.73,1.64-2.69,3.91-2.69,6.37,0,5.43,5.01,6.71,9.43,7.84,4.23,1.08,8.23,2.1,7.73,6.41-.29,2.45-2.71,4.98-6.26,4.98-6.08,0-7.09-5.05-7.25-6.6l-.03-.23-4.74.57.04.24c.51,3.49,2.73,9.35,11.76,9.35,6.25,0,10.26-3.88,10.99-7.71.29-1.51.66-6.65-6.67-9.56Z"/>
      <path class="cls-1" d="M130.56,18.03v18.18h4.85v-18.51c0-3.53,2.85-8.17,6.67-9.1l.16-.04.44-3.44-.29.03c-6.52.58-11.83,6.36-11.83,12.88Z"/>
      <path class="cls-1" d="M119.59,26.82c0,4.13-3.2,6.29-6.37,6.29-3.66,0-6.32-2.64-6.32-6.29V6.09h-4.85v19.28c0,6.4,4.7,11.05,11.17,11.05,5.4,0,11.22-3.46,11.22-11.05V6.09h-4.85v20.73Z"/>
      <path class="cls-1" d="M60.79,5.42c-9.56,0-13.92,8.12-13.92,15.67s4.36,15.56,13.92,15.56c11.02,0,13.93-10.19,13.93-15.58,0-7.53-4.36-15.64-13.93-15.64ZM69.94,21.07c0,8.99-5.47,12.25-9.15,12.25s-9.15-3.26-9.15-12.25c0-5.93,2.86-12.31,9.15-12.31s9.15,6.38,9.15,12.31Z"/>
    </g>
  </g>
</svg>