<?xml version="1.0" encoding="UTF-8"?>
<svg id="Layer_2" data-name="Layer 2" xmlns="http://www.w3.org/2000/svg" viewBox="0 0 155.52 53.73">
  <defs>
    <style>
      .cls-1 {
        fill: #303030;
      }
    </style>
  </defs>
  <g id="Layer_1-2" data-name="Layer 1">
    <g>
      <path class="cls-1" d="M3.14,35H0v8.73h3.08c1.39,0,2.56-.42,3.48-1.26.92-.83,1.39-1.89,1.39-3.13s-.46-2.29-1.35-3.11c-.89-.82-2.06-1.23-3.44-1.23M5.19,41.25c-.53.5-1.2.75-2.01.75h-1.19v-5.27h1.19c.81,0,1.48.25,2.01.75.52.49.79,1.13.79,1.88s-.27,1.4-.79,1.89Z"/>
      <path class="cls-1" d="M14.91,40.11c0,.57-.16,1.04-.49,1.4-.32.35-.75.53-1.28.53s-.96-.18-1.28-.53c-.33-.35-.49-.82-.49-1.4v-5.1h-2.01v5.16c0,1.11.34,2.01,1.02,2.67.68.67,1.59,1.01,2.7,1.01s2.03-.35,2.73-1.03c.69-.69,1.06-1.6,1.06-2.71v-5.1h-1.95v5.1Z"/>
      <path class="cls-1" d="M24.38,39.16c.34-.2.61-.45.81-.76.21-.34.32-.73.32-1.14,0-.66-.26-1.21-.76-1.63-.51-.41-1.17-.63-2-.63h-3.92v8.73h4.15c.85,0,1.55-.23,2.1-.69.55-.47.82-1.06.82-1.75,0-.5-.14-.95-.43-1.34-.27-.35-.63-.62-1.08-.8M23.2,38.22c-.21.19-.51.28-.87.28h-1.53v-1.96h1.53c.36,0,.66.09.87.28.21.19.32.42.32.7s-.11.5-.32.69ZM20.81,39.95h1.82c.4,0,.72.11.95.32.23.21.35.47.35.79s-.12.59-.35.8c-.24.21-.55.33-.95.33h-1.82v-2.23Z"/>
      <path class="cls-1" d="M31.81,35h-1.94l-3.55,8.73h2.08l.69-1.82h3.4l.69,1.82h2.17l-3.54-8.7v-.02h-.01ZM31.92,40.33h-2.27l1.14-2.99,1.13,2.99Z"/>
      <path class="cls-1" d="M38.44,35h-2.03v8.73h2.03v-8.73Z"/>
      <path class="cls-1" d="M47.43,35h-3.79v8.73h1.98v-2.74h1.74c.97,0,1.79-.28,2.41-.84.62-.56.94-1.29.94-2.17s-.31-1.61-.9-2.15c-.6-.54-1.4-.82-2.37-.82ZM45.62,36.69h1.62c.45,0,.81.13,1.08.38.27.25.41.57.41.96s-.14.7-.41.96c-.27.25-.63.38-1.08.38h-1.62v-2.66h0Z"/>
      <path class="cls-1" d="M56.34,34.89c-1.29,0-2.4.45-3.28,1.31-.88.87-1.34,1.95-1.34,3.21s.43,2.32,1.3,3.17c.87.84,1.96,1.28,3.25,1.28s2.4-.45,3.28-1.31c.88-.87,1.34-1.95,1.34-3.2s-.44-2.32-1.3-3.18c-.87-.86-1.96-1.28-3.25-1.28ZM58.18,41.28c-.49.5-1.12.76-1.87.76s-1.37-.26-1.87-.76c-.49-.5-.74-1.15-.74-1.9s.25-1.38.74-1.89c.49-.5,1.12-.76,1.87-.76s1.36.26,1.87.76c.49.5.74,1.14.74,1.89s-.25,1.4-.74,1.9Z"/>
      <path class="cls-1" d="M80.08,41.08c-.52.63-1.2.95-2.03.95-1.52,0-2.61-1.13-2.61-2.66s1.09-2.65,2.61-2.65c.8,0,1.47.31,1.97.89l.04.04,1.44-1.29-.04-.04c-.89-.95-2.03-1.44-3.4-1.44-2.58,0-4.62,1.99-4.62,4.53s1.96,4.45,4.56,4.45c1.41,0,2.58-.52,3.51-1.55l.04-.04-1.44-1.23-.04.04h0Z"/>
      <path class="cls-1" d="M64.47,35h-1.99v8.73h6.21v-1.77h-4.23v-6.96Z"/>
      <path class="cls-1" d="M71.87,35h-2.03v8.73h2.03v-8.73Z"/>
      <path class="cls-1" d="M84.76,42.01v-1.95h3.85v-1.63h-3.85v-1.69h4.48v-1.74h-6.46v8.73h6.58v-1.72h-4.59Z"/>
      <path class="cls-1" d="M48.08,13.82c.72,0,1.3-.59,1.3-1.3s-.59-1.3-1.3-1.3-1.3.59-1.3,1.3.59,1.3,1.3,1.3Z"/>
      <path class="cls-1" d="M82.28,11.86c.72,0,1.3-.59,1.3-1.3s-.59-1.3-1.3-1.3-1.3.59-1.3,1.3.59,1.3,1.3,1.3Z"/>
      <path class="cls-1" d="M80.47,14.85c.72,0,1.3-.59,1.3-1.3s-.59-1.3-1.3-1.3-1.3.59-1.3,1.3.59,1.3,1.3,1.3Z"/>
      <path class="cls-1" d="M82.79,13.55c0,.72.59,1.3,1.3,1.3s1.3-.59,1.3-1.3-.59-1.3-1.3-1.3-1.3.59-1.3,1.3Z"/>
      <path class="cls-1" d="M87.47,15.16l-2.19,1.33c.52.84,2.03,3.78,1.33,7.93h-3.07v-7.93h-2.56v7.93h-1.94v-7.93h-2.56v7.93h-3.62v-8.97h-2.56v10.08c0,2.06-1.68,3.74-3.75,3.74h-.65v2.56h.65c2.97,0,5.47-2.06,6.13-4.84h15.95l.23-.97c1.37-5.62-.74-9.71-1.42-10.84"/>
      <path class="cls-1" d="M32.07,15.14l-1.15,2.29c3.32,1.67,3.52,4.95,3.27,6.99h-5.7v2.56h7.8l.22-1.01c1.59-7.18-3.01-10.1-4.45-10.83"/>
      <path class="cls-1" d="M67.31,26.97l.68-2.28c.61-2.05.21-4.3-1.07-6.03-1.12-1.51-2.83-2.49-4.7-2.71-1.87-.21-3.76.36-5.19,1.58l-2.26,1.92v-6.96h-2.56v11.91h-2.88v-8.97h-2.64c-3.52,0-6.39,2.86-6.39,6.39v5.14h2.56v-5.14c0-2.11,1.73-3.84,3.84-3.84h.08v8.97h20.52ZM54.78,22.83l3.91-3.33c.89-.76,2.08-1.13,3.24-.99,1.16.13,2.23.75,2.94,1.69.8,1.08,1.05,2.49.67,3.78l-.13.45h-10.62v-1.6h-.01Z"/>
      <path class="cls-1" d="M24.27,28.61c-.72,0-1.3.59-1.3,1.3s.59,1.3,1.3,1.3,1.3-.59,1.3-1.3-.59-1.3-1.3-1.3Z"/>
      <path class="cls-1" d="M10.62,28.61c-.72,0-1.3.59-1.3,1.3s.59,1.3,1.3,1.3,1.3-.59,1.3-1.3-.59-1.3-1.3-1.3Z"/>
      <path class="cls-1" d="M7.34,28.61c-.72,0-1.3.59-1.3,1.3s.59,1.3,1.3,1.3,1.3-.59,1.3-1.3-.59-1.3-1.3-1.3Z"/>
      <path class="cls-1" d="M44.9,13.82c.72,0,1.3-.59,1.3-1.3s-.59-1.3-1.3-1.3-1.3.59-1.3,1.3.59,1.3,1.3,1.3Z"/>
      <path class="cls-1" d="M24.41,22.85c0,.86-.7,1.56-1.56,1.56h-1.18v-8.97h-2.69c-3.45,0-6.17,2.8-6.17,6.39v2.58H2.56v-.34c0-2.67.68-5.42,1.9-7.72l-2.26-1.21c-1.42,2.66-2.21,5.83-2.21,8.93v2.9h15.37v-5.14c0-2.18,1.55-3.84,3.61-3.84h.14v8.97h3.74c2.27,0,4.12-1.84,4.12-4.12v-7.41h-2.56v7.41Z"/>
      <path class="cls-1" d="M155.02,30.06c-.45-.02-.89,0-1.33.08.29-.32.59-.69.87-1.15.99-1.58,1.19-3.43.7-5.01-.43.07-.87.19-1.28.36.22-.38.43-.81.61-1.3.63-1.76.43-3.59-.38-5.04-.41.15-.81.38-1.18.62.14-.41.25-.88.32-1.41.25-1.85-.33-3.6-1.43-4.84-.36.25-.7.53-1.02.86.05-.43.06-.91.01-1.44-.15-1.85-1.08-3.46-2.42-4.43-.31.32-.59.67-.82,1.06-.05-.43-.13-.9-.28-1.41-.54-1.78-1.79-3.14-3.3-3.84-.24.38-.42.77-.58,1.2-.13-.42-.32-.86-.58-1.31-.9-1.63-2.41-2.7-4.03-3.05-.31.84-.42,1.76-.32,2.7-.2-.14-.41-.29-.65-.43-1.6-.96-3.44-1.14-5.02-.62.28,1.63,1.29,3.18,2.89,4.14.23.14.46.26.68.38-.87.34-1.63.87-2.23,1.54.89,1.07,2.2,1.82,3.7,2.06.65,1.21,1.76,2.21,3.16,2.76.38,1.33,1.26,2.53,2.5,3.35.09,1.37.69,2.73,1.74,3.8-.2,1.36.09,2.82.9,4.08-.48,1.29-.49,2.78.01,4.19-.74,1.16-1.07,2.6-.87,4.09-.96.97-1.6,2.32-1.7,3.82-1.15.75-2.06,1.94-2.48,3.38-1.28.49-2.42,1.45-3.14,2.78-1.36.21-2.67.91-3.64,2.05-1.64-.09-3.37.52-4.68,1.83-.85.84-1.34,1.67-1.57,2.44-.41,1.38-2.37,1.38-2.78,0-.25-.77-.74-1.6-1.57-2.44-1.3-1.3-3.03-1.92-4.68-1.83-.97-1.14-2.29-1.84-3.65-2.05-.72-1.31-1.84-2.29-3.14-2.78-.42-1.44-1.33-2.62-2.48-3.38-.11-1.49-.74-2.84-1.72-3.82.21-1.48-.13-2.93-.87-4.09.52-1.41.49-2.9.01-4.19.8-1.27,1.09-2.72.91-4.08,1.05-1.07,1.64-2.43,1.74-3.8,1.26-.82,2.13-2.03,2.5-3.35,1.4-.54,2.5-1.54,3.15-2.76,1.5-.23,2.81-1,3.7-2.06-.6-.67-1.36-1.2-2.24-1.54.22-.11.45-.23.68-.38,1.6-.96,2.61-2.51,2.9-4.14-1.59-.5-3.43-.34-5.03.62-.23.14-.45.28-.65.43.11-.93,0-1.85-.32-2.7-1.62.35-3.14,1.42-4.03,3.05-.26.47-.45.9-.58,1.31-.14-.42-.34-.83-.58-1.2-1.52.68-2.76,2.05-3.3,3.84-.15.5-.25.97-.28,1.41-.23-.39-.51-.74-.82-1.06-1.34.99-2.27,2.58-2.42,4.43-.05.53-.04,1,.01,1.44-.31-.33-.65-.61-1.02-.86-1.09,1.24-1.68,3-1.42,4.84.07.53.18.99.32,1.41-.38-.26-.76-.47-1.17-.62-.81,1.44-1,3.28-.38,5.04.18.49.39.93.61,1.3-.42-.16-.85-.29-1.28-.36-.49,1.58-.29,3.43.7,5.01.28.45.58.82.87,1.15-.45-.08-.89-.11-1.33-.08-.14,1.65.45,3.41,1.74,4.75.38.38.73.69,1.09.94-.45.01-.89.08-1.32.2.21,1.64,1.15,3.24,2.7,4.27.45.29.86.52,1.27.69-.43.11-.86.27-1.24.47.55,1.56,1.81,2.92,3.55,3.61.49.2.95.33,1.39.41-.4.2-.78.45-1.12.73.87,1.42,2.38,2.48,4.23,2.78.53.08,1,.12,1.43.11-.35.28-.67.6-.94.94,1.15,1.2,2.85,1.92,4.72,1.83.53-.02,1-.09,1.42-.2-.28.35-.53.73-.73,1.13,1.37.93,3.2,1.28,5,.8.87-.23,1.56-.55,2.1-.93,1.75-1.2,4.08-1.22,5.87,0,.54.38,1.23.69,2.1.93,1.81.48,3.62.13,5-.8-.2-.4-.44-.77-.73-1.13.42.11.89.18,1.42.2,1.87.08,3.57-.63,4.72-1.83-.27-.34-.59-.67-.94-.94.43,0,.92-.02,1.43-.11,1.84-.31,3.36-1.37,4.23-2.78-.34-.28-.72-.53-1.12-.73.43-.08.89-.21,1.39-.41,1.74-.68,3-2.04,3.55-3.61-.4-.2-.81-.36-1.25-.47.4-.18.82-.4,1.27-.69,1.55-1.03,2.49-2.63,2.7-4.27-.42-.12-.87-.18-1.32-.2.35-.25.73-.56,1.09-.94,1.3-1.34,1.88-3.1,1.74-4.75M116.34,43.26c.99.38,1.89,1.07,2.53,2.06.76,1.18,1.01,2.23.82,3.16-.93-.21-1.76-.88-2.53-2.06-.63-.99-.9-2.1-.82-3.14M112.92,40.63c.88.56,1.62,1.44,2.03,2.55.49,1.31.52,2.38.14,3.25-.86-.41-1.54-1.23-2.03-2.55-.41-1.1-.43-2.24-.14-3.25ZM110.13,37.33c.75.74,1.28,1.75,1.46,2.91.2,1.4,0,2.44-.55,3.21-.75-.57-1.25-1.52-1.45-2.92-.18-1.16.05-2.29.54-3.2ZM108.11,33.51c.58.88.88,1.98.8,3.16-.09,1.41-.51,2.39-1.21,3.03-.61-.73-.89-1.75-.8-3.16.08-1.17.53-2.22,1.21-3.03ZM104.32,27.31c.55-1.03,1.4-1.81,2.35-2.25.16,1.04-.01,2.17-.56,3.2-.67,1.24-1.44,1.97-2.35,2.25-.26-.91-.09-1.97.58-3.2M103.32,25.51c-.06-.94.33-1.94,1.23-3.01.76-.89,1.75-1.48,2.77-1.71-.06,1.04-.47,2.11-1.23,3.01-.9,1.07-1.83,1.62-2.77,1.71ZM105.14,32.06c.32-1.13.99-2.06,1.82-2.7.38.99.45,2.12.12,3.25-.39,1.35-1,2.23-1.82,2.7-.45-.83-.51-1.9-.12-3.25ZM107.02,19.44c-1.12.86-2.13,1.2-3.08,1.09.14-.94.73-1.83,1.84-2.69.93-.72,2.02-1.07,3.07-1.09-.28,1.01-.9,1.97-1.84,2.69M117.89,7.73c-.83.65-1.9,1.04-3.08,1.07-1.41.02-2.43-.31-3.12-.95.67-.67,1.67-1.04,3.08-1.07,1.18-.02,2.27.34,3.11.95M116.27,3.18c1.01-.61,2.13-.84,3.17-.74-.4.97-1.13,1.85-2.13,2.46-1.21.73-2.26.95-3.17.74.25-.91.93-1.74,2.14-2.46M111.66,3.58c.56-1.03,1.42-1.79,2.39-2.23.14,1.04-.05,2.17-.61,3.19-.68,1.23-1.48,1.95-2.39,2.23-.25-.91-.07-1.97.61-3.2M111.02,9.78c1.14-.27,2.28-.15,3.24.27-.68.81-1.63,1.42-2.78,1.69-1.37.33-2.43.21-3.25-.27.52-.8,1.41-1.37,2.78-1.69M107.28,7.31c.34-1.13,1.01-2.05,1.86-2.67.36.99.41,2.13.08,3.25-.41,1.35-1.03,2.22-1.86,2.67-.43-.84-.48-1.91-.07-3.25M107.97,13.52c1.06-.5,2.2-.62,3.23-.42-.49.93-1.3,1.74-2.36,2.24-1.27.61-2.34.72-3.23.42.33-.89,1.09-1.63,2.36-2.24ZM103.82,11.88c.09-1.17.55-2.22,1.26-3,.56.89.86,1.99.76,3.17-.12,1.41-.54,2.38-1.26,3-.6-.73-.87-1.76-.76-3.17ZM101.97,13.89c.74.75,1.26,1.77,1.41,2.93.19,1.4-.02,2.44-.59,3.2-.74-.59-1.22-1.54-1.41-2.93-.15-1.16.07-2.29.59-3.2ZM100,19.44c.88.57,1.6,1.47,2,2.57.48,1.33.49,2.39.09,3.25-.85-.42-1.53-1.26-2-2.57-.4-1.1-.41-2.25-.09-3.25ZM99.24,25.28c.98.39,1.88,1.09,2.49,2.09.74,1.2.99,2.24.79,3.17-.92-.23-1.75-.9-2.5-2.1-.62-1-.87-2.11-.79-3.16M101.16,34.08c-.82-.84-1.29-1.88-1.43-2.92,1.03.16,2.07.68,2.88,1.52.98,1.01,1.43,1.98,1.43,2.92-.95-.04-1.9-.52-2.88-1.52ZM103.46,39.34c-.97-.66-1.67-1.57-2.01-2.56,1.05-.06,2.16.23,3.14.88,1.17.79,1.82,1.63,2.02,2.56-.93.16-1.97-.11-3.14-.88M106.83,44.01c-1.09-.43-1.96-1.18-2.51-2.08,1.02-.27,2.16-.23,3.25.2,1.32.52,2.11,1.22,2.51,2.08-.88.36-1.95.32-3.25-.2ZM111.11,47.86c-1.16-.19-2.16-.74-2.89-1.5.94-.48,2.07-.68,3.22-.49,1.39.23,2.33.74,2.89,1.5-.79.54-1.83.72-3.23.48M116.09,50.72c-1.17.06-2.27-.27-3.15-.86.81-.67,1.87-1.1,3.04-1.15,1.41-.07,2.43.23,3.15.86-.65.69-1.65,1.09-3.05,1.15M121.57,52.47c-1.14.31-2.28.21-3.25-.18.66-.82,1.6-1.47,2.74-1.77,1.36-.36,2.43-.28,3.25.18-.49.81-1.37,1.41-2.74,1.77ZM121.73,48c-.83-.83-1.32-1.87-1.47-2.91,1.05.15,2.07.65,2.9,1.48,1,1,1.46,1.96,1.47,2.91-.95-.02-1.92-.49-2.9-1.49M154.53,25.26c.09,1.04-.16,2.16-.78,3.16-.75,1.2-1.57,1.87-2.5,2.1-.2-.93.04-1.97.79-3.17.62-1,1.52-1.71,2.49-2.09ZM153.78,19.41c.31,1.01.31,2.15-.09,3.25-.47,1.33-1.15,2.16-2,2.57-.39-.87-.38-1.94.09-3.25.4-1.1,1.12-1.99,2-2.57ZM150.39,16.8c.15-1.16.67-2.18,1.41-2.93.52.91.75,2.03.59,3.2-.19,1.4-.67,2.35-1.41,2.93-.56-.76-.78-1.81-.59-3.2ZM147.65,28.21c-.55-1.03-.73-2.17-.56-3.2.95.45,1.8,1.22,2.35,2.25.67,1.24.83,2.3.58,3.2-.9-.29-1.69-1.02-2.35-2.25M148.51,35.27c-.82-.47-1.43-1.35-1.82-2.7-.32-1.13-.26-2.26.12-3.25.83.63,1.5,1.57,1.82,2.7.39,1.35.33,2.42-.12,3.25ZM147.67,23.75c-.76-.89-1.16-1.96-1.23-3.01,1.03.23,2.01.81,2.77,1.71.9,1.08,1.29,2.08,1.23,3.01-.94-.09-1.87-.63-2.77-1.71ZM148.7,8.86c.69.79,1.16,1.83,1.26,3,.12,1.41-.16,2.44-.76,3.17-.72-.62-1.14-1.61-1.26-3-.09-1.17.2-2.28.76-3.17ZM144.61,4.61c.85.62,1.52,1.55,1.86,2.67.4,1.35.36,2.42-.07,3.25-.82-.46-1.46-1.33-1.86-2.67-.34-1.13-.28-2.26.07-3.25ZM139.73,1.31c.96.43,1.81,1.2,2.39,2.23.68,1.23.86,2.29.61,3.2-.9-.28-1.7-1-2.38-2.23-.56-1.03-.75-2.16-.61-3.19M136.44,4.87c-1.01-.61-1.74-1.49-2.13-2.46,1.05-.11,2.17.13,3.17.74,1.21.73,1.89,1.55,2.14,2.46-.93.21-1.97,0-3.17-.74M138.96,8.76c-1.17-.02-2.24-.42-3.08-1.07.86-.61,1.94-.97,3.11-.95,1.41.02,2.41.4,3.08,1.07-.69.65-1.72.97-3.12.95M139.5,10.03c.96-.42,2.1-.54,3.25-.27,1.37.32,2.28.89,2.78,1.69-.81.48-1.88.6-3.25.27-1.14-.27-2.1-.88-2.78-1.69ZM142.56,13.08c1.03-.21,2.17-.08,3.23.42,1.27.61,2.03,1.35,2.37,2.24-.89.31-1.96.19-3.24-.42-1.06-.5-1.87-1.3-2.36-2.24ZM144.91,16.7c1.06.01,2.14.38,3.07,1.09,1.12.86,1.7,1.75,1.84,2.69-.94.11-1.96-.23-3.08-1.09-.93-.72-1.55-1.68-1.84-2.69M145.61,33.47c.68.8,1.14,1.85,1.21,3.03.09,1.41-.19,2.43-.8,3.16-.7-.63-1.12-1.62-1.21-3.03-.08-1.17.22-2.28.8-3.16ZM142.14,40.19c.18-1.16.7-2.17,1.44-2.91.51.93.72,2.04.55,3.2-.2,1.4-.71,2.33-1.45,2.92-.55-.77-.75-1.82-.54-3.21M138.78,43.12c.41-1.1,1.14-1.97,2.03-2.55.29,1.01.27,2.15-.14,3.25-.49,1.31-1.18,2.13-2.03,2.55-.38-.87-.35-1.94.14-3.25ZM134.86,45.28c.63-.99,1.54-1.69,2.53-2.06.07,1.04-.19,2.16-.82,3.14-.76,1.18-1.6,1.84-2.53,2.06-.19-.93.07-1.97.82-3.16M130.59,46.56c.83-.83,1.86-1.33,2.9-1.48-.15,1.04-.63,2.08-1.47,2.91-1,1-1.95,1.47-2.9,1.49.01-.95.48-1.91,1.47-2.91M132.19,52.46c-1.36-.36-2.24-.96-2.74-1.77.83-.46,1.89-.54,3.25-.18,1.14.3,2.08.94,2.74,1.77-.97.4-2.11.48-3.25.18ZM137.67,50.71c-1.41-.07-2.4-.47-3.05-1.15.72-.62,1.74-.93,3.15-.86,1.18.06,2.23.48,3.04,1.15-.87.59-1.96.91-3.14.86ZM142.66,47.84c-1.39.23-2.44.05-3.23-.48.56-.76,1.5-1.27,2.89-1.5,1.16-.19,2.29,0,3.22.49-.73.76-1.73,1.3-2.89,1.5M146.93,44c-1.32.52-2.38.56-3.25.2.39-.86,1.2-1.56,2.51-2.08,1.09-.43,2.23-.48,3.25-.2-.55.89-1.41,1.64-2.51,2.08ZM152.31,36.77c-.35,1-1.03,1.9-2.01,2.56-1.17.79-2.21,1.04-3.14.88.2-.93.85-1.77,2.02-2.56.98-.66,2.08-.94,3.14-.88M149.73,35.59c0-.95.45-1.91,1.43-2.92.82-.84,1.84-1.35,2.88-1.52-.13,1.04-.61,2.08-1.43,2.92-.97,1.01-1.94,1.49-2.88,1.52Z"/>
      <path class="cls-1" d="M110.86,29.04v.72c.21.46,1.29,2.51,3.09,5.09h-2.56s.51,1.04,2.08,1.04h26.66c1.57,0,2.09-1.04,2.09-1.04h-2.34c1.42-2.11,2.1-3.37,3.23-5.47h1.28v-2.01h-6.95c-7.31-5.92-8.87-16.05-4.62-23.62-12.16,2.42-21.29,12.97-21.94,25.29M111.42,29.06c3.59-2.22,7.72-3.51,11.96-3.74v3.74h-11.96ZM136.83,28.25l-.61.81h-11.21v-3.79c4.01.02,8.07.99,11.81,2.97M134.52,26.03c-7.18-2.8-15.46-2.39-22.46,1.42,1.28-10.6,8.92-19.3,18.86-22.16-2.81,6.82-1.63,14.92,3.61,20.74Z"/>
      <path class="cls-1" d="M125.62,44.74h2.36c1.57,0,2.08-1.04,2.08-1.04h-6.53s.51,1.04,2.08,1.04"/>
      <path class="cls-1" d="M134.83,41.48h-16.05s.51,1.04,2.08,1.04h11.88c1.57,0,2.09-1.04,2.09-1.04Z"/>
      <path class="cls-1" d="M138.46,39.27h-23.3s.51,1.06,2.08,1.06h19.12c1.57,0,2.09-1.06,2.09-1.06Z"/>
      <path class="cls-1" d="M140.67,37.07h-27.71s.51,1.06,2.08,1.06h23.54c1.57,0,2.08-1.06,2.08-1.06"/>
    </g>
  </g>
</svg>