<?xml version="1.0" encoding="UTF-8"?>
<svg id="Layer_2" data-name="Layer 2" xmlns="http://www.w3.org/2000/svg" viewBox="0 0 92.39 53.01">
  <defs>
    <style>
      .cls-1 {
        fill: #303030;
      }
    </style>
  </defs>
  <g id="Layer_1-2" data-name="Layer 1">
    <g>
      <g>
        <path class="cls-1" d="M42.66,44.15h1.23v5.7h-1.23v-.82c-.46.65-1.13.97-1.99.97-.78,0-1.45-.29-2.01-.87-.55-.58-.83-1.29-.83-2.13s.28-1.55.83-2.13c.55-.58,1.22-.87,2.01-.87.87,0,1.53.32,1.99.96v-.81ZM39.57,48.3c.34.35.77.52,1.29.52s.95-.17,1.29-.52c.34-.35.51-.78.51-1.3s-.17-.96-.51-1.3c-.34-.35-.77-.52-1.29-.52s-.95.17-1.29.52-.51.78-.51,1.3.17.96.51,1.3Z"/>
        <path class="cls-1" d="M46.39,45.72c0,.19.1.34.31.45.21.11.46.21.76.28.3.08.6.17.91.28.3.11.56.29.77.54.21.25.31.58.31.96,0,.55-.21.98-.63,1.29-.42.31-.95.47-1.59.47-.56,0-1.05-.12-1.45-.35-.4-.24-.7-.56-.88-.98l1.06-.62c.2.55.62.82,1.26.82s.97-.21.97-.64c0-.18-.1-.33-.31-.44-.21-.11-.46-.21-.76-.29s-.6-.17-.91-.28c-.3-.11-.56-.28-.77-.53-.21-.25-.31-.56-.31-.94,0-.52.2-.95.6-1.26.4-.32.89-.48,1.49-.48.47,0,.89.1,1.26.31.37.21.65.5.85.87l-1.04.58c-.2-.43-.55-.65-1.07-.65-.24,0-.43.05-.59.15s-.24.25-.24.45Z"/>
        <path class="cls-1" d="M51.31,45.72c0,.19.1.34.31.45.21.11.46.21.76.28.3.08.6.17.91.28.3.11.56.29.77.54.21.25.31.58.31.96,0,.55-.21.98-.63,1.29-.42.31-.95.47-1.59.47-.56,0-1.05-.12-1.45-.35-.4-.24-.7-.56-.88-.98l1.06-.62c.2.55.62.82,1.26.82s.97-.21.97-.64c0-.18-.1-.33-.31-.44-.21-.11-.46-.21-.76-.29s-.6-.17-.91-.28c-.3-.11-.56-.28-.77-.53-.21-.25-.31-.56-.31-.94,0-.52.2-.95.6-1.26.4-.32.89-.48,1.49-.48.47,0,.89.1,1.26.31.37.21.65.5.85.87l-1.04.58c-.2-.43-.55-.65-1.07-.65-.24,0-.43.05-.59.15s-.24.25-.24.45Z"/>
        <path class="cls-1" d="M56.55,43.06c-.16.16-.34.23-.55.23s-.4-.08-.55-.23c-.16-.16-.23-.34-.23-.55s.08-.4.23-.55c.15-.16.34-.23.56-.23s.41.08.56.23.23.34.23.55-.08.4-.23.55ZM55.39,49.85v-5.7h1.23v5.7h-1.23Z"/>
        <path class="cls-1" d="M59.11,45.72c0,.19.1.34.31.45.21.11.46.21.76.28.3.08.6.17.91.28.3.11.56.29.77.54.21.25.31.58.31.96,0,.55-.21.98-.63,1.29-.42.31-.95.47-1.59.47-.56,0-1.05-.12-1.45-.35-.4-.24-.7-.56-.88-.98l1.06-.62c.2.55.62.82,1.26.82s.97-.21.97-.64c0-.18-.1-.33-.31-.44-.21-.11-.46-.21-.76-.29s-.6-.17-.91-.28c-.3-.11-.56-.28-.77-.53-.21-.25-.31-.56-.31-.94,0-.52.2-.95.6-1.26.4-.32.89-.48,1.49-.48.47,0,.89.1,1.26.31.37.21.65.5.85.87l-1.04.58c-.2-.43-.55-.65-1.07-.65-.24,0-.43.05-.59.15s-.24.25-.24.45Z"/>
        <path class="cls-1" d="M66.21,45.34h-1.41v2.74c0,.24.05.4.16.51.11.1.26.16.47.17.21.01.47,0,.78,0v1.11c-.94.11-1.62.03-2.03-.24-.41-.28-.62-.79-.62-1.53v-2.74h-1.05v-1.19h1.05v-1.23l1.23-.36v1.6h1.41v1.19Z"/>
        <path class="cls-1" d="M71.61,44.15h1.23v5.7h-1.23v-.82c-.46.65-1.13.97-1.99.97-.78,0-1.45-.29-2.01-.87-.55-.58-.83-1.29-.83-2.13s.28-1.55.83-2.13c.55-.58,1.22-.87,2.01-.87.87,0,1.53.32,1.99.96v-.81ZM68.53,48.3c.34.35.77.52,1.29.52s.95-.17,1.29-.52c.34-.35.51-.78.51-1.3s-.17-.96-.51-1.3-.77-.52-1.29-.52-.95.17-1.29.52-.51.78-.51,1.3.17.96.51,1.3Z"/>
        <path class="cls-1" d="M77.28,44c.65,0,1.18.21,1.58.63.4.42.6.99.6,1.72v3.5h-1.23v-3.37c0-.43-.11-.75-.34-.98-.23-.23-.54-.34-.93-.34-.43,0-.78.14-1.05.4-.27.27-.4.68-.4,1.24v3.05h-1.23v-5.7h1.23v.73c.37-.59.96-.88,1.77-.88Z"/>
        <path class="cls-1" d="M83.48,50c-.86,0-1.57-.29-2.15-.87-.57-.58-.86-1.29-.86-2.13s.29-1.56.86-2.14c.57-.57,1.29-.86,2.15-.86.55,0,1.06.13,1.52.4s.8.62,1.03,1.07l-1.06.62c-.13-.27-.32-.49-.59-.64-.26-.16-.56-.23-.91-.23-.5,0-.92.17-1.26.51-.34.34-.51.77-.51,1.28s.17.93.51,1.28c.34.34.76.51,1.26.51.33,0,.64-.08.91-.24.27-.16.47-.37.61-.64l1.06.6c-.24.46-.59.82-1.05,1.08s-.96.4-1.52.4Z"/>
        <path class="cls-1" d="M87.81,47.52c.09.43.3.77.63,1s.73.35,1.2.35c.65,0,1.14-.24,1.47-.71l1.01.59c-.56.83-1.39,1.24-2.5,1.24-.93,0-1.68-.28-2.24-.85s-.85-1.28-.85-2.15.28-1.56.84-2.14c.56-.57,1.28-.86,2.17-.86.84,0,1.52.29,2.06.88s.8,1.3.8,2.13c0,.13-.01.3-.05.51h-4.54ZM87.8,46.52h3.35c-.08-.46-.28-.81-.58-1.05-.3-.24-.65-.35-1.05-.35-.46,0-.84.13-1.14.38-.3.25-.5.59-.58,1.03Z"/>
      </g>
      <g>
        <path class="cls-1" d="M21.2,32.74c-6.46,0-11.72-5.26-11.72-11.72s5.26-11.72,11.72-11.72,11.72,5.26,11.72,11.72-5.26,11.72-11.72,11.72ZM21.2,15.86c-2.85,0-5.17,2.32-5.17,5.17s2.32,5.17,5.17,5.17,5.17-2.32,5.17-5.17-2.32-5.17-5.17-5.17Z"/>
        <path class="cls-1" d="M6.55,39.91h0c-3.62,0-6.55-2.93-6.55-6.55V0h6.55v39.91Z"/>
        <path class="cls-1" d="M26.4,53.01h-3.13c-6.9,0-12.51-5.61-12.51-12.51v-6.36h15.64c5.2,0,9.43,4.23,9.43,9.43s-4.23,9.43-9.43,9.43ZM17.32,40.7c.1,3.19,2.74,5.76,5.95,5.76h3.13c1.59,0,2.88-1.29,2.88-2.88s-1.29-2.88-2.88-2.88h-9.08Z"/>
        <path class="cls-1" d="M48.45,40.03c-1.4,0-2.86-.1-4.3-.34-4-.67-8.84-2.8-9.16-9.11-.1-2.02.72-4.96,3.32-7.17,3.36-2.86,8.58-3.7,15.53-2.52-.01-.37-.03-.71-.05-.99-.07-1.1-.55-2.09-1.36-2.8-1.07-.94-2.7-1.37-4.71-1.23-4.28.28-5.66,3.21-5.8,3.55l-3.04-1.23-3.06-1.18c1.02-2.63,4.58-7.21,11.46-7.67,4.78-.32,7.78,1.37,9.46,2.85,2.12,1.86,3.39,4.45,3.58,7.3.25,3.9-.03,15.72-.04,16.22l-.06,2.41-2.31.66c-.23.07-4.49,1.27-9.47,1.27ZM48.26,26.93c-3.48,0-5.08.94-5.72,1.47-1.04.88-1.02,1.83-1.02,1.84.06,1.11.12,2.38,3.7,2.98,3.06.52,6.4.13,8.56-.26.03-1.48.06-3.43.08-5.41-2.26-.45-4.11-.63-5.61-.63Z"/>
      </g>
      <circle class="cls-1" cx="32.79" cy="9.37" r="3.23"/>
      <g>
        <path class="cls-1" d="M63.14,14.08c-1.92,0-3.48-1.56-3.48-3.48s1.56-3.48,3.48-3.48,3.48,1.56,3.48,3.48-1.56,3.48-3.48,3.48ZM63.14,7.63c-1.63,0-2.96,1.33-2.96,2.96s1.33,2.96,2.96,2.96,2.96-1.33,2.96-2.96-1.33-2.96-2.96-2.96Z"/>
        <path class="cls-1" d="M61.94,12.2v-3.37h1.5c.39,0,.7.1.92.29s.33.45.33.78c0,.27-.07.49-.22.66-.14.17-.34.29-.59.36l.91,1.27h-.7l-.84-1.17h-.73v1.17h-.59ZM62.53,10.5h.87c.21,0,.38-.05.5-.15.13-.1.19-.24.19-.42s-.06-.32-.18-.41c-.12-.1-.29-.14-.51-.14h-.86v1.13Z"/>
      </g>
    </g>
  </g>
</svg>