<?xml version="1.0" encoding="UTF-8"?>
<svg id="Layer_2" data-name="Layer 2" xmlns="http://www.w3.org/2000/svg" viewBox="0 0 208.47 58.18">
  <defs>
    <style>
      .cls-1, .cls-2 {
        fill: #303030;
      }

      .cls-2 {
        font-family: 29LTBukra-Bold, '29LT Bukra';
        font-size: 10px;
        font-weight: 700;
      }
    </style>
  </defs>
  <g id="Layer_1-2" data-name="Layer 1">
    <g>
      <path class="cls-1" d="M103.15,27.68c-3.41,0-6.82,0-10.22,0-.55,0-.68-.16-.66-.72.05-1.87.02-3.74.02-5.62,0-.46,0-.91,0-1.37-.01-.34-.2-.47-.55-.46-1.6.01-3.38,1.75-3.4,3.36-.01,1.39-.02,2.79,0,4.19,0,.46-.13.66-.6.65-1.73-.02-1.41.07-1.4-1.33,0-1.08.03-2.15-.01-3.23-.06-1.44.51-2.6,1.39-3.7,1.1-1.39,2.57-1.92,4.26-2.05.56-.04,1.11-.09,1.67-.11.52-.02.81.18.8.77-.02,2.27,0,4.54-.03,6.82,0,.45.14.6.58.59.6-.02,1.19-.03,1.79,0,.47.02.62-.13.61-.61-.02-2.15,0-4.3-.01-6.45,0-1.01-.01-1.01.97-1.01,1.11,0,1.12,0,1.12,1.16,0,2.01,0,4.03,0,6.04,0,.8.15.92.96.9.58-.01,1.15.01,1.73.02.71,0,.83-.12.85-.82.02-.87-.07-1.77.11-2.62.58-2.8,2.13-4.33,4.92-4.63.81-.09,1.63-.04,2.45-.01.12,0,.33.26.33.4.01,2.21,0,4.42-.03,6.63-.01.92-.06.95.84,1,.63.04,1.27.01,1.9-.05.62-.06,1.08-.64,1.08-1.29,0-1.89,0-3.78,0-5.68,0-.99.1-1.09,1.11-1.06q.98.03.98,1.04c0,1.83,0,3.67,0,5.5,0,2.33-1.66,3.84-3.99,3.8-3.19-.07-6.38-.02-9.56-.02,0-.01,0-.03,0-.04ZM108.63,22.53s0,0,0,0c0-.82-.02-1.63,0-2.45.01-.47-.15-.58-.6-.49-1.63.31-2.93,1.83-2.93,3.49,0,.58.03,1.15,0,1.73-.02.5.17.68.66.66.77-.02,1.55-.02,2.32.04.41.03.55-.09.54-.47,0-.84,0-1.67,0-2.51Z"/>
      <path class="cls-1" d="M44.02,27.75c0-.66,0-1.13,0-1.61-.04-1.93-.06-3.85-.13-5.78-.03-.78-.21-.88-.99-.72-1.58.31-2.76,1.72-2.78,3.34-.02,1.37-.03,2.75,0,4.12.01.5-.18.63-.62.61-.46-.02-.91,0-1.39,0-.04-.17-.08-.28-.08-.4,0-1.65-.06-3.31.03-4.96.06-1.08.55-2.04,1.3-2.87,1.44-1.59,3.2-2.28,5.32-2.06.14.01.28.02.42,0,.8-.06.86-.07.87.78.04,1.91.01,3.82.01,5.73,0,1.52,0,1.56,1.47,1.54,1.83-.02,1.47.09,1.48-1.4.02-2.85.01-5.7.03-8.55,0-.85.03-.87.86-.86,1.29.02,1.18-.24,1.19,1.16,0,1.4-.01,2.79,0,4.19,0,.23.14.47.22.7.22-.08.48-.12.67-.25.51-.38.98-.81,1.47-1.22,2.03-1.69,5.53-2.06,7.79-.03.92.82,1.64,1.76,2.01,2.91.35,1.08.4,2.23.08,3.36-.17.61-.33,1.23-.55,1.83-.06.17-.32.36-.5.36-.95.05-1.91.05-2.87.05-3.79,0-7.57.01-11.36.02-1.29,0-2.58,0-3.97,0ZM55.92,25.46c0,.05,0,.1,0,.15,1.39,0,2.78-.01,4.18,0,.6,0,.96-.17,1.08-.82.29-1.57-.16-2.87-1.35-3.91-1.32-1.15-3.19-1.3-4.61-.29-1.11.8-2.11,1.75-3.22,2.55-.66.48-.92,1.03-.86,1.82.03.35.12.5.49.49,1.43-.01,2.86,0,4.29,0Z"/>
      <path class="cls-1" d="M2.83,17.09c.69.38,1.26.7,1.89,1.05-.17.48-.31.95-.49,1.4-.68,1.65-1.14,3.34-1.17,5.14,0,.74.07.83.81.83,2.73,0,5.46,0,8.19.01.55,0,.76-.2.75-.78-.02-.85.01-1.71.1-2.56.25-2.5,2.34-4.55,4.84-4.75.81-.06,1.63,0,2.44-.02.43,0,.41.28.41.57.04,2.25.09,4.5.13,6.75.01.82.01.72.85.76,1.6.09,1.86-.79,1.84-2.06-.03-1.73-.07-3.46-.1-5.18-.02-.84.13-.97.98-.88,1.26.14,1.25.14,1.24,1.44-.01,1.79,0,3.59,0,5.38,0,1.49-1.54,3.32-3.03,3.46-1.13.11-2.27.05-3.4.07-.43,0-.57-.2-.56-.63.01-2.05,0-4.11-.02-6.16,0-.45-.06-.9-.09-1.34-1.48-.26-2.91.68-3.4,2.33-.22.72-.22,1.53-.23,2.29-.01.93.05,1.87.11,2.8.03.49-.17.68-.65.69-2.25.01-4.5.06-6.75.06-1.97,0-3.94-.07-5.92-.08-.43,0-.52-.16-.53-.56-.02-2.09-.01-4.19.52-6.23.33-1.26.82-2.47,1.27-3.8Z"/>
      <path class="cls-1" d="M82.17,27.68c-1.2,0-2.39,0-3.59,0-3.23,0-6.46.01-9.69.02-.3,0-.62,0-.88.11-.27.11-.6.31-.71.55-.78,1.81-2.07,3.03-3.95,3.59-.43.13-.9.11-1.36.14-.09,0-.27-.04-.27-.07-.04-.55-.1-1.1-.04-1.64.02-.15.44-.35.69-.36,1.72-.12,3.13-1.54,3.17-3.28.03-1.53.02-3.07.02-4.6,0-1.55,0-3.1,0-4.65.05,0,.1,0,.15,0,.03-.02.06-.06.1-.06,1.79-.28,1.83-.25,1.83,1.54,0,1.97,0,3.95,0,5.92,0,.16.02.31.03.57.95.04,1.89.1,2.83.11.66,0,.79-.44.79-1.01-.01-1.3,0-2.59,0-3.89,0-.64.01-1.28,0-1.91,0-.38.16-.51.54-.52,1.53,0,1.53-.02,1.53,1.46,0,1.59-.02,3.19.01,4.78,0,.3.14.83.3.86.48.11,1.01.04,1.52-.01.07,0,.14-.34.14-.52.01-1.93.03-3.87-.01-5.8-.01-.61.24-.78.75-.78.04,0,.08,0,.12,0,1.21-.05,1.23-.03,1.24,1.18.01,1.75,0,3.51.01,5.26,0,.72.11.81.84.81.54,0,1.08.02,1.61.02.44,0,.66-.17.72-.66.23-2.16-.24-4.19-1.01-6.17-.13-.34-.08-.55.22-.76,1.18-.82,1.29-.8,1.89.5.52,1.13.87,2.31.86,3.57,0,.16-.01.33.03.48.38,1.36.07,2.67-.25,3.99-.09.36-.13.74-.2,1.23Z"/>
      <path class="cls-1" d="M129.86,25.5c.63,0,1.16,0,1.7,0,2.95,0,5.9-.02,8.85-.02.54,0,.58-.29.5-.69-.34-1.64-1.81-2.86-3.5-2.88-1.36-.02-2.71-.02-4.07,0-.44,0-.59-.13-.63-.56-.05-.67.03-1.24.46-1.84,1.35-1.9,2.62-3.85,3.9-5.79.39-.59.55-.64,1.14-.23.34.24.66.5,1,.76-1.17,1.79-2.3,3.53-3.52,5.39.66.1,1.2.27,1.73.26,1.56-.02,2.89.48,4.01,1.54.88.84,1.36,1.91,1.46,3.12.07.87.01,1.75.04,2.63.01.38-.16.47-.5.47-3.85,0-7.69.03-11.54.04-.86,0-1.71-.02-2.57-.01-.4,0-.56-.12-.55-.55.02-4.01.02-8.01,0-12.02,0-.48.15-.62.63-.59,1.47.08,1.47.06,1.47,1.56,0,2.89,0,5.78,0,8.67v.73Z"/>
      <path class="cls-1" d="M30.3,17.11c3.45,1.85,5.13,5.51,3.78,10.56-.75,0-1.52,0-2.29,0-1.39,0-2.79-.02-4.18,0-.44,0-.58-.13-.58-.58,0-1.59.05-1.63,1.64-1.59,1.07.03,2.15-.02,3.22-.02.36,0,.5-.17.51-.5.08-1.55-.22-3.03-1.03-4.34-.31-.51-.92-.86-1.43-1.24-.39-.29-.48-.56-.24-.99.23-.41.39-.85.59-1.29Z"/>
      <path class="cls-1" d="M121.84,17.13c2,1.36,3.46,2.94,3.98,5.32.37,1.68.03,3.28-.19,4.91-.02.13-.21.33-.33.33-2.19.02-4.37.01-6.62.01-.05-.55-.14-1.02-.12-1.48.02-.62.35-.9.93-.74,1.31.35,2.61-.01,3.92-.03.17,0,.47-.34.47-.52.03-2.19-.37-4.22-2.38-5.53-.46-.3-.59-.58-.31-1.06.22-.37.41-.75.65-1.2Z"/>
      <path class="cls-1" d="M144.99,21.17c0-1.95,0-3.91,0-5.86,0-.49.08-.81.68-.78.31.02.63-.05.95-.09.46-.06.59.18.59.6,0,2.17,0,4.34,0,6.51,0,1.83,0,3.67.02,5.5,0,.46-.13.62-.6.64-1.61.08-1.61.1-1.61-1.5,0-1.67,0-3.35,0-5.02Z"/>
      <path class="cls-1" d="M144.89,13.54c-.23-.13-.6-.23-.66-.41-.05-.18.25-.44.34-.69.13-.34.23-.69.3-1.05.15-.8.82-1.31,1.5-1.18.4.08.55.31.54.66-.02.42-.35.26-.59.25-.51-.02-.73.3-.75.74-.02.48.33.55.73.57.31.02.75-.23.88.33.17.72-.02.96-.76.91-.25-.02-.5-.1-.76-.14-.23-.04-.47-.08-.7-.12-.02.05-.04.09-.07.14Z"/>
      <path class="cls-1" d="M93.39,13.49c.45-.02,1.04.52,1.06.96.02.42-.81,1.31-1.23,1.31-.36,0-1.01-.82-1.05-1.32-.03-.38.67-.93,1.22-.95Z"/>
      <path class="cls-1" d="M90.3,15.69c-.34,0-.97-.7-.99-1.11-.01-.37.66-1.06,1.06-1.09.43-.03,1.3.55,1.3.87,0,.48-.86,1.32-1.37,1.33Z"/>
      <path class="cls-1" d="M7.55,31.61c-.44,0-1.04-.62-1.07-1.11-.02-.37.62-.98,1.04-.99.54-.01,1.34.63,1.35,1.07,0,.4-.79,1.02-1.32,1.03Z"/>
      <path class="cls-1" d="M77.04,15.43c0-.75.23-.98.94-.98.54,0,1.28.7,1.26,1.19-.02.36-.71.93-1.13.91-.58-.02-1.08-.53-1.07-1.11Z"/>
      <path class="cls-1" d="M76.45,13.9c-.65,0-1.06-.38-1.05-.95,0-.65.51-1.24,1.05-1.24.58,0,1.02.44,1.02,1.02,0,.75-.37,1.18-1.02,1.17Z"/>
      <path class="cls-1" d="M23.2,31.6c-.71,0-1.07-.41-1.06-1.2,0-.5.49-.9,1.07-.88.58.02.98.44.99,1.04.01.69-.33,1.05-.99,1.04Z"/>
      <path class="cls-1" d="M117.67,30.54c0,.68-.32,1.05-.93,1.06-.48.01-1.21-.62-1.22-1.04,0-.41.73-1.05,1.2-1.04.64,0,.94.33.95,1.03Z"/>
      <path class="cls-1" d="M11.67,30.54c0,.58-.45,1.04-1.04,1.06-.53.01-1.1-.53-1.09-1.04.01-.53.5-1.04,1.02-1.05.64-.02,1.1.42,1.1,1.03Z"/>
      <path class="cls-1" d="M112.7,30.51c0-.47.6-1.09,1.06-1.09.45,0,1.05.69,1.05,1.21,0,.46-.58.97-1.11.97-.55,0-1.01-.49-1-1.09Z"/>
      <path class="cls-1" d="M100.78,30.59c-.02.62-.41,1.01-1.02,1-.56-.01-1.1-.54-1.09-1.06.01-.43.78-1.15,1.22-1.14.41,0,.89.66.88,1.2Z"/>
      <path class="cls-1" d="M95.8,30.53c0-.65.31-1.01.89-1.03.61-.01,1.23.53,1.22,1.07-.01.48-.61,1.01-1.15,1.02-.56,0-.95-.43-.96-1.06Z"/>
      <path class="cls-1" d="M75.8,15.46c0,.61-.44,1.06-1.03,1.07-.53,0-.87-.36-.87-.92,0-.83.37-1.3.99-1.29.62.01.91.38.91,1.14Z"/>
      <path class="cls-1" d="M41.1,14.48c0-.44.74-1.15,1.09-.96.42.24.87.69.98,1.13.06.26-.46.89-.81.97-.64.14-1.27-.54-1.26-1.14Z"/>
      <path class="cls-1" d="M44.1,14.62c0-.57.45-1.09.96-1.11.4-.01,1.08.69,1.07,1.11-.01.42-.67,1.07-1.07,1.05-.46-.02-.96-.57-.96-1.05Z"/>
      <g>
        <g>
          <path class="cls-1" d="M181.9,51.09l-.51.11v-.4l.97-.2v2.11h-.46v-1.62Z"/>
          <path class="cls-1" d="M183.65,50.55c.11,0,.22.02.33.06.1.04.2.09.27.16.08.07.14.15.19.24s.07.2.07.31c0,.15-.03.29-.09.4-.06.12-.13.24-.22.35l-.48.63h-.59l.5-.61s-.03,0-.04,0h-.05c-.09,0-.18-.02-.27-.05-.09-.04-.17-.09-.24-.15-.07-.07-.13-.15-.18-.24s-.07-.21-.07-.33c0-.11.02-.22.07-.31s.11-.18.19-.24c.08-.07.17-.12.27-.16.1-.04.21-.06.33-.06ZM183.93,51.08c-.07-.07-.16-.1-.28-.1s-.22.03-.29.1c-.07.07-.1.15-.1.26s.03.19.1.26c.07.07.16.11.29.11s.21-.03.28-.11c.07-.07.1-.16.1-.26s-.03-.19-.1-.26Z"/>
          <path class="cls-1" d="M186.02,52.69c-.1.04-.21.06-.33.06s-.22-.02-.33-.06c-.1-.04-.2-.09-.28-.16-.08-.07-.14-.15-.19-.24s-.07-.2-.07-.31c0-.15.03-.29.08-.41.06-.12.13-.24.23-.35l.48-.59h.59l-.5.57s.03,0,.04,0,.03,0,.04,0c.09,0,.18.02.27.05.09.04.17.09.24.16.07.07.13.15.17.25s.07.21.07.33-.02.22-.07.31-.11.18-.19.24c-.08.07-.17.12-.27.16ZM185.7,52.32c.12,0,.21-.04.28-.11.07-.07.1-.16.1-.26s-.03-.18-.1-.25c-.07-.07-.16-.11-.28-.11s-.22.03-.29.11c-.07.07-.1.15-.1.25s.03.19.1.26c.07.07.16.11.29.11Z"/>
          <path class="cls-1" d="M187.52,50.59c.1-.02.2-.04.3-.04s.2.01.3.04c.1.02.19.06.26.11.08.05.14.11.18.18s.07.16.07.26c0,.05,0,.1-.02.15-.02.05-.04.09-.06.13-.02.04-.05.08-.08.11s-.06.05-.09.07c.04.02.08.04.12.07.04.03.07.07.1.11.03.04.06.09.08.15.02.06.03.12.03.19,0,.11-.03.21-.08.29-.05.08-.12.14-.21.2-.09.05-.18.09-.28.11s-.21.04-.31.04-.21-.01-.31-.04c-.1-.02-.2-.06-.28-.11-.09-.05-.15-.12-.21-.2-.05-.08-.08-.18-.08-.29,0-.07,0-.13.03-.19.02-.06.04-.11.08-.15s.07-.08.11-.11c.04-.03.08-.06.12-.07-.03-.01-.06-.04-.09-.07s-.06-.07-.08-.11c-.03-.04-.05-.09-.06-.13-.02-.05-.02-.1-.02-.15,0-.1.02-.19.07-.26s.11-.13.18-.18c.08-.05.16-.08.26-.11ZM188.11,51.86c-.07-.05-.17-.07-.29-.07s-.22.02-.29.07c-.07.05-.11.11-.11.2s.04.14.11.19c.08.05.17.07.29.07s.22-.02.29-.07c.08-.05.11-.11.11-.19s-.04-.15-.11-.2ZM188.07,51.04c-.07-.04-.15-.06-.25-.06s-.18.02-.25.06c-.07.04-.1.09-.1.16,0,.06.03.11.09.16.06.04.15.07.26.07s.2-.02.26-.07c.06-.04.09-.09.09-.16,0-.07-.03-.12-.1-.16Z"/>
        </g>
        <path class="cls-1" d="M161.79,19.47c0-4.38,0-8.75,0-13.13,0-.29.07-.43.38-.5,1.22-.29,2.43-.6,3.65-.93.85-.23,1.7-.5,2.55-.72.61-.16,1.23-.27,1.84-.42,1.47-.36,2.93-.72,4.4-1.1,1.59-.42,3.18-.87,4.77-1.29,1.8-.47,3.6-.93,5.42-1.34.37-.08.8,0,1.19.09,1.64.4,3.28.84,4.92,1.26,1.28.33,2.57.64,3.85.97,1.29.33,2.58.68,3.87,1.02,1.39.36,2.77.72,4.16,1.08,1.33.34,2.67.68,4,1.03.43.11.86.25,1.3.35.27.06.35.21.35.48.02,8.19.04,16.38.07,24.56,0,1.41-.12,2.8-.38,4.18-.31,1.67-.86,3.24-1.55,4.79-.58,1.31-1.35,2.51-2.09,3.73-.59.98-1.37,1.81-2.1,2.67-1.1,1.3-2.27,2.52-3.59,3.59-1.05.85-2.11,1.67-3.19,2.48-.82.61-1.65,1.21-2.5,1.78-.43.29-.9.51-1.34.76-.83.48-1.64,1.01-2.5,1.45-1.22.63-2.47,1.22-3.73,1.79-.24.11-.6.1-.84,0-.83-.35-1.65-.76-2.46-1.17-.81-.41-1.63-.81-2.4-1.28-1.58-.95-3.17-1.88-4.68-2.93-1.42-.99-2.79-2.09-4.1-3.23-1.06-.92-2.04-1.93-2.98-2.98-1.34-1.49-2.52-3.11-3.48-4.87-.46-.85-.92-1.7-1.3-2.58-.59-1.36-.94-2.8-1.22-4.26-.28-1.44-.25-2.88-.25-4.33,0-3.67,0-7.34,0-11h0ZM195.43,47.04s-.06-.05-.08-.07c.07-.05.16-.09.22-.15.75-.74,1.51-1.47,2.23-2.24,1.16-1.25,2.13-2.64,2.95-4.13.91-1.65,1.59-3.38,2.02-5.22.41-1.75.43-3.52.43-5.29,0-3.77-.02-7.54-.02-11.31,0-2.64,0-5.29.01-7.93,0-.3-.06-.47-.39-.54-.55-.13-1.08-.3-1.62-.45-1.71-.47-3.41-.94-5.12-1.41-1.13-.31-2.26-.65-3.4-.96-2.19-.6-4.39-1.2-6.59-1.8-.34-.09-.41-.04-.41.34,0,2.23.02,4.45.02,6.68,0,.82,0,.8-.81.79-.33,0-.4-.12-.4-.44.01-2.33,0-4.66,0-6.99,0-.48-.01-.49-.48-.36-1.18.33-2.35.67-3.53,1-1.47.41-2.94.8-4.41,1.21-1.53.43-3.06.88-4.6,1.3-1.41.39-2.83.77-4.22,1.15-.03.58-.08,1.1-.08,1.61-.03,3.62-.05,7.24-.08,10.87-.02,2.28-.05,4.57-.05,6.85,0,1.27.01,2.54.07,3.81.06,1.36.48,2.65.91,3.92.5,1.49,1.2,2.9,2.04,4.24,1.23,1.96,2.71,3.69,4.45,5.21.15.13.31.24.47.36l-.08.08c-.32-.27-.63-.53-.95-.8-1.67-1.39-3.12-2.98-4.43-4.71-1.33-1.74-2.28-3.68-2.97-5.75-.49-1.47-.69-3-.7-4.54-.01-4.17,0-8.35,0-12.52,0-2.8,0-5.6,0-8.4,0-.18-.06-.42-.18-.54-.5-.44-1.02-.84-1.55-1.25-.1-.07-.22-.12-.32-.17,0,.3,0,.56,0,.81,0,7.41,0,14.83,0,22.24,0,1.81.26,3.57.81,5.3,1.04,3.27,2.86,6.07,5.15,8.57,1.85,2.03,3.95,3.8,6.19,5.41,2.78,2.01,5.74,3.71,8.84,5.15.18.09.47.07.66,0,.69-.3,1.36-.65,2.03-.99,2.69-1.39,5.28-2.95,7.69-4.79,2.02-1.54,3.92-3.22,5.61-5.14,1.43-1.63,2.7-3.36,3.66-5.31,1.34-2.72,2.04-5.57,2.02-8.64-.05-7.4-.02-14.81-.02-22.21,0-.12-.01-.23-.03-.4-.13.07-.21.1-.28.16-.45.36-.88.73-1.35,1.07-.3.22-.4.47-.39.83.02,1.5.04,2.99.04,4.49,0,4.58,0,9.16-.03,13.74,0,1.54.07,3.07-.15,4.61-.2,1.45-.61,2.84-1.18,4.16-.97,2.27-2.33,4.3-4.02,6.11-1.13,1.21-2.29,2.38-3.6,3.39ZM204.57,8.31c-.17-.09-.25-.16-.34-.18-.54-.16-1.08-.31-1.62-.46-1.98-.54-3.96-1.07-5.94-1.61-1.57-.43-3.14-.86-4.7-1.3-1.98-.55-3.96-1.1-5.92-1.68-.55-.16-1.05-.16-1.58.02-.65.22-1.31.4-1.96.59-1.2.35-2.39.69-3.59,1.03-1.59.45-3.18.89-4.76,1.34-1.72.49-3.43.98-5.15,1.46-.97.27-1.95.53-2.92.81-.08.02-.19.15-.18.2.05.21.74.59.94.53.46-.13.93-.26,1.39-.4,1.56-.44,3.13-.89,4.69-1.33,1-.28,2.02-.53,3.02-.81,1.5-.42,3-.85,4.5-1.28,1.22-.34,2.45-.66,3.66-1.03.66-.2,1.29-.25,1.94.01.13.06.27.1.41.14,2.23.61,4.46,1.21,6.69,1.82,1.75.48,3.5.98,5.25,1.46,1.65.46,3.3.92,4.96,1.37.09.03.23.04.29,0,.3-.21.58-.44.92-.7ZM164.59,7.3c.23.55.6.72,1.13.51.06-.02.13-.05.19-.07,1.6-.45,3.19-.91,4.79-1.36,1.16-.32,2.32-.63,3.47-.96,1.46-.41,2.9-.85,4.36-1.27,1.87-.53,3.75-1,5.6-1.58.74-.23,1.39-.3,2.15-.06,1.3.43,2.63.74,3.95,1.1,1.77.48,3.55.96,5.32,1.45,1.85.51,3.69,1.04,5.54,1.56,1.14.32,2.29.65,3.43.97.17.05.36.14.52.11.18-.02.45-.12.49-.25.08-.24-.21-.24-.36-.28-.85-.24-1.71-.46-2.56-.71-1.7-.5-3.4-1.01-5.09-1.51-2.13-.63-4.26-1.26-6.38-1.89-1.79-.53-3.59-1.06-5.38-1.61-.48-.15-.95-.12-1.42.02-.91.28-1.82.56-2.74.83-2.67.8-5.35,1.59-8.02,2.38-1.28.38-2.56.74-3.84,1.12-1.71.49-3.42.99-5.13,1.48Z"/>
        <path class="cls-1" d="M189.98,24.03c-.36-.34-.69-.66-1.03-.98-.32-.31-.49-.69-.59-1.12-.06-.25,0-.32.26-.37.81-.15,1.53.1,2.23.46.07.03.14.06.26.1.06-.34.13-.65.15-.97.02-.29.2-.33.39-.24.36.17.75.34,1.03.6.34.31.59.73.88,1.1.08.1.15.21.21.29.06-.01.08-.01.08-.02.32-.43.31-.42.75-.06.62.51,1.07,1.12,1.19,1.93.01.09.09.17.14.25.08-.05.16-.1.23-.17.06-.05.09-.12.16-.21.54.4.89.88,1.06,1.48.09.33.11.68.14,1.03.03.33.11.4.39.24.24-.13.33-.05.43.16.38.81.67,1.62.34,2.53-.02.06-.01.2.02.21.07.03.18.04.25,0,.31-.18.4-.04.48.25.25.85.26,1.68-.14,2.49-.03.06-.03.13-.04.18.03.03.04.06.06.06.55.12.69.32.63.9-.07.66-.26,1.27-.62,1.83-.07.11-.1.24-.18.4h.55c-.01.86-.23,1.6-.77,2.23-.12.14-.25.26-.38.39-.2.2-.18.35.08.41.3.07.28.21.19.44-.33.81-.82,1.47-1.6,1.89-.2.11-.2.25-.01.35.29.15.22.35.1.56-.42.72-1.04,1.19-1.82,1.48-.1.04-.21.07-.35.11.04.09.06.2.12.24.27.19.17.37,0,.56-.53.6-1.19.93-1.98,1.04-.17.02-.34.07-.49.11,0,.07-.02.1,0,.11.29.45.28.44-.16.73-.69.46-1.43.62-2.24.49-.28-.05-.37.05-.26.3.12.28,0,.39-.23.48-1.07.42-2.09.34-3.11-.22-.42-.23-.9-.41-1.37-.51-.73-.17-1.39.11-2,.51-.78.5-1.63.59-2.52.42-.2-.04-.38-.13-.57-.21-.23-.1-.35-.26-.22-.53.11-.23,0-.31-.23-.26-.92.22-1.73-.07-2.48-.58-.16-.11-.23-.22-.11-.42.19-.31.15-.38-.23-.41-.71-.05-1.32-.32-1.85-.8-.07-.06-.13-.12-.19-.19-.33-.38-.33-.4.14-.73-.15-.08-.26-.15-.37-.2-.78-.35-1.47-.8-1.9-1.58-.14-.26-.17-.44.18-.5.04,0,.07-.05.17-.11-.13-.11-.22-.21-.33-.27-.64-.38-1.13-.88-1.38-1.59-.2-.57-.2-.57.35-.84-.09-.11-.16-.21-.25-.29-.58-.58-.96-1.26-1.11-2.07-.07-.35.02-.57.41-.6.05,0,.1-.04.09-.04-.22-.54-.46-1.05-.64-1.58-.09-.26-.1-.55-.09-.83.02-.57.04-.57.66-.59-.05-.19-.06-.37-.14-.53-.36-.75-.32-1.5-.05-2.26.08-.24.2-.37.47-.25.07.03.17.03.26.04-.03-.43-.06-.83-.07-1.23-.01-.57.19-1.08.49-1.55.12-.19.24-.25.44-.1.08.06.19.1.32.16-.11-1.21.35-2.14,1.18-2.91.04.02.06.02.08.04.13.1.25.2.38.3.07-.16.16-.31.2-.48.2-.86.71-1.48,1.43-1.96.15-.1.25-.06.32.09.05.11.12.21.22.39.1-.19.17-.32.23-.45.38-.77.93-1.37,1.77-1.67.35-.12.41-.08.47.26.03.15.05.31.06.47.01.15,0,.31,0,.49.44-.18.82-.39,1.22-.48.42-.09.86-.11,1.29-.09.34.01.4.19.27.52-.24.63-.61,1.15-1.16,1.53-.14.1-.27.24-.44.39.37.25.72.48,1.11.74-.49.46-.96.77-1.52.97-.22.08-.47.2-.6.38-.34.46-.77.78-1.25,1.06-.14.08-.25.24-.36.38-.28.37-.53.77-.83,1.12-.21.24-.36.49-.46.8-.15.45-.4.86-.59,1.3-.08.18-.15.38-.16.57,0,.52-.12,1-.35,1.46-.08.16-.09.36-.09.55-.01.59-.01,1.18,0,1.77,0,.15.01.32.08.45.23.43.32.88.33,1.36,0,.22.05.49.18.66.33.46.51.96.63,1.51.03.17.15.35.28.46.34.3.66.61.81,1.05.11.31.32.5.6.7.42.29.77.68,1.15,1.02.15.13.3.31.48.35.48.09.82.39,1.2.65.22.15.49.28.75.32,1.3.19,2.22.86,2.77,2.05.13.29.26.57.61.68.32.1.58.03.77-.24.1-.14.19-.28.26-.43.5-1.22,1.46-1.83,2.72-2.05.25-.04.51-.17.72-.32.38-.27.74-.52,1.21-.63.19-.04.38-.22.53-.38.39-.42.7-.91,1.29-1.1.1-.03.19-.18.25-.3.27-.55.56-1.07,1.08-1.44.14-.1.21-.34.25-.53.12-.49.27-.94.59-1.35.11-.14.17-.37.16-.56-.02-.49.11-.93.28-1.37.09-.24.1-.52.11-.78.02-.46-.02-.92.01-1.38.02-.29,0-.53-.12-.81-.15-.35-.23-.75-.27-1.13-.04-.35-.06-.66-.32-.95-.21-.25-.33-.61-.41-.95-.1-.4-.29-.7-.56-1.01-.31-.34-.53-.77-.8-1.15-.09-.12-.18-.27-.31-.33-.54-.28-.98-.67-1.34-1.16-.11-.15-.33-.21-.5-.31-.42-.23-.85-.44-1.27-.68-.23-.13-.23-.32-.01-.48.24-.18.49-.35.77-.54ZM194.97,41.43c.1-.09.14-.12.17-.15.45-.64.39-2.26-.11-2.86-.18-.22-.32-.21-.46.05-.4.78-.33,1.56.02,2.33.09.21.23.39.38.63ZM192.91,42.13c.06.28.1.57.17.85.03.11.13.28.19.27.11-.01.24-.1.31-.2.55-.72.61-1.54.44-2.4-.03-.14-.14-.26-.21-.39-.14.1-.32.17-.41.3-.32.46-.45.99-.49,1.56ZM197.15,36.1c-.09-.87-.53-1.65-1.36-2.21-.08-.05-.22-.07-.3-.03-.06.03-.07.17-.08.26,0,.09.01.18.03.27.2.84.52,1.6,1.29,2.08.34.21.42.16.41-.37ZM179.05,44.88s.06-.06.07-.08c.32-.83-.35-2.31-.98-2.78-.21-.16-.35-.05-.4.22-.13.7.17,1.3.47,1.88.18.35.47.61.84.76ZM194.25,23.25c-.36.88-.14,1.91.55,2.74.08.1.22.15.34.23.09-.14.26-.29.25-.43-.03-.49-.07-.99-.21-1.45-.14-.46-.48-.82-.93-1.09ZM176.39,40.14c-.57,1.01-.2,2.98.56,3.14.67-1.05.11-2.78-.56-3.14ZM181.96,44.23c-.32,0-.39.12-.26.41.31.74.82,1.32,1.53,1.68.19.1.44.08.66.12-.03-.23,0-.5-.11-.7-.35-.67-.92-1.12-1.59-1.45-.09-.04-.19-.06-.23-.07ZM191.45,24.32c-.5-.1-.94.05-1.36.28-.11.06-.2.16-.29.24.1.08.19.19.3.25.85.4,1.71.39,2.58.06.09-.03.23-.14.22-.19,0-.1-.1-.22-.19-.28-.38-.25-.8-.41-1.26-.35ZM194.4,43.89c.92-.09,1.62-.39,2.18-1.01.07-.08.11-.19.16-.29-.1-.05-.2-.14-.31-.15-.84-.13-1.54.2-2.17.71-.17.14-.27.36-.4.54.21.07.43.15.56.19ZM171.82,29.3c0,.61.14,1.15.52,1.64.19.25.3.25.46-.02.06-.1.1-.2.13-.31.19-.86-.03-1.64-.51-2.35-.16-.23-.35-.19-.42.09-.08.31-.11.64-.17.95ZM181.23,22.08c-.85-.25-2.26.59-2.59,1.24-.06.11-.1.31-.04.37.08.08.27.12.39.1.82-.13,1.5-.51,1.99-1.19.11-.15.16-.33.24-.52ZM176.98,27.51c-1.22-.1-2.1.38-2.82,1.19-.19.22-.13.33.17.36,1.02.09,1.8-.38,2.44-1.11.09-.1.12-.25.2-.43ZM192.41,41.98s-.09-.04-.13-.06c-.16.1-.34.17-.46.3-.62.69-.88,1.5-.75,2.42.04.25.16.28.36.11.56-.48.88-1.1.99-1.82.05-.31,0-.63-.01-.95ZM181.43,45.63c0-.83-.81-2.02-1.51-2.32-.04-.02-.09-.03-.13-.04-.19-.07-.26,0-.23.19.17.96.54,1.8,1.42,2.33.1.06.27.14.32.1.09-.07.11-.23.12-.26ZM175.49,44.77c.02.09.02.11.03.13.47.76,2.3.95,2.81.65.2-.12.25-.29.05-.42-.29-.2-.61-.39-.94-.5-.66-.23-1.31-.14-1.95.15ZM175.93,23.16c-.19.17-.33.28-.44.41-.59.68-.73,1.49-.64,2.36.01.11.08.27.16.29.09.03.25-.05.31-.13.19-.24.37-.48.51-.75.33-.67.34-1.37.11-2.18ZM196.69,28.73c.12-.33.24-.57.3-.82.17-.77.08-1.51-.33-2.2-.05-.09-.18-.17-.29-.19-.05,0-.16.12-.19.2-.31.88-.28,1.74.15,2.57.07.13.19.24.35.44ZM172.5,33.26c-.06-.76-.42-1.62-.96-2.1-.08-.08-.21-.1-.32-.15-.05.11-.13.22-.15.34-.09.81.13,1.53.65,2.15.13.15.32.24.49.36.1-.2.19-.4.29-.6ZM173.79,25.46c-.7.61-.9,1.93-.43,2.86.05.09.14.17.2.25.09-.07.21-.13.26-.23.48-.85.46-1.74.16-2.63-.03-.09-.13-.17-.2-.25ZM178.49,22.04c-.04-.14-.08-.29-.13-.43-.14.05-.3.08-.42.17-.7.51-1,1.24-1.13,2.06-.02.12.03.31.12.38.06.05.25-.02.37-.07.1-.04.2-.11.27-.19.51-.53.86-1.15.92-1.92ZM180.43,24.84c-.55-.64-2.45-.8-3.18.01.45.65,2.38.76,3.18-.01ZM188.6,48.14c.05,0,.14,0,.23-.02.21-.05.41-.11.62-.17-.14-.17-.26-.39-.43-.51-.66-.45-1.38-.69-2.19-.49-.13.03-.23.16-.34.24.08.1.14.23.24.31.55.4,1.16.62,1.88.65ZM188.94,22c.02.14.01.18.03.2.49.98,1.34,1.45,2.39,1.6.32.05.4-.08.24-.37-.38-.68-1-1.09-1.73-1.31-.28-.08-.59-.08-.92-.12ZM188.81,45.92c.75-.09,1.87-1.33,1.72-2.63-.95.11-1.94,1.61-1.72,2.63ZM195.2,31.54c0,.1-.02.17-.01.23.16,1.01.79,1.68,1.65,2.17.12.07.29.05.44.07,0-.15.07-.34,0-.46-.22-.41-.43-.85-.74-1.19-.35-.38-.78-.69-1.34-.82ZM186.25,46.12c-.03.35.07.44.36.33.89-.33,1.5-.96,1.84-1.84.04-.09.05-.28.01-.3-.09-.05-.23-.05-.34-.03-.85.21-1.35.84-1.77,1.54-.06.1-.07.23-.09.3ZM173.56,31.58c.45-.24.95-.43,1.33-.75.32-.27.54-.68.75-1.05.13-.24,0-.37-.27-.3-.24.06-.47.14-.7.23-.65.28-1.09.78-1.38,1.41-.11.25-.02.38.26.45ZM193.35,23.92c-.08-.97-.48-1.66-1.2-2.16-.11-.08-.25-.11-.38-.17-.03.15-.11.29-.1.44.05.87.47,1.55,1.15,2.08.11.08.26.11.39.17.06-.14.11-.27.14-.35ZM193.56,44.44c-.61.07-1.14.28-1.63.57-.11.06-.17.22-.25.34.11.08.22.19.34.22.9.24,1.73.05,2.5-.44.21-.13.18-.3-.02-.38-.3-.13-.62-.21-.94-.31ZM175.38,38.17c-.75.63-.72,2.4-.41,2.95.14.25.36.24.48-.02.14-.32.27-.64.35-.98.16-.7-.01-1.34-.42-1.95ZM181.63,48.18s0-.03,0-.05c.1,0,.2,0,.3-.02.58-.11,1.13-.3,1.58-.69.27-.23.24-.35-.1-.45-.23-.07-.48-.12-.72-.11-.7.05-1.32.34-1.86.8-.19.17-.15.3.06.37.23.07.48.1.72.15ZM198.38,29.23c-.05-.19-.1-.54-.22-.86-.1-.27-.31-.26-.47-.01-.49.76-.59,1.59-.35,2.45.03.11.14.27.23.28.09.02.25-.09.31-.19.29-.46.47-.96.5-1.67ZM176.27,27.04c.73.01,1.48-.27,2.02-.73.23-.2.21-.37-.1-.44-.32-.07-.67-.1-1-.08-.62.04-1.15.35-1.63.74-.1.08-.22.22,0,.31.25.09.51.15.69.2ZM199.46,34.38c0-.37-.1-.46-.36-.31-.85.48-1.29,1.25-1.49,2.17-.07.32.15.44.46.25.82-.5,1.26-1.25,1.38-2.11ZM173.91,39.12c.14-.09.21-.12.27-.18.72-.72.9-1.6.73-2.57-.05-.28-.18-.32-.39-.12-.67.64-.87,1.44-.78,2.33.02.17.1.33.17.54ZM194.41,29.46c.04.13.04.23.09.29.26.37.48.8.82,1.09.35.29.81.45,1.24.64.09.04.28-.01.36-.09.05-.05,0-.23-.04-.33-.06-.14-.16-.27-.25-.39-.53-.72-1.24-1.14-2.21-1.21ZM193.17,27.5c.1.18.14.31.22.41.61.77,1.4,1.18,2.39,1.15.1,0,.2-.06.31-.09-.04-.1-.05-.22-.12-.3-.7-.86-1.62-1.19-2.79-1.17ZM192.25,46.64c-.66-.65-2.41-.87-3.08-.17.26.73,2.38.95,3.08.17ZM172.87,34.03c.19-.03.33-.02.44-.07.85-.43,1.45-1.09,1.66-2.04.06-.29-.02-.35-.3-.24-.86.34-1.41.98-1.73,1.82-.06.15-.04.32-.06.54ZM173.04,36.69c.24-.12.4-.17.51-.27.7-.61,1.14-1.35,1.13-2.31,0-.09-.05-.18-.08-.27-.09.03-.19.04-.27.09-.72.46-1.04,1.18-1.28,1.95-.07.22,0,.47,0,.79ZM170.75,34.19c-.01.73.3,1.26.67,1.74.17.23.43.4.66.56.08.06.27.09.34.04.08-.07.12-.23.11-.35-.02-.2-.07-.4-.15-.58-.26-.61-.63-1.14-1.2-1.5-.09-.06-.23-.07-.34-.05-.05,0-.08.14-.08.14ZM194.8,26.68c-.2-.14-.34-.26-.49-.35-.73-.46-1.51-.69-2.37-.44-.1.03-.18.14-.28.22.07.08.12.19.21.24.46.27.92.55,1.47.63.5.06.97.07,1.45-.29ZM173.43,42.57c.39.8,1.82,1.48,2.65,1.29.28-.07.33-.19.13-.41-.47-.53-1.08-.82-1.76-.97-.34-.07-.68-.13-1.02.09ZM199.12,31.53s.01-.08,0-.15c-.03-.14-.08-.27-.12-.4-.13.07-.29.11-.39.22-.6.64-.89,1.4-.8,2.28.01.12.11.29.21.34.07.03.25-.08.33-.17.52-.58.79-1.27.76-2.12ZM179.47,47.1c.44.06.88-.06,1.27-.34.09-.07.17-.15.26-.23-.09-.08-.16-.19-.26-.24-.91-.45-1.78-.31-2.63.17-.18.1-.16.22,0,.33.4.27.85.33,1.36.3ZM173.05,39.26c.26.02.27-.11.21-.29-.31-.87-.88-1.51-1.74-1.86-.14-.06-.32-.03-.48-.05.03.15.05.3.08.44.01.07.04.13.07.19.37.82,1.01,1.32,1.85,1.57ZM195.39,36.11c-.38.75,0,2.37.61,2.81.25.18.44.09.48-.25.09-.78-.1-1.5-.56-2.13-.13-.17-.34-.28-.53-.43ZM171.85,39.94c.2.29.33.55.52.76.46.54,1.06.85,1.75,1,.13.03.27-.05.41-.07-.04-.14-.04-.3-.12-.4-.22-.28-.43-.59-.72-.8-.51-.37-1.09-.61-1.84-.49ZM199.16,37.21c-.03-.27-.16-.28-.34-.21-.93.36-1.6.97-1.89,1.94-.02.08-.05.22-.02.25.07.05.19.06.27.04.7-.16,1.18-.62,1.56-1.2.17-.26.28-.55.42-.83ZM198.24,39.97c-1.02-.28-2.19.65-2.55,1.37-.11.23-.02.36.25.36.53,0,.95-.29,1.34-.57.4-.29.8-.62.96-1.17Z"/>
        <path class="cls-1" d="M188.02,22.87c-.27.77-.63,1.51-.77,2.28-.17.94-.21,1.92-.22,2.88,0,1.13.24,2.23.72,3.26.61,1.31,1.38,2.53,2.54,3.44.23.18.56.31.85.32.86.03,1.73,0,2.6-.04.32-.01.43.08.43.42,0,.35,0,.62-.46.62-.11,0-.26.14-.33.25-.48.79-.94,1.58-1.4,2.38-.02.04-.02.08-.05.18h1.04s.02.06.02.09c-.23.2-.46.43-.81.43-.91,0-1.82,0-2.73,0-3.4,0-6.79.01-10.19.02-.44,0-.88,0-1.31-.03-.31-.02-.55-.18-.8-.5h1.24c-.09-.19-.15-.32-.22-.44-.32-.52-.63-1.03-.97-1.54-.34-.51-.37-1.08-.27-1.65.12-.72.19-1.45.39-2.15.41-1.41.9-2.79,1.75-4.02.68-.99,1.38-1.97,2.28-2.78,1.77-1.59,3.78-2.73,6.09-3.32.21-.05.42-.08.58-.1ZM187.18,23.61c-2.41.67-4.46,1.91-6.17,3.75-2,2.16-3.18,4.71-3.61,7.72,3.75-1.91,7.56-2.27,11.52-.86-2.47-3.25-3.17-6.73-1.74-10.62ZM187.05,35.9c.53,0,1.06,0,1.59,0,.37,0,.75.03,1.11-.02.16-.02.29-.2.44-.31-.11-.12-.19-.28-.32-.34-.48-.21-.98-.37-1.46-.59-1.27-.56-2.63-.63-3.98-.77-.23-.02-.32.09-.32.32.01.45.01.9,0,1.35,0,.27.1.37.38.37.85-.02,1.71,0,2.56,0ZM177.21,35.83c.16.05.24.1.32.1.29,0,.58-.02.87-.02,1.52,0,3.04,0,4.56,0,.27,0,.38-.07.37-.36-.02-.43-.02-.86,0-1.28.02-.33-.14-.37-.41-.34-1.9.19-3.69.75-5.38,1.63-.11.06-.19.16-.33.28Z"/>
        <path class="cls-1" d="M184.47,15.8c0,.6,0,1.19,0,1.79,0,.22-.06.32-.29.35-.78.09-1.56.2-2.33.31-.31.05-.61.13-.92.21-.2.05-.31-.02-.39-.21-.4-.99-.81-1.97-1.23-2.95-.1-.24,0-.31.2-.39,1.33-.51,2.71-.79,4.13-.89.8-.05.8-.06.79.73,0,.35,0,.7,0,1.05.01,0,.03,0,.04,0Z"/>
        <path class="cls-1" d="M190.95,15c-.3.75-.57,1.46-.86,2.16-.16.38-.32.77-.51,1.13-.05.09-.22.19-.32.18-1.08-.17-2.16-.37-3.25-.54-.21-.03-.29-.1-.29-.32,0-1.12.01-2.25,0-3.37,0-.2.08-.3.28-.28.92.12,1.85.21,2.76.39.73.15,1.43.42,2.17.65Z"/>
        <path class="cls-1" d="M192.01,15.42c1.23.58,2.34,1.22,3.34,2.05.29.24.59.49.89.73.18.15.17.28,0,.44-.65.65-1.29,1.32-1.94,1.97-.06.06-.25.07-.34.03-.98-.52-1.95-1.07-2.93-1.59-.43-.23-.44-.25-.24-.71.37-.84.7-1.7,1.05-2.55.05-.11.09-.22.15-.37Z"/>
        <path class="cls-1" d="M179.47,18.8c-.09.07-.2.19-.33.26-.83.43-1.66.84-2.49,1.27-.06.03-.12.06-.18.1-.15.1-.31.28-.46.27-.14-.01-.26-.22-.39-.35-.56-.55-1.11-1.12-1.68-1.66-.21-.2-.17-.34,0-.5.26-.23.5-.49.79-.68,1.03-.68,2.08-1.33,3.12-1.99.15-.1.27-.08.35.1.4.96.8,1.93,1.19,2.89.03.06.03.13.05.28Z"/>
        <path class="cls-1" d="M174.96,21.54c-.07.07-.12.14-.19.2-.96.84-1.87,1.71-2.59,2.77-.06.08-.26.15-.36.11-.58-.21-1.14-.45-1.72-.68-.23-.09-.31-.18-.18-.45.7-1.43,1.6-2.72,2.6-3.96.18-.23.31-.24.51-.03.59.61,1.2,1.21,1.79,1.82.05.05.08.13.13.2Z"/>
        <path class="cls-1" d="M197.35,19.31c.13.12.3.25.43.42.9,1.17,1.76,2.36,2.41,3.69.19.39.16.42-.24.57-.52.19-1.04.42-1.56.62-.08.03-.22,0-.29-.05-.13-.1-.24-.24-.34-.37-.69-.91-1.5-1.7-2.37-2.43-.28-.23-.1-.37.07-.54.62-.62,1.24-1.24,1.9-1.91Z"/>
        <path class="cls-1" d="M201.24,30.05c-.09,0-.18-.01-.27,0-.25.03-.33-.08-.4-.32-.37-1.32-.9-2.58-1.59-3.76-.22-.37-.21-.37.19-.52.43-.16.86-.32,1.28-.5.22-.09.32-.1.42.16.43,1.16.73,2.35.85,3.58.03.31.11.62.13.93.03.43.02.43-.41.43-.07,0-.13,0-.2,0h0Z"/>
        <path class="cls-1" d="M168.94,30.05c-.61,0-.62,0-.55-.61.1-.83.19-1.67.36-2.5.13-.65.36-1.27.54-1.91.05-.16.12-.22.3-.15.5.21,1,.41,1.5.6.25.1.29.22.15.46-.7,1.2-1.28,2.45-1.61,3.8-.11.44-.45.27-.68.31Z"/>
        <path class="cls-1" d="M192.2,40.07c-.26.32-.55.47-.91.47-1.92,0-3.84,0-5.77,0-2.18,0-4.36,0-6.54,0-.38,0-.71-.07-.96-.47h14.18Z"/>
        <path class="cls-1" d="M188.27,9.56c3.95,1.04,7.85,2.11,11.73,3.22-.39.29-.77.26-1.17.15-.82-.22-1.65-.43-2.47-.66-1.57-.43-3.13-.87-4.7-1.3-.81-.22-1.63-.43-2.44-.64-.58-.15-.75-.29-.95-.77Z"/>
        <path class="cls-1" d="M181.94,9.57c-.26.55-.72.7-1.21.83-1.36.37-2.73.74-4.09,1.11-.58.16-1.17.29-1.76.45-.76.2-1.51.42-2.27.63-.52.14-1.03.32-1.56.42-.27.05-.57-.03-.85-.05,0-.05-.02-.09-.03-.14.16-.08.31-.18.47-.23,1-.28,2.01-.54,3.02-.81,1.41-.38,2.81-.77,4.22-1.15,1.29-.35,2.57-.7,3.86-1.05.04-.01.09,0,.19,0Z"/>
        <path class="cls-1" d="M179.24,41.26c3.91-.11,7.82-.07,11.73-.03-.25.37-.6.45-.99.45-1.27,0-2.54,0-3.81,0-2.01,0-4.03,0-6.04,0-.35,0-.66-.08-.89-.41Z"/>
        <path class="cls-1" d="M197.86,13.4c-.53.4-1.04.21-1.53.08-1.85-.49-3.7-1-5.54-1.52-.28-.08-.54-.25-.8-.4-.06-.03-.07-.15-.1-.22.08-.02.17-.08.24-.07.23.04.46.1.69.16,1.57.44,3.14.89,4.72,1.32.68.19,1.37.34,2.05.52.08.02.16.07.27.13Z"/>
        <path class="cls-1" d="M172.27,13.4c.28-.09.49-.18.7-.23,2.32-.62,4.63-1.24,6.95-1.85.12-.03.25,0,.37,0-.08.12-.13.31-.23.35-.51.21-1.02.4-1.55.55-1.58.44-3.16.86-4.74,1.27-.43.11-.87.28-1.31.04-.04-.02-.07-.05-.19-.13Z"/>
        <path class="cls-1" d="M181.11,42.34c.55,0,1.09,0,1.64,0,1.94,0,3.89-.02,5.83-.02.15,0,.31.1.46.15-.15.09-.3.26-.46.27-.86.04-1.73.06-2.59.06-1.24,0-2.47.01-3.71,0-.31,0-.62-.07-.93-.14-.1-.02-.19-.12-.29-.18.01-.05.03-.09.04-.14Z"/>
        <path class="cls-1" d="M168.33,31.4h.83c-.08,1.21-.16,2.4-.25,3.69-.31-1.26-.5-2.45-.58-3.69Z"/>
        <path class="cls-1" d="M201.27,34.81c-.08-1.13-.16-2.27-.25-3.43.18-.02.41-.06.64-.05.07,0,.19.18.18.27-.06.64-.14,1.29-.24,1.93-.07.44-.17.87-.26,1.3-.02,0-.04-.02-.07-.02Z"/>
        <path class="cls-1" d="M186.69,43.55c-.53.54-2.7.53-3.17,0h3.17Z"/>
      </g>
      <text class="cls-2" transform="translate(0 44.99) scale(1.06 1)"><tspan x="0" y="0">DUBAI POLICE ACADEMY</tspan></text>
    </g>
  </g>
</svg>