<?xml version="1.0" encoding="UTF-8"?>
<svg id="Layer_2" data-name="Layer 2" xmlns="http://www.w3.org/2000/svg" xmlns:xlink="http://www.w3.org/1999/xlink" viewBox="0 0 61.26 83.49">
  <defs>
    <style>
      .cls-1 {
        clip-path: url(#clippath-11);
      }

      .cls-2 {
        clip-path: url(#clippath-10);
      }

      .cls-3 {
        clip-path: url(#clippath-15);
      }

      .cls-4 {
        clip-path: url(#clippath-13);
      }

      .cls-5 {
        clip-path: url(#clippath-14);
      }

      .cls-6 {
        clip-path: url(#clippath-12);
      }

      .cls-7 {
        fill: #303030;
      }

      .cls-8 {
        clip-path: url(#clippath-9);
      }

      .cls-9 {
        clip-path: url(#clippath-8);
      }
    </style>
    <clipPath id="clippath-8">
      <path class="cls-7" d="M16.98,16.51c1.14,1.23,1.71,2.61,1.71,4.13,0,1.99-.92,3.69-2.75,5.09-1.83,1.4-4.04,2.1-6.62,2.1s-4.78-.7-6.6-2.1c-1.82-1.4-2.73-3.1-2.73-5.09,0-1.45.52-2.77,1.55-3.96,1.03-1.19,2.4-2.07,4.09-2.64.2-.15.3-.28.3-.41.02-.17-.05-.31-.22-.42-.17-.11-.27-.17-.3-.17-1.23-.61-2.21-1.46-2.93-2.54-.72-1.08-1.09-2.26-1.09-3.54,0-1.92.78-3.56,2.34-4.92C5.3.68,7.19,0,9.4,0s4.1.68,5.66,2.05c1.56,1.36,2.34,3,2.34,4.92,0,1.43-.45,2.72-1.35,3.87-.9,1.16-2.07,2-3.52,2.54-.05.12-.07.22-.07.3s.02.15.07.22c1.82.52,3.3,1.39,4.44,2.62ZM13.34,24.68c1.11-1.17,1.66-2.59,1.66-4.26s-.55-3.09-1.66-4.26c-1.11-1.17-2.43-1.75-3.98-1.75s-2.88.58-3.98,1.75c-1.11,1.17-1.66,2.59-1.66,4.26s.55,3.09,1.66,4.26c1.11,1.17,2.43,1.75,3.98,1.75s2.88-.58,3.98-1.75ZM6.71,2.64c-.76,1.14-1.14,2.53-1.14,4.15s.38,2.97,1.14,4.11c.76,1.14,1.68,1.71,2.76,1.71s1.97-.57,2.73-1.71c.76-1.14,1.14-2.51,1.14-4.11s-.38-3-1.14-4.15c-.76-1.14-1.67-1.71-2.73-1.71s-2,.57-2.76,1.71Z"/>
    </clipPath>
    <clipPath id="clippath-9">
      <path class="cls-7" d="M47.26,12.31h-2.35s0,.04,0,.06c.07.54.1,1.08.11,1.63,0,2.92-1.01,5.86-3,8.16-1,1.14-2.24,2.09-3.65,2.74-1.4.65-2.96.98-4.51.97-1.56-.02-3.1-.38-4.48-1.06-1.38-.68-2.59-1.65-3.54-2.8-.95-1.15-1.67-2.45-2.13-3.81-.47-1.36-.7-2.78-.71-4.2,0-1.43.24-2.84.71-4.2.46-1.36,1.18-2.67,2.13-3.81.95-1.15,2.16-2.12,3.54-2.8,1.38-.68,2.92-1.04,4.48-1.06.37,0,.73.02,1.09.05v-.99c-.36-.03-.73-.05-1.09-.05-3.36-.02-6.78,1.1-9.47,3.39-.32.3-.64.6-.96.91-.29.33-.59.66-.87,1.01-.25.37-.52.73-.76,1.1-.22.39-.45.78-.64,1.18-.77,1.63-1.17,3.45-1.18,5.26,0,1.81.41,3.63,1.18,5.26.19.41.43.79.64,1.18.24.38.51.74.76,1.1.28.35.58.68.87,1.01.32.31.64.61.96.91,2.69,2.29,6.11,3.42,9.47,3.39,3.36-.03,6.73-1.23,9.33-3.53,1.29-1.15,2.37-2.57,3.11-4.17.74-1.6,1.13-3.38,1.13-5.15,0-.55-.04-1.09-.11-1.64l-.06-.05Z"/>
    </clipPath>
    <clipPath id="clippath-10">
      <path class="cls-7" d="M47.31,12.31h-.05l.06.05s0-.03,0-.05Z"/>
    </clipPath>
    <clipPath id="clippath-11">
      <path class="cls-7" d="M.05,63.22c0-.83.58-1.77,1.75-2.81,1.63-1.44,2.86-2.52,3.69-3.23,1.69-1.69,2.96-2.96,3.82-3.82,2.12-2.43,3.67-4.27,4.65-5.53,2.52-3.26,3.78-6.22,3.78-8.89,0-1.54-.43-2.93-1.29-4.19-1.23-1.84-3-2.76-5.3-2.76-2.43,0-5.33,1.35-8.71,4.05-1.01.83-1.64,1.21-1.89,1.15-.12-.03-.18-.11-.18-.23,0-.25.25-.63.74-1.15,3.69-4.09,7.57-6.04,11.66-5.85,2.3.12,4.34.88,6.11,2.28,1.77,1.4,2.99,3.2,3.66,5.41.25.86.37,1.72.37,2.58,0,3.38-1.72,6.84-5.16,10.37-.71.71-1.24,1.23-1.61,1.57-.71.68-2.75,2.3-6.13,4.88-3.07,2.3-5.32,3.95-6.73,4.93-.52.4-.78.72-.78.97,0,.34.57.46,1.71.37h5.71c-.62,0,.25.02,2.58.05,1.87.06,3.46.06,4.75,0,1.81-.06,3.03-.2,3.64-.41,1.41-.65,2.66-1.92,3.73-3.82v4.15c-.09.77-.81,1.15-2.17,1.15H.05v-1.2Z"/>
    </clipPath>
    <clipPath id="clippath-12">
      <path class="cls-7" d="M61.1,46.76h-.06l.07.07s0-.04-.01-.07Z"/>
    </clipPath>
    <clipPath id="clippath-13">
      <path class="cls-7" d="M61.1,46.76h-3.21c-.17-1.26-.48-2.5-.93-3.7-.67-1.79-1.65-3.48-2.94-4.97-1.33-1.52-3-2.8-4.88-3.67-.87-.4-1.79-.71-2.73-.93-.6-.14-1.21-.24-1.82-.3h-.02v-1.33s.04,0,.06,0c3.98.35,7.88,1.93,10.97,4.66,1.73,1.54,3.17,3.45,4.16,5.59.68,1.46,1.13,3.03,1.35,4.64Z"/>
    </clipPath>
    <clipPath id="clippath-14">
      <path class="cls-7" d="M61.1,46.76h-.06l.07.07s0-.04-.01-.07Z"/>
    </clipPath>
    <clipPath id="clippath-15">
      <path class="cls-7" d="M61.1,46.76h-3.21c-.17-1.26-.48-2.5-.93-3.7-.67-1.79-1.65-3.48-2.94-4.97-1.33-1.52-3-2.8-4.88-3.67-.87-.4-1.79-.71-2.73-.93-.6-.14-1.21-.24-1.82-.3h-.02v-1.33s.04,0,.06,0c3.98.35,7.88,1.93,10.97,4.66,1.73,1.54,3.17,3.45,4.16,5.59.68,1.46,1.13,3.03,1.35,4.64Z"/>
    </clipPath>
  </defs>
  <g id="Layer_1-2" data-name="Layer 1">
    <g>
      <g>
        <path class="cls-7" d="M4.14,69.38c-.15-.07-.31-.13-.5-.18-.4-.08-.82-.12-1.28-.13.12,0-.16,0-.84,0-.28.02-.41.19-.41.5v2.71h2.15c.17,0,.27.03.3.07,0,.14-.08.19-.21.16h-1.91c-.23.02-.34.19-.34.5v2.52h1.16c.75,0,1.37-.09,1.86-.28.43-.19.65-.44.68-.75v.94c0,.14-.04.23-.12.3-.07.04-.16.06-.26.06H.09v-6.3c.04-.48.3-.71.78-.71,1.68-.02,2.78-.02,3.32,0,.39.02.59.19.59.51v.76c-.08-.29-.3-.52-.64-.69Z"/>
        <path class="cls-7" d="M6.26,70.18v5.37c.03.15-.07.24-.3.25h-.72v-5.28c-.02-.21.09-.32.35-.33h.67ZM6.26,69.08c0,.14-.05.26-.15.36-.1.1-.22.15-.36.15s-.26-.05-.36-.15-.15-.22-.15-.36.05-.26.15-.36c.1-.1.22-.15.36-.15s.26.05.36.15c.1.1.15.22.15.36Z"/>
        <path class="cls-7" d="M12,76.59c-.03.23-.15.45-.37.64-.27.23-.63.42-1.07.57-.44.14-.87.22-1.28.22-.5,0-1-.08-1.51-.25-.7-.22-1.05-.54-1.05-.95.08-.65.65-1.1,1.71-1.34-.4-.05-.7-.13-.9-.24-.16-.09-.24-.21-.24-.35,0-.19.16-.39.47-.6.21-.12.43-.24.64-.36.1-.06.15-.11.15-.16,0-.04-.02-.06-.06-.06-.06-.01-.15-.04-.25-.07-.31-.12-.56-.34-.75-.64-.19-.3-.29-.63-.29-.98,0-.22.04-.42.12-.62.15-.36.43-.66.84-.89.37-.2.76-.31,1.18-.33.22-.01.42.02.58.1.07.04.17.06.3.07.03,0,.13,0,.31,0,.38.01.77.02,1.19.04.2,0,.3.04.3.09,0,.02-.02.05-.06.09-.17.01-.29.02-.35.02h-.33c-.15.01-.23.06-.23.16,0,.07.04.16.13.28.18.26.27.58.27.95,0,.31-.07.61-.21.89-.14.28-.34.51-.6.66-.38.23-.83.35-1.34.35-.13,0-.23,0-.32-.02-.16.09-.36.23-.58.4-.1.08-.15.15-.15.21,0,.12.19.23.58.33.36.09.62.16.78.2.82.23,1.42.48,1.8.72.42.26.61.55.57.84ZM10.97,76.74c0-.24-.16-.46-.48-.67-.25-.16-.55-.28-.89-.36-.34-.08-.56-.12-.67-.12-.25,0-.46.11-.64.32-.09.09-.18.25-.27.46-.07.17-.11.32-.11.46,0,.15.05.29.14.4.28.33.7.5,1.29.5.5,0,.92-.12,1.26-.37.25-.18.37-.39.37-.62ZM8.66,73.15c.19.31.41.47.68.47s.49-.16.68-.47c.19-.31.28-.69.28-1.13s-.09-.82-.28-1.13c-.19-.31-.41-.47-.68-.47s-.49.16-.68.47c-.19.31-.28.69-.28,1.13s.09.82.28,1.13Z"/>
        <path class="cls-7" d="M13.12,68.21c.24.02.36.15.36.4v3.87c.53-1.22,1.13-1.96,1.8-2.23.11-.04.22-.06.33-.06.26,0,.49.13.69.39.16.22.28.49.35.81.06.29.09.63.1,1.02,0-.06,0,.04,0,.28v3.11h-.75c-.18-.01-.26-.12-.26-.33-.01-1.71-.01-2.93,0-3.68,0-.66-.19-.98-.56-.96-.17,0-.34.1-.52.29-.08.08-.21.24-.4.49-.31.4-.52.76-.62,1.07s-.15.58-.15.84v1.89c-.02.26-.14.39-.37.39h-.63v-7.59h.64Z"/>
        <path class="cls-7" d="M18.24,68.71h.66c.22,0,.35.09.36.28v1.32c1.23.08,1.94.15,2.11.19.05.02.07.04.07.06,0,.04-.07.05-.22.05h-1.7c-.16-.02-.25.04-.26.19v3.29c0,.38.01.63.04.77.06.3.21.49.43.58.12.05.25.08.37.08.13,0,.32-.04.54-.13.05-.02.19-.1.42-.23.22-.13.33-.2.34-.2.03,0,.04.01.04.04,0,.04-.02.07-.07.12-.14.15-.36.29-.66.44-.38.19-.73.28-1.06.28s-.6-.11-.84-.33c-.41-.38-.61-.85-.58-1.4v-3.21c.03-.19-.04-.29-.21-.3h-.83c0-.26.07-.4.22-.42h.82v-1.49Z"/>
        <path class="cls-7" d="M21.86,70.18h.79c.14,0,.25.1.34.29.04.09.65,1.53,1.84,4.32.09-.28.19-.56.28-.84.11-.33.19-.62.24-.86.14-.82.29-1.67.45-2.56.04-.14.06-.21.06-.22.04-.09.11-.13.21-.13h.69l-1.36,3.86c-.14.39-.34.92-.63,1.6-.24.57-.54,1.04-.89,1.41-.27.28-.59.48-.97.59-.18.05-.35.08-.5.08-.19,0-.34-.04-.44-.13-.05-.05-.08-.15-.08-.3v-.66c.1.2.26.36.48.49.22.13.44.17.65.14.35-.05.7-.31,1.06-.8.14-.2.19-.39.15-.56-.02-.08-.81-1.99-2.37-5.71Z"/>
        <path class="cls-7" d="M31.41,75.8v-6.13c0-.44-.15-.66-.45-.65-.41,0-.66,0-.77.03-.33.04-.58.14-.74.31-.15.13-.31.29-.48.48v-.87c0-.11.07-.17.22-.18.41-.01,2.17-.01,5.26,0,.25,0,.38.09.4.27v.74c-.23-.33-.48-.55-.73-.67-.19-.08-.59-.11-1.2-.11-.23,0-.38.09-.45.24-.04.09-.05.28-.05.56v5.63c0,.22-.1.34-.29.35h-.71Z"/>
        <path class="cls-7" d="M33.23,70.2h.69c.16-.02.29.1.38.36.05.13.48,1.69,1.29,4.65l1.55-4.52c.06-.18.18-.28.34-.29h.4c.11-.02.2.03.26.16.02.07.54,1.69,1.55,4.85l1-4.87c.04-.21.15-.33.33-.34h.7l-1.94,5.61h-.64c-.11.05-.24-.11-.38-.47-.06-.18-.54-1.57-1.43-4.16l-1.6,4.3c-.08.21-.21.31-.39.33h-.64l-1.47-5.61Z"/>
        <path class="cls-7" d="M45.66,75.11c.13-.09.22-.14.26-.14s.06.02.06.06c0,.09-.13.23-.4.4-.44.29-.91.43-1.4.43-.19,0-.42-.03-.67-.08-.52-.11-.92-.36-1.21-.77-.34-.46-.51-1.02-.51-1.66,0-.89.28-1.68.83-2.38.42-.53.91-.8,1.47-.8.23,0,.44.06.64.17.22.12.43.31.63.56s.36.54.48.88c.16.45.24.83.24,1.14-.02.25-.14.38-.38.4h-2.9v.78c.02.3.07.56.17.77.23.52.65.78,1.23.78.06,0,.13,0,.2,0,.24,0,.53-.09.85-.28.06-.04.2-.12.4-.26ZM42.83,71.8c0,.06-.01.49-.03,1.3h2.07c.09-.02.16-.07.21-.15.02-.03.03-.06.04-.11.01-.08.01-.23,0-.43-.03-.59-.13-1.06-.3-1.41-.18-.37-.46-.55-.83-.55-.22,0-.42.07-.62.22-.31.23-.49.61-.55,1.13Z"/>
        <path class="cls-7" d="M47.18,70.18c.25.02.37.12.35.32v2.17c0,.12.01.18.04.18s.07-.05.12-.16c.13-.32.27-.64.4-.95.16-.37.33-.67.51-.89.34-.44.71-.66,1.12-.66s.73.14.99.43c.32.46.48,1.04.48,1.72v3.46h-.75c-.18-.01-.28-.1-.28-.26v-3.91c0-.23-.05-.42-.16-.57-.11-.15-.25-.22-.42-.22-.14,0-.28.05-.42.14-.28.18-.54.47-.78.85-.02.03-.21.38-.57,1.04-.19.39-.29.67-.29.84.01.97.01,1.58,0,1.82,0,.05,0,.09-.03.13-.05.09-.12.13-.23.13h-.74s0-5.61,0-5.61h.65Z"/>
        <path class="cls-7" d="M52.69,68.71h.66c.22,0,.35.09.36.28v1.32c1.23.08,1.94.15,2.11.19.05.02.07.04.07.06,0,.04-.07.05-.22.05h-1.7c-.16-.02-.25.04-.26.19v3.29c0,.38.01.63.04.77.06.3.21.49.43.58.12.05.25.08.37.08.13,0,.32-.04.54-.13.05-.02.19-.1.42-.23.22-.13.33-.2.34-.2.03,0,.04.01.04.04,0,.04-.02.07-.07.12-.14.15-.36.29-.66.44-.38.19-.73.28-1.06.28s-.6-.11-.84-.33c-.41-.38-.61-.85-.58-1.4v-3.21c.03-.19-.04-.29-.21-.3h-.83c0-.26.07-.4.22-.42h.82v-1.49Z"/>
        <path class="cls-7" d="M56.32,70.18h.79c.14,0,.25.1.34.29.04.09.65,1.53,1.84,4.32.09-.28.19-.56.28-.84.11-.33.19-.62.24-.86.14-.82.29-1.67.45-2.56.04-.14.06-.21.06-.22.04-.09.11-.13.21-.13h.69l-1.36,3.86c-.14.39-.34.92-.62,1.6-.24.57-.54,1.04-.89,1.41-.27.28-.59.48-.97.59-.18.05-.35.08-.5.08-.19,0-.34-.04-.44-.13-.05-.05-.08-.15-.08-.3v-.66c.1.2.26.36.48.49s.44.17.65.14c.35-.05.7-.31,1.06-.8.14-.2.19-.39.15-.56-.02-.08-.81-1.99-2.37-5.71Z"/>
      </g>
      <g>
        <g>
          <path class="cls-7" d="M12.04,79.19v3.26h-.32c-.06,0-.11-.04-.13-.09-.01-.02-.02-.05-.02-.08v-2.52l-1.03,2.59s-.04.08-.07.09c-.01,0-.02,0-.04.01h-.26s-.09-.03-.14-.14l-.84-2.63-.36,2.69s-.03.06-.07.08c-.02,0-.04.01-.06.01l.11-3.26h.37c.08,0,.15.04.18.11l1.06,2.94,1.09-2.9c.02-.07.06-.11.11-.14.02-.01.04-.02.06-.02h.34Z"/>
          <path class="cls-7" d="M14.04,82.13c.06-.04.1-.07.12-.07s.03,0,.03.03c0,.04-.06.11-.18.19-.2.13-.42.2-.65.2-.09,0-.19-.01-.31-.04-.24-.05-.43-.17-.57-.36-.16-.22-.24-.47-.24-.77,0-.41.13-.78.38-1.11.2-.25.42-.37.68-.37.11,0,.21.03.3.08.1.06.2.14.29.26.09.12.17.25.22.41.07.21.11.38.11.53,0,.11-.07.18-.18.19h-1.35v.36c0,.14.03.26.08.36.11.24.3.36.57.36.03,0,.06,0,.09,0,.11,0,.24-.04.4-.13.03-.02.09-.06.19-.12ZM12.73,80.59s0,.23-.01.61h.96s.08-.03.1-.07c0-.01.01-.03.02-.05,0-.04,0-.11,0-.2-.01-.28-.06-.49-.14-.66-.08-.17-.21-.26-.38-.26-.1,0-.2.03-.29.1-.14.11-.23.28-.26.52Z"/>
          <path class="cls-7" d="M14.75,79.84c.12,0,.17.06.16.15v1.01c0,.06,0,.09.02.09s.03-.02.06-.07c.06-.15.13-.3.19-.44.08-.17.16-.31.24-.41.16-.21.33-.31.52-.31s.34.07.46.2c.15.22.23.48.23.8v1.61h-.35c-.09,0-.13-.05-.13-.12v-1.82c0-.11-.03-.19-.08-.26-.05-.07-.12-.1-.19-.1-.06,0-.13.02-.2.07-.13.08-.25.22-.36.4,0,.01-.1.17-.27.48-.09.18-.14.31-.14.39,0,.45,0,.73,0,.85,0,.02,0,.04-.01.06-.02.04-.06.06-.11.06h-.34s0-2.61,0-2.61h.3Z"/>
          <path class="cls-7" d="M17.31,79.16h.31c.1,0,.16.04.17.13v.61c.57.04.9.07.98.09.02.01.03.02.03.03,0,.02-.03.02-.1.02h-.79c-.08-.01-.12.02-.12.09v1.53c0,.17,0,.29.02.36.03.14.1.23.2.27.06.02.11.04.17.04.06,0,.15-.02.25-.06.02,0,.09-.04.2-.11.1-.06.15-.09.16-.09.01,0,.02,0,.02.02,0,.02-.01.03-.03.05-.07.07-.17.14-.31.2-.18.09-.34.13-.49.13s-.28-.05-.39-.15c-.19-.18-.28-.4-.27-.65v-1.49c.01-.09-.02-.13-.1-.14h-.39c0-.12.03-.19.1-.2h.38v-.69Z"/>
          <path class="cls-7" d="M20.84,80.25c.17.25.25.53.25.85,0,.34-.09.64-.28.92-.21.31-.48.46-.8.46-.31,0-.55-.14-.74-.42-.17-.25-.25-.53-.25-.85,0-.34.09-.64.28-.92.21-.31.48-.46.8-.46s.55.14.75.42ZM20.48,80.29c-.11-.24-.24-.36-.4-.37-.16,0-.3.11-.42.35-.12.23-.18.52-.19.86,0,.34.04.62.15.86.11.24.24.36.4.37.16,0,.3-.11.42-.35.12-.23.18-.52.19-.86,0-.34-.04-.62-.15-.86Z"/>
          <path class="cls-7" d="M23.09,80.03v.4c-.03-.09-.07-.17-.13-.24-.07-.08-.15-.13-.23-.13-.07,0-.14.03-.2.09-.13.13-.25.28-.36.43-.13.21-.22.37-.27.48-.07.13-.11.24-.11.31v.97c0,.06-.04.1-.09.12h-.41v-2.61h0s.32,0,.32,0c.12,0,.17.06.16.16v.87c0,.08,0,.13.01.13.01,0,.05-.06.11-.21.13-.28.24-.49.36-.63.16-.21.34-.32.55-.32.19,0,.28.06.28.18Z"/>
          <path class="cls-7" d="M24.57,79.99c-.09-.03-.19-.05-.28-.05-.1,0-.19.02-.26.05-.08.03-.14.08-.2.16-.05.07-.08.15-.08.22,0,.05.01.11.05.15.04.05.09.11.16.17.03.03.09.07.18.14.06.04.13.09.2.14.17.12.28.2.33.23.12.1.2.2.26.3.06.11.08.23.07.38-.02.16-.09.29-.21.4-.07.06-.17.1-.29.13-.18.03-.44.05-.79.05-.03,0-.07,0-.14,0s-.11,0-.15,0c-.12,0-.18-.04-.2-.1v-.38c.14.16.27.27.4.32.08.04.2.05.36.05.13,0,.26-.05.37-.14.11-.09.17-.2.17-.34,0-.16-.21-.39-.63-.7-.07-.04-.14-.09-.21-.13-.11-.07-.19-.14-.25-.22-.08-.11-.12-.22-.12-.34,0-.19.06-.34.2-.45.11-.09.25-.14.43-.17.27-.04.55-.04.83,0,.07,0,.13.03.18.07.06.05.08.11.07.18v.33c-.13-.25-.28-.4-.45-.45Z"/>
        </g>
        <g>
          <path class="cls-7" d="M28.46,80.8c0,.41-.16.79-.47,1.12-.21.22-.47.37-.78.45-.24.06-.6.09-1.09.09v-2.97c.02-.14.12-.23.29-.29.07-.02.16-.04.26-.05.35,0,.66.07.93.21.41.22.67.53.78.93.05.17.07.34.07.5ZM27.96,80.76c0-.24-.05-.47-.14-.67-.12-.26-.3-.47-.54-.61-.16-.09-.33-.15-.49-.17-.13,0-.2.04-.2.14v2.87l.22-.03c.09-.01.16-.03.21-.05.3-.12.5-.25.6-.38.16-.22.27-.47.32-.76.02-.11.03-.23.03-.34Z"/>
          <path class="cls-7" d="M30.47,82.13c.06-.04.1-.07.12-.07s.03,0,.03.03c0,.04-.06.11-.18.19-.2.13-.42.2-.65.2-.09,0-.19-.01-.31-.04-.24-.05-.43-.17-.57-.36-.16-.22-.24-.47-.24-.77,0-.41.13-.78.38-1.11.2-.25.42-.37.68-.37.11,0,.21.03.3.08.1.06.2.14.29.26.09.12.17.25.22.41.07.21.11.38.11.53,0,.11-.07.18-.18.19h-1.35v.36c0,.14.03.26.08.36.11.24.3.36.57.36.03,0,.06,0,.09,0,.11,0,.24-.04.4-.13.03-.02.09-.06.19-.12ZM29.16,80.59s0,.23-.01.61h.96s.08-.03.1-.07c0-.01.01-.03.02-.05,0-.04,0-.11,0-.2-.01-.28-.06-.49-.14-.66-.08-.17-.21-.26-.38-.26-.1,0-.2.03-.29.1-.14.11-.23.28-.26.52Z"/>
          <path class="cls-7" d="M31.36,78.93v3.37c0,.1-.07.16-.2.16h-.28v-3.38c0-.1.05-.15.14-.15h.35Z"/>
          <path class="cls-7" d="M32.05,79.84v2.5c.01.07-.03.11-.14.11h-.34v-2.46c-.01-.1.04-.15.16-.16h.31ZM32.05,79.33c0,.07-.02.12-.07.17-.05.05-.1.07-.17.07s-.12-.02-.17-.07c-.05-.05-.07-.1-.07-.17s.02-.12.07-.17c.05-.05.1-.07.17-.07s.12.02.17.07c.05.05.07.1.07.17Z"/>
          <path class="cls-7" d="M32.59,79.85c.1,0,.16.07.19.17l.66,2.34c.5-1.47.77-2.24.79-2.31.04-.14.09-.21.15-.2h.36c-.75,1.59-1.14,2.41-1.17,2.46-.07.11-.13.16-.19.14h-.34l-.76-2.61h.32Z"/>
          <path class="cls-7" d="M36.54,82.13c.06-.04.1-.07.12-.07s.03,0,.03.03c0,.04-.06.11-.18.19-.2.13-.42.2-.65.2-.09,0-.19-.01-.31-.04-.24-.05-.43-.17-.57-.36-.16-.22-.24-.47-.24-.77,0-.41.13-.78.38-1.11.2-.25.42-.37.68-.37.11,0,.21.03.3.08.1.06.2.14.29.26.09.12.17.25.22.41.07.21.11.38.11.53,0,.11-.07.18-.18.19h-1.35v.36c0,.14.03.26.08.36.11.24.3.36.57.36.03,0,.06,0,.09,0,.11,0,.24-.04.4-.13.03-.02.09-.06.19-.12ZM35.22,80.59s0,.23-.01.61h.96s.08-.03.1-.07c0-.01.01-.03.02-.05,0-.04,0-.11,0-.2-.01-.28-.06-.49-.14-.66-.08-.17-.21-.26-.38-.26-.1,0-.2.03-.29.1-.14.11-.23.28-.26.52Z"/>
          <path class="cls-7" d="M38.74,80.03v.4c-.03-.09-.07-.17-.13-.24-.07-.08-.15-.13-.23-.13-.07,0-.14.03-.2.09-.13.13-.25.28-.36.43-.13.21-.22.37-.27.48-.07.13-.11.24-.11.31v.97c0,.06-.04.1-.09.12h-.41v-2.61h0s.32,0,.32,0c.12,0,.17.06.16.16v.87c0,.08,0,.13.01.13.01,0,.05-.06.11-.21.13-.28.24-.49.36-.63.16-.21.34-.32.55-.32.19,0,.28.06.28.18Z"/>
        </g>
        <g>
          <path class="cls-7" d="M41.72,79.47c-.07-.03-.15-.06-.23-.08-.19-.04-.38-.06-.59-.06.06,0-.07,0-.39,0-.13.01-.19.09-.19.23v1.26h1c.08,0,.13.01.14.03,0,.07-.04.09-.1.07h-.89c-.11.01-.16.09-.16.23v1.17h.54c.35,0,.64-.04.86-.13.2-.09.3-.21.32-.35v.44c0,.06-.02.11-.06.14-.03.02-.07.03-.12.03h-2v-2.93c.02-.22.14-.33.36-.33.78,0,1.3,0,1.54,0,.18.01.27.09.27.24v.35c-.04-.13-.14-.24-.3-.32Z"/>
          <path class="cls-7" d="M42.53,79.84c.12,0,.17.06.16.15v1.01c0,.06,0,.09.02.09s.03-.02.06-.07c.06-.15.13-.3.19-.44.08-.17.16-.31.24-.41.16-.21.33-.31.52-.31s.34.07.46.2c.15.22.23.48.23.8v1.61h-.35c-.09,0-.13-.05-.13-.12v-1.82c0-.11-.03-.19-.08-.26-.05-.07-.12-.1-.19-.1-.06,0-.13.02-.2.07-.13.08-.25.22-.36.4,0,.01-.1.17-.27.48-.09.18-.14.31-.14.39,0,.45,0,.73,0,.85,0,.02,0,.04-.01.06-.02.04-.06.06-.11.06h-.34s0-2.61,0-2.61h.3Z"/>
          <path class="cls-7" d="M47.07,82.82c-.01.11-.07.21-.17.3-.13.11-.29.2-.5.26s-.4.1-.6.1c-.23,0-.47-.04-.7-.11-.32-.1-.49-.25-.49-.44.04-.3.3-.51.79-.62-.19-.02-.32-.06-.42-.11-.07-.04-.11-.1-.11-.16,0-.09.07-.18.22-.28.1-.06.2-.11.3-.17.05-.03.07-.05.07-.07,0-.02,0-.03-.03-.03-.03,0-.07-.02-.11-.03-.14-.06-.26-.16-.35-.3-.09-.14-.13-.29-.13-.46,0-.1.02-.2.06-.29.07-.17.2-.31.39-.41.17-.09.35-.14.55-.15.1,0,.19,0,.27.05.03.02.08.03.14.03.01,0,.06,0,.14,0,.17,0,.36.01.55.02.09,0,.14.02.14.04,0,.01,0,.02-.03.04-.08,0-.13,0-.16,0h-.16c-.07,0-.11.03-.11.07,0,.03.02.08.06.13.08.12.13.27.13.44,0,.14-.03.28-.1.42s-.16.24-.28.31c-.18.11-.38.16-.62.16-.06,0-.11,0-.15,0-.08.04-.17.11-.27.19-.05.04-.07.07-.07.1,0,.05.09.11.27.15.17.04.29.08.36.09.38.11.66.22.84.34.19.12.28.25.27.39ZM46.59,82.9c0-.11-.07-.22-.22-.31-.12-.07-.26-.13-.41-.17-.16-.04-.26-.06-.31-.06-.11,0-.21.05-.3.15-.04.04-.08.11-.13.21-.03.08-.05.15-.05.21,0,.07.02.13.07.19.13.16.33.23.6.23.23,0,.43-.06.59-.17.11-.08.17-.18.17-.29ZM45.51,81.23c.09.14.19.22.32.22s.23-.07.32-.22.13-.32.13-.52-.04-.38-.13-.52c-.09-.14-.19-.22-.32-.22s-.23.07-.32.22c-.09.14-.13.32-.13.52s.04.38.13.52Z"/>
          <path class="cls-7" d="M47.77,78.93v3.37c0,.1-.07.16-.2.16h-.28v-3.38c0-.1.05-.15.14-.15h.35Z"/>
          <path class="cls-7" d="M48.46,79.84v2.5c.01.07-.03.11-.14.11h-.34v-2.46c-.01-.1.04-.15.16-.16h.31ZM48.46,79.33c0,.07-.02.12-.07.17-.05.05-.1.07-.17.07s-.12-.02-.17-.07c-.05-.05-.07-.1-.07-.17s.02-.12.07-.17c.05-.05.1-.07.17-.07s.12.02.17.07c.05.05.07.1.07.17Z"/>
          <path class="cls-7" d="M49.95,79.99c-.09-.03-.19-.05-.28-.05-.1,0-.19.02-.26.05-.08.03-.14.08-.2.16-.05.07-.08.15-.08.22,0,.05.01.11.05.15.04.05.09.11.16.17.03.03.09.07.18.14.06.04.13.09.2.14.17.12.28.2.33.23.12.1.2.2.26.3.06.11.08.23.07.38-.02.16-.09.29-.21.4-.07.06-.17.1-.29.13-.18.03-.44.05-.79.05-.03,0-.07,0-.14,0s-.11,0-.15,0c-.12,0-.18-.04-.2-.1v-.38c.14.16.27.27.4.32.08.04.2.05.36.05.13,0,.26-.05.37-.14.11-.09.17-.2.17-.34,0-.16-.21-.39-.63-.7-.07-.04-.14-.09-.21-.13-.11-.07-.19-.14-.25-.22-.08-.11-.12-.22-.12-.34,0-.19.06-.34.2-.45.11-.09.25-.14.43-.17.27-.04.55-.04.83,0,.07,0,.13.03.18.07.06.05.08.11.07.18v.33c-.13-.25-.28-.4-.45-.45Z"/>
          <path class="cls-7" d="M50.9,78.92c.11,0,.17.07.17.18v1.8c.25-.57.53-.91.84-1.04.05-.02.1-.03.15-.03.12,0,.23.06.32.18.08.1.13.23.16.38.03.13.04.29.05.48,0-.03,0,.02,0,.13v1.45h-.35c-.08,0-.12-.06-.12-.15,0-.79,0-1.36,0-1.71,0-.31-.09-.45-.26-.45-.08,0-.16.05-.24.14-.04.04-.1.11-.19.23-.15.19-.24.35-.29.5-.05.14-.07.27-.07.39v.88c0,.12-.07.18-.17.18h-.29v-3.53h.3Z"/>
        </g>
      </g>
      <g>
        <g>
          <path class="cls-7" d="M16.98,16.51c1.14,1.23,1.71,2.61,1.71,4.13,0,1.99-.92,3.69-2.75,5.09-1.83,1.4-4.04,2.1-6.62,2.1s-4.78-.7-6.6-2.1c-1.82-1.4-2.73-3.1-2.73-5.09,0-1.45.52-2.77,1.55-3.96,1.03-1.19,2.4-2.07,4.09-2.64.2-.15.3-.28.3-.41.02-.17-.05-.31-.22-.42-.17-.11-.27-.17-.3-.17-1.23-.61-2.21-1.46-2.93-2.54-.72-1.08-1.09-2.26-1.09-3.54,0-1.92.78-3.56,2.34-4.92C5.3.68,7.19,0,9.4,0s4.1.68,5.66,2.05c1.56,1.36,2.34,3,2.34,4.92,0,1.43-.45,2.72-1.35,3.87-.9,1.16-2.07,2-3.52,2.54-.05.12-.07.22-.07.3s.02.15.07.22c1.82.52,3.3,1.39,4.44,2.62ZM13.34,24.68c1.11-1.17,1.66-2.59,1.66-4.26s-.55-3.09-1.66-4.26c-1.11-1.17-2.43-1.75-3.98-1.75s-2.88.58-3.98,1.75c-1.11,1.17-1.66,2.59-1.66,4.26s.55,3.09,1.66,4.26c1.11,1.17,2.43,1.75,3.98,1.75s2.88-.58,3.98-1.75ZM6.71,2.64c-.76,1.14-1.14,2.53-1.14,4.15s.38,2.97,1.14,4.11c.76,1.14,1.68,1.71,2.76,1.71s1.97-.57,2.73-1.71c.76-1.14,1.14-2.51,1.14-4.11s-.38-3-1.14-4.15c-.76-1.14-1.67-1.71-2.73-1.71s-2,.57-2.76,1.71Z"/>
          <g class="cls-9">
            <rect class="cls-7" x="5.57" y=".92" width="7.78" height=".02"/>
            <rect class="cls-7" x="5.57" y=".94" width="7.78" height=".47"/>
            <rect class="cls-7" x="5.57" y="1.42" width="7.78" height=".47"/>
            <rect class="cls-7" x="5.57" y="1.89" width="7.78" height=".47"/>
            <rect class="cls-7" x="5.57" y="2.36" width="7.78" height=".47"/>
            <rect class="cls-7" x="5.57" y="2.83" width="7.78" height=".47"/>
            <rect class="cls-7" x="5.57" y="3.3" width="7.78" height=".47"/>
            <rect class="cls-7" x="5.57" y="3.77" width="7.78" height=".47"/>
            <rect class="cls-7" x="5.57" y="4.25" width="7.78" height=".47"/>
            <rect class="cls-7" x="5.57" y="4.72" width="7.78" height=".47"/>
            <rect class="cls-7" x="5.57" y="5.19" width="7.78" height=".47"/>
            <rect class="cls-7" x="5.57" y="5.66" width="7.78" height=".47"/>
            <rect class="cls-7" x="5.57" y="6.13" width="7.78" height=".47"/>
            <rect class="cls-7" x="5.57" y="6.6" width="7.78" height=".47"/>
            <rect class="cls-7" x="5.57" y="7.08" width="7.78" height=".47"/>
            <rect class="cls-7" x="5.57" y="7.55" width="7.78" height=".47"/>
            <rect class="cls-7" x="5.57" y="8.02" width="7.78" height=".47"/>
            <rect class="cls-7" x="5.57" y="8.49" width="7.78" height=".47"/>
            <rect class="cls-7" x="5.57" y="8.96" width="7.78" height=".47"/>
            <rect class="cls-7" x="5.57" y="9.43" width="7.78" height=".47"/>
            <rect class="cls-7" x="5.57" y="9.91" width="7.78" height=".47"/>
            <rect class="cls-7" x="5.57" y="10.38" width="7.78" height=".47"/>
            <rect class="cls-7" x="5.57" y="10.85" width="7.78" height=".47"/>
            <rect class="cls-7" x="5.57" y="11.32" width="7.78" height=".47"/>
            <rect class="cls-7" x="5.57" y="11.79" width="7.78" height=".47"/>
            <rect class="cls-7" x="5.57" y="12.26" width="7.78" height=".34"/>
            <rect class="cls-7" x="3.72" y="14.41" width="11.28" height=".21"/>
            <rect class="cls-7" x="3.72" y="14.62" width="11.28" height=".47"/>
            <rect class="cls-7" x="3.72" y="15.1" width="11.28" height=".47"/>
            <rect class="cls-7" x="3.72" y="15.57" width="11.28" height=".47"/>
            <rect class="cls-7" x="3.72" y="16.04" width="11.28" height=".47"/>
            <rect class="cls-7" x="3.72" y="16.51" width="11.28" height=".47"/>
            <rect class="cls-7" x="3.72" y="16.98" width="11.28" height=".47"/>
            <rect class="cls-7" x="3.72" y="17.45" width="11.28" height=".47"/>
            <rect class="cls-7" x="3.72" y="17.93" width="11.28" height=".47"/>
            <rect class="cls-7" x="3.72" y="18.4" width="11.28" height=".47"/>
            <rect class="cls-7" x="3.72" y="18.87" width="11.28" height=".47"/>
            <rect class="cls-7" x="3.72" y="19.34" width="11.28" height=".47"/>
            <rect class="cls-7" x="3.72" y="19.81" width="11.28" height=".47"/>
            <rect class="cls-7" x="3.72" y="20.28" width="11.28" height=".47"/>
            <rect class="cls-7" x="3.72" y="20.76" width="11.28" height=".47"/>
            <rect class="cls-7" x="3.72" y="21.23" width="11.28" height=".47"/>
            <rect class="cls-7" x="3.72" y="21.7" width="11.28" height=".47"/>
            <rect class="cls-7" x="3.72" y="22.17" width="11.28" height=".47"/>
            <rect class="cls-7" x="3.72" y="22.64" width="11.28" height=".47"/>
            <rect class="cls-7" x="3.72" y="23.11" width="11.28" height=".47"/>
            <rect class="cls-7" x="3.72" y="23.59" width="11.28" height=".47"/>
            <rect class="cls-7" x="3.72" y="24.06" width="11.28" height=".47"/>
            <rect class="cls-7" x="3.72" y="24.53" width="11.28" height=".47"/>
            <rect class="cls-7" x="3.72" y="25" width="11.28" height=".47"/>
            <rect class="cls-7" x="3.72" y="25.47" width="11.28" height=".47"/>
            <rect class="cls-7" x="3.72" y="25.95" width="11.28" height=".47"/>
            <rect class="cls-7" x="3.72" y="26.42" width="11.28" height=".01"/>
            <rect class="cls-7" x="0" width="18.69" height=".47"/>
            <rect class="cls-7" x="0" y=".47" width="18.69" height=".47"/>
            <rect class="cls-7" x="0" y=".94" width="18.69" height=".47"/>
            <rect class="cls-7" x="0" y="1.42" width="18.69" height=".47"/>
            <rect class="cls-7" x="0" y="1.89" width="18.69" height=".47"/>
            <rect class="cls-7" x="0" y="2.36" width="18.69" height=".47"/>
            <rect class="cls-7" x="0" y="2.83" width="18.69" height=".47"/>
            <rect class="cls-7" x="0" y="3.3" width="18.69" height=".47"/>
            <rect class="cls-7" x="0" y="3.77" width="18.69" height=".47"/>
            <rect class="cls-7" x="0" y="4.25" width="18.69" height=".47"/>
            <rect class="cls-7" x="0" y="4.72" width="18.69" height=".47"/>
            <rect class="cls-7" x="0" y="5.19" width="18.69" height=".47"/>
            <rect class="cls-7" x="0" y="5.66" width="18.69" height=".47"/>
            <rect class="cls-7" x="0" y="6.13" width="18.69" height=".47"/>
            <rect class="cls-7" x="0" y="6.6" width="18.69" height=".47"/>
            <rect class="cls-7" x="0" y="7.08" width="18.69" height=".47"/>
            <rect class="cls-7" x="0" y="7.55" width="18.69" height=".47"/>
            <rect class="cls-7" x="0" y="8.02" width="18.69" height=".47"/>
            <rect class="cls-7" x="0" y="8.49" width="18.69" height=".47"/>
            <rect class="cls-7" x="0" y="8.96" width="18.69" height=".47"/>
            <rect class="cls-7" x="0" y="9.43" width="18.69" height=".47"/>
            <rect class="cls-7" x="0" y="9.91" width="18.69" height=".47"/>
            <rect class="cls-7" x="0" y="10.38" width="18.69" height=".47"/>
            <rect class="cls-7" x="0" y="10.85" width="18.69" height=".47"/>
            <rect class="cls-7" x="0" y="11.32" width="18.69" height=".47"/>
            <rect class="cls-7" x="0" y="11.79" width="18.69" height=".47"/>
            <rect class="cls-7" x="0" y="12.26" width="18.69" height=".47"/>
            <rect class="cls-7" x="0" y="12.74" width="18.69" height=".47"/>
            <rect class="cls-7" x="0" y="13.21" width="18.69" height=".47"/>
            <rect class="cls-7" x="0" y="13.68" width="18.69" height=".47"/>
            <rect class="cls-7" x="0" y="14.15" width="18.69" height=".47"/>
            <rect class="cls-7" x="0" y="14.62" width="18.69" height=".47"/>
            <rect class="cls-7" x="0" y="15.1" width="18.69" height=".47"/>
            <rect class="cls-7" x="0" y="15.57" width="18.69" height=".47"/>
            <rect class="cls-7" x="0" y="16.04" width="18.69" height=".47"/>
            <rect class="cls-7" x="0" y="16.51" width="18.69" height=".47"/>
            <rect class="cls-7" x="0" y="16.98" width="18.69" height=".47"/>
            <rect class="cls-7" x="0" y="17.45" width="18.69" height=".47"/>
            <rect class="cls-7" x="0" y="17.93" width="18.69" height=".47"/>
            <rect class="cls-7" x="0" y="18.4" width="18.69" height=".47"/>
            <rect class="cls-7" x="0" y="18.87" width="18.69" height=".47"/>
            <rect class="cls-7" x="0" y="19.34" width="18.69" height=".47"/>
            <rect class="cls-7" x="0" y="19.81" width="18.69" height=".47"/>
            <rect class="cls-7" x="0" y="20.28" width="18.69" height=".47"/>
            <rect class="cls-7" x="0" y="20.76" width="18.69" height=".47"/>
            <rect class="cls-7" x="0" y="21.23" width="18.69" height=".47"/>
            <rect class="cls-7" x="0" y="21.7" width="18.69" height=".47"/>
            <rect class="cls-7" x="0" y="22.17" width="18.69" height=".47"/>
            <rect class="cls-7" x="0" y="22.64" width="18.69" height=".47"/>
            <rect class="cls-7" x="0" y="23.11" width="18.69" height=".47"/>
            <rect class="cls-7" x="0" y="23.59" width="18.69" height=".47"/>
            <rect class="cls-7" x="0" y="24.06" width="18.69" height=".47"/>
            <rect class="cls-7" x="0" y="24.53" width="18.69" height=".47"/>
            <rect class="cls-7" x="0" y="25" width="18.69" height=".47"/>
            <rect class="cls-7" x="0" y="25.47" width="18.69" height=".47"/>
            <rect class="cls-7" x="0" y="25.95" width="18.69" height=".47"/>
            <rect class="cls-7" x="0" y="26.42" width="18.69" height=".47"/>
            <rect class="cls-7" x="0" y="26.89" width="18.69" height=".47"/>
            <rect class="cls-7" x="0" y="27.36" width="18.69" height=".47"/>
          </g>
        </g>
        <g>
          <g>
            <path class="cls-7" d="M47.26,12.31h-2.35s0,.04,0,.06c.07.54.1,1.08.11,1.63,0,2.92-1.01,5.86-3,8.16-1,1.14-2.24,2.09-3.65,2.74-1.4.65-2.96.98-4.51.97-1.56-.02-3.1-.38-4.48-1.06-1.38-.68-2.59-1.65-3.54-2.8-.95-1.15-1.67-2.45-2.13-3.81-.47-1.36-.7-2.78-.71-4.2,0-1.43.24-2.84.71-4.2.46-1.36,1.18-2.67,2.13-3.81.95-1.15,2.16-2.12,3.54-2.8,1.38-.68,2.92-1.04,4.48-1.06.37,0,.73.02,1.09.05v-.99c-.36-.03-.73-.05-1.09-.05-3.36-.02-6.78,1.1-9.47,3.39-.32.3-.64.6-.96.91-.29.33-.59.66-.87,1.01-.25.37-.52.73-.76,1.1-.22.39-.45.78-.64,1.18-.77,1.63-1.17,3.45-1.18,5.26,0,1.81.41,3.63,1.18,5.26.19.41.43.79.64,1.18.24.38.51.74.76,1.1.28.35.58.68.87,1.01.32.31.64.61.96.91,2.69,2.29,6.11,3.42,9.47,3.39,3.36-.03,6.73-1.23,9.33-3.53,1.29-1.15,2.37-2.57,3.11-4.17.74-1.6,1.13-3.38,1.13-5.15,0-.55-.04-1.09-.11-1.64l-.06-.05Z"/>
            <g class="cls-8">
              <rect class="cls-7" x="19.99" y="1.12" width=".47" height="25.77"/>
              <rect class="cls-7" x="20.46" y="1.12" width=".47" height="25.77"/>
              <rect class="cls-7" x="20.92" y="1.12" width=".47" height="25.77"/>
              <rect class="cls-7" x="21.39" y="1.12" width=".47" height="25.77"/>
              <rect class="cls-7" x="21.85" y="1.12" width=".47" height="25.77"/>
              <rect class="cls-7" x="22.32" y="1.12" width=".47" height="25.77"/>
              <rect class="cls-7" x="22.78" y="1.12" width=".47" height="25.77"/>
              <rect class="cls-7" x="23.25" y="1.12" width=".47" height="25.77"/>
              <rect class="cls-7" x="23.71" y="1.12" width=".47" height="25.77"/>
              <rect class="cls-7" x="24.18" y="1.12" width=".47" height="25.77"/>
              <rect class="cls-7" x="24.64" y="1.12" width=".47" height="25.77"/>
              <rect class="cls-7" x="25.11" y="1.12" width=".47" height="25.77"/>
              <rect class="cls-7" x="25.57" y="1.12" width=".47" height="25.77"/>
              <rect class="cls-7" x="26.04" y="1.12" width=".47" height="25.77"/>
              <rect class="cls-7" x="26.5" y="1.12" width=".47" height="25.77"/>
              <rect class="cls-7" x="26.97" y="1.12" width=".47" height="25.77"/>
              <rect class="cls-7" x="27.43" y="1.12" width=".47" height="25.77"/>
              <rect class="cls-7" x="27.9" y="1.12" width=".47" height="25.77"/>
              <rect class="cls-7" x="28.36" y="1.12" width=".47" height="25.77"/>
              <rect class="cls-7" x="28.83" y="1.12" width=".47" height="25.77"/>
              <rect class="cls-7" x="29.29" y="1.12" width=".47" height="25.77"/>
              <rect class="cls-7" x="29.76" y="1.12" width=".47" height="25.77"/>
              <rect class="cls-7" x="30.22" y="1.12" width=".47" height="25.77"/>
              <rect class="cls-7" x="30.69" y="1.12" width=".47" height="25.77"/>
              <rect class="cls-7" x="31.15" y="1.12" width=".47" height="25.77"/>
              <rect class="cls-7" x="31.62" y="1.12" width=".47" height="25.77"/>
              <rect class="cls-7" x="32.08" y="1.12" width=".47" height="25.77"/>
              <rect class="cls-7" x="32.55" y="1.12" width=".47" height="25.77"/>
              <rect class="cls-7" x="33.01" y="1.12" width=".47" height="25.77"/>
              <rect class="cls-7" x="33.48" y="1.12" width=".47" height="25.77"/>
              <rect class="cls-7" x="33.94" y="1.12" width=".47" height="25.77"/>
              <rect class="cls-7" x="34.41" y="1.12" width=".47" height="25.77"/>
              <rect class="cls-7" x="34.87" y="1.12" width=".47" height="25.77"/>
              <rect class="cls-7" x="35.34" y="1.12" width=".47" height="25.77"/>
              <rect class="cls-7" x="35.8" y="1.12" width=".47" height="25.77"/>
              <rect class="cls-7" x="36.27" y="1.12" width=".47" height="25.77"/>
              <rect class="cls-7" x="36.73" y="1.12" width=".47" height="25.77"/>
              <rect class="cls-7" x="37.2" y="1.12" width=".47" height="25.77"/>
              <rect class="cls-7" x="37.66" y="1.12" width=".47" height="25.77"/>
              <rect class="cls-7" x="38.13" y="1.12" width=".47" height="25.77"/>
              <rect class="cls-7" x="38.59" y="1.12" width=".47" height="25.77"/>
              <rect class="cls-7" x="39.06" y="1.12" width=".47" height="25.77"/>
              <rect class="cls-7" x="39.52" y="1.12" width=".47" height="25.77"/>
              <rect class="cls-7" x="39.99" y="1.12" width=".47" height="25.77"/>
              <rect class="cls-7" x="40.45" y="1.12" width=".47" height="25.77"/>
              <rect class="cls-7" x="40.92" y="1.12" width=".47" height="25.77"/>
              <rect class="cls-7" x="41.38" y="1.12" width=".47" height="25.77"/>
              <rect class="cls-7" x="41.85" y="1.12" width=".47" height="25.77"/>
              <rect class="cls-7" x="42.31" y="1.12" width=".47" height="25.77"/>
              <rect class="cls-7" x="42.78" y="1.12" width=".47" height="25.77"/>
              <rect class="cls-7" x="43.24" y="1.12" width=".47" height="25.77"/>
              <rect class="cls-7" x="43.71" y="1.12" width=".47" height="25.77"/>
              <rect class="cls-7" x="44.17" y="1.12" width=".47" height="25.77"/>
              <rect class="cls-7" x="44.64" y="1.12" width=".47" height="25.77"/>
              <rect class="cls-7" x="45.1" y="1.12" width=".47" height="25.77"/>
              <rect class="cls-7" x="45.57" y="1.12" width=".47" height="25.77"/>
              <rect class="cls-7" x="46.03" y="1.12" width=".47" height="25.77"/>
              <rect class="cls-7" x="46.5" y="1.12" width=".47" height="25.77"/>
              <rect class="cls-7" x="46.96" y="1.12" width=".47" height="25.77"/>
            </g>
          </g>
          <g>
            <path class="cls-7" d="M47.31,12.31h-.05l.06.05s0-.03,0-.05Z"/>
            <g class="cls-2">
              <rect class="cls-7" x="47.26" y="12.31" width=".06" height="0"/>
              <rect class="cls-7" x="47.26" y="12.31" width=".06" height="0"/>
              <rect class="cls-7" x="47.26" y="12.31" width=".06" height="0"/>
              <rect class="cls-7" x="47.26" y="12.32" width=".06" height="0"/>
              <rect class="cls-7" x="47.26" y="12.32" width=".06" height="0"/>
              <rect class="cls-7" x="47.26" y="12.32" width=".06" height="0"/>
              <rect class="cls-7" x="47.26" y="12.32" width=".06" height="0"/>
              <rect class="cls-7" x="47.26" y="12.32" width=".06" height="0"/>
              <rect class="cls-7" x="47.26" y="12.32" width=".06" height="0"/>
              <rect class="cls-7" x="47.26" y="12.32" width=".06" height="0"/>
              <rect class="cls-7" x="47.26" y="12.32" width=".06" height="0"/>
              <rect class="cls-7" x="47.26" y="12.32" width=".06" height="0"/>
              <rect class="cls-7" x="47.26" y="12.32" width=".06" height="0"/>
              <rect class="cls-7" x="47.26" y="12.32" width=".06" height="0"/>
              <rect class="cls-7" x="47.26" y="12.33" width=".06" height="0"/>
              <rect class="cls-7" x="47.26" y="12.33" width=".06" height="0"/>
              <rect class="cls-7" x="47.26" y="12.33" width=".06" height="0"/>
              <rect class="cls-7" x="47.26" y="12.33" width=".06" height="0"/>
              <rect class="cls-7" x="47.26" y="12.33" width=".06" height="0"/>
              <rect class="cls-7" x="47.26" y="12.33" width=".06" height="0"/>
              <rect class="cls-7" x="47.26" y="12.33" width=".06" height="0"/>
              <rect class="cls-7" x="47.26" y="12.33" width=".06" height="0"/>
              <rect class="cls-7" x="47.26" y="12.33" width=".06" height="0"/>
              <rect class="cls-7" x="47.26" y="12.33" width=".06" height="0"/>
              <rect class="cls-7" x="47.26" y="12.33" width=".06" height="0"/>
              <rect class="cls-7" x="47.26" y="12.33" width=".06" height="0"/>
              <rect class="cls-7" x="47.26" y="12.34" width=".06" height="0"/>
              <rect class="cls-7" x="47.26" y="12.34" width=".06" height="0"/>
              <rect class="cls-7" x="47.26" y="12.34" width=".06" height="0"/>
              <rect class="cls-7" x="47.26" y="12.34" width=".06" height="0"/>
              <rect class="cls-7" x="47.26" y="12.34" width=".06" height="0"/>
              <rect class="cls-7" x="47.26" y="12.34" width=".06" height="0"/>
              <rect class="cls-7" x="47.26" y="12.34" width=".06" height="0"/>
              <rect class="cls-7" x="47.26" y="12.34" width=".06" height="0"/>
              <rect class="cls-7" x="47.26" y="12.34" width=".06" height="0"/>
              <rect class="cls-7" x="47.26" y="12.34" width=".06" height="0"/>
              <rect class="cls-7" x="47.26" y="12.34" width=".06" height="0"/>
              <rect class="cls-7" x="47.26" y="12.34" width=".06" height="0"/>
              <rect class="cls-7" x="47.26" y="12.35" width=".06" height="0"/>
              <rect class="cls-7" x="47.26" y="12.35" width=".06" height="0"/>
              <rect class="cls-7" x="47.26" y="12.35" width=".06" height="0"/>
              <rect class="cls-7" x="47.26" y="12.35" width=".06" height="0"/>
              <rect class="cls-7" x="47.26" y="12.35" width=".06" height="0"/>
              <rect class="cls-7" x="47.26" y="12.35" width=".06" height="0"/>
              <rect class="cls-7" x="47.26" y="12.35" width=".06" height="0"/>
              <rect class="cls-7" x="47.26" y="12.35" width=".06" height="0"/>
              <rect class="cls-7" x="47.26" y="12.35" width=".06" height="0"/>
              <rect class="cls-7" x="47.26" y="12.35" width=".06" height="0"/>
              <rect class="cls-7" x="47.26" y="12.35" width=".06" height="0"/>
              <rect class="cls-7" x="47.26" y="12.35" width=".06" height="0"/>
              <rect class="cls-7" x="47.26" y="12.36" width=".06" height="0"/>
              <rect class="cls-7" x="47.26" y="12.36" width=".06" height="0"/>
              <rect class="cls-7" x="47.26" y="12.36" width=".06" height="0"/>
              <rect class="cls-7" x="47.26" y="12.36" width=".06" height="0"/>
              <rect class="cls-7" x="47.26" y="12.36" width=".06" height="0"/>
              <rect class="cls-7" x="47.26" y="12.36" width=".06" height="0"/>
              <rect class="cls-7" x="47.26" y="12.36" width=".06" height="0"/>
              <rect class="cls-7" x="47.26" y="12.36" width=".06" height="0"/>
              <rect class="cls-7" x="47.26" y="12.36" width=".06" height="0"/>
            </g>
          </g>
        </g>
        <path class="cls-7" d="M47.31,12.31h-2.4c-.13-.94-.36-1.87-.69-2.76-.5-1.34-1.23-2.6-2.2-3.71-1-1.14-2.24-2.09-3.64-2.74-.65-.3-1.34-.53-2.04-.69-.45-.1-.9-.18-1.36-.23h-.02v-.99s.03,0,.04,0c2.97.26,5.89,1.44,8.19,3.48,1.29,1.15,2.37,2.57,3.11,4.17.5,1.09.84,2.27,1.01,3.47Z"/>
      </g>
      <g>
        <g>
          <path class="cls-7" d="M.05,63.22c0-.83.58-1.77,1.75-2.81,1.63-1.44,2.86-2.52,3.69-3.23,1.69-1.69,2.96-2.96,3.82-3.82,2.12-2.43,3.67-4.27,4.65-5.53,2.52-3.26,3.78-6.22,3.78-8.89,0-1.54-.43-2.93-1.29-4.19-1.23-1.84-3-2.76-5.3-2.76-2.43,0-5.33,1.35-8.71,4.05-1.01.83-1.64,1.21-1.89,1.15-.12-.03-.18-.11-.18-.23,0-.25.25-.63.74-1.15,3.69-4.09,7.57-6.04,11.66-5.85,2.3.12,4.34.88,6.11,2.28,1.77,1.4,2.99,3.2,3.66,5.41.25.86.37,1.72.37,2.58,0,3.38-1.72,6.84-5.16,10.37-.71.71-1.24,1.23-1.61,1.57-.71.68-2.75,2.3-6.13,4.88-3.07,2.3-5.32,3.95-6.73,4.93-.52.4-.78.72-.78.97,0,.34.57.46,1.71.37h5.71c-.62,0,.25.02,2.58.05,1.87.06,3.46.06,4.75,0,1.81-.06,3.03-.2,3.64-.41,1.41-.65,2.66-1.92,3.73-3.82v4.15c-.09.77-.81,1.15-2.17,1.15H.05v-1.2Z"/>
          <g class="cls-1">
            <rect class="cls-7" x=".05" y="29.76" width="24.56" height=".17"/>
            <rect class="cls-7" x=".05" y="29.94" width="24.56" height=".58"/>
            <rect class="cls-7" x=".05" y="30.52" width="24.56" height=".58"/>
            <rect class="cls-7" x=".05" y="31.11" width="24.56" height=".58"/>
            <rect class="cls-7" x=".05" y="31.69" width="24.56" height=".58"/>
            <rect class="cls-7" x=".05" y="32.27" width="24.56" height=".58"/>
            <rect class="cls-7" x=".05" y="32.86" width="24.56" height=".58"/>
            <rect class="cls-7" x=".05" y="33.44" width="24.56" height=".58"/>
            <rect class="cls-7" x=".05" y="34.03" width="24.56" height=".58"/>
            <rect class="cls-7" x=".05" y="34.61" width="24.56" height=".58"/>
            <rect class="cls-7" x=".05" y="35.2" width="24.56" height=".58"/>
            <rect class="cls-7" x=".05" y="35.78" width="24.56" height=".58"/>
            <rect class="cls-7" x=".05" y="36.37" width="24.56" height=".58"/>
            <rect class="cls-7" x=".05" y="36.95" width="24.56" height=".58"/>
            <rect class="cls-7" x=".05" y="37.53" width="24.56" height=".58"/>
            <rect class="cls-7" x=".05" y="38.12" width="24.56" height=".58"/>
            <rect class="cls-7" x=".05" y="38.7" width="24.56" height=".58"/>
            <rect class="cls-7" x=".05" y="39.29" width="24.56" height=".58"/>
            <rect class="cls-7" x=".05" y="39.87" width="24.56" height=".58"/>
            <rect class="cls-7" x=".05" y="40.46" width="24.56" height=".58"/>
            <rect class="cls-7" x=".05" y="41.04" width="24.56" height=".58"/>
            <rect class="cls-7" x=".05" y="41.62" width="24.56" height=".58"/>
            <rect class="cls-7" x=".05" y="42.21" width="24.56" height=".58"/>
            <rect class="cls-7" x=".05" y="42.79" width="24.56" height=".58"/>
            <rect class="cls-7" x=".05" y="43.38" width="24.56" height=".58"/>
            <rect class="cls-7" x=".05" y="43.96" width="24.56" height=".58"/>
            <rect class="cls-7" x=".05" y="44.55" width="24.56" height=".58"/>
            <rect class="cls-7" x=".05" y="45.13" width="24.56" height=".58"/>
            <rect class="cls-7" x=".05" y="45.72" width="24.56" height=".58"/>
            <rect class="cls-7" x=".05" y="46.3" width="24.56" height=".58"/>
            <rect class="cls-7" x=".05" y="46.88" width="24.56" height=".58"/>
            <rect class="cls-7" x=".05" y="47.47" width="24.56" height=".58"/>
            <rect class="cls-7" x=".05" y="48.05" width="24.56" height=".58"/>
            <rect class="cls-7" x=".05" y="48.64" width="24.56" height=".58"/>
            <rect class="cls-7" x=".05" y="49.22" width="24.56" height=".58"/>
            <rect class="cls-7" x=".05" y="49.81" width="24.56" height=".58"/>
            <rect class="cls-7" x=".05" y="50.39" width="24.56" height=".58"/>
            <rect class="cls-7" x=".05" y="50.98" width="24.56" height=".58"/>
            <rect class="cls-7" x=".05" y="51.56" width="24.56" height=".58"/>
            <rect class="cls-7" x=".05" y="52.14" width="24.56" height=".58"/>
            <rect class="cls-7" x=".05" y="52.73" width="24.56" height=".58"/>
            <rect class="cls-7" x=".05" y="53.31" width="24.56" height=".58"/>
            <rect class="cls-7" x=".05" y="53.9" width="24.56" height=".58"/>
            <rect class="cls-7" x=".05" y="54.48" width="24.56" height=".58"/>
            <rect class="cls-7" x=".05" y="55.07" width="24.56" height=".58"/>
            <rect class="cls-7" x=".05" y="55.65" width="24.56" height=".58"/>
            <rect class="cls-7" x=".05" y="56.23" width="24.56" height=".58"/>
            <rect class="cls-7" x=".05" y="56.82" width="24.56" height=".58"/>
            <rect class="cls-7" x=".05" y="57.4" width="24.56" height=".58"/>
            <rect class="cls-7" x=".05" y="57.99" width="24.56" height=".58"/>
            <rect class="cls-7" x=".05" y="58.57" width="24.56" height=".58"/>
            <rect class="cls-7" x=".05" y="59.16" width="24.56" height=".58"/>
            <rect class="cls-7" x=".05" y="59.74" width="24.56" height=".58"/>
            <rect class="cls-7" x=".05" y="60.33" width="24.56" height=".58"/>
            <rect class="cls-7" x=".05" y="60.91" width="24.56" height=".58"/>
            <rect class="cls-7" x=".05" y="61.49" width="24.56" height=".58"/>
            <rect class="cls-7" x=".05" y="62.08" width="24.56" height=".58"/>
            <rect class="cls-7" x=".05" y="62.66" width="24.56" height=".58"/>
            <rect class="cls-7" x=".05" y="63.25" width="24.56" height=".58"/>
            <rect class="cls-7" x=".05" y="63.83" width="24.56" height=".58"/>
          </g>
        </g>
        <g>
          <g>
            <path class="cls-7" d="M61.1,46.76h-.06l.07.07s0-.04-.01-.07Z"/>
            <g class="cls-6">
              <rect class="cls-7" x="61.04" y="46.76" width=".07" height="0"/>
              <rect class="cls-7" x="61.04" y="46.77" width=".07" height="0"/>
              <rect class="cls-7" x="61.04" y="46.77" width=".07" height="0"/>
              <rect class="cls-7" x="61.04" y="46.77" width=".07" height="0"/>
              <rect class="cls-7" x="61.04" y="46.77" width=".07" height="0"/>
              <rect class="cls-7" x="61.04" y="46.77" width=".07" height="0"/>
              <rect class="cls-7" x="61.04" y="46.77" width=".07" height="0"/>
              <rect class="cls-7" x="61.04" y="46.77" width=".07" height="0"/>
              <rect class="cls-7" x="61.04" y="46.77" width=".07" height="0"/>
              <rect class="cls-7" x="61.04" y="46.77" width=".07" height="0"/>
              <rect class="cls-7" x="61.04" y="46.78" width=".07" height="0"/>
              <rect class="cls-7" x="61.04" y="46.78" width=".07" height="0"/>
              <rect class="cls-7" x="61.04" y="46.78" width=".07" height="0"/>
              <rect class="cls-7" x="61.04" y="46.78" width=".07" height="0"/>
              <rect class="cls-7" x="61.04" y="46.78" width=".07" height="0"/>
              <rect class="cls-7" x="61.04" y="46.78" width=".07" height="0"/>
              <rect class="cls-7" x="61.04" y="46.78" width=".07" height="0"/>
              <rect class="cls-7" x="61.04" y="46.78" width=".07" height="0"/>
              <rect class="cls-7" x="61.04" y="46.78" width=".07" height="0"/>
              <rect class="cls-7" x="61.04" y="46.79" width=".07" height="0"/>
              <rect class="cls-7" x="61.04" y="46.79" width=".07" height="0"/>
              <rect class="cls-7" x="61.04" y="46.79" width=".07" height="0"/>
              <rect class="cls-7" x="61.04" y="46.79" width=".07" height="0"/>
              <rect class="cls-7" x="61.04" y="46.79" width=".07" height="0"/>
              <rect class="cls-7" x="61.04" y="46.79" width=".07" height="0"/>
              <rect class="cls-7" x="61.04" y="46.79" width=".07" height="0"/>
              <rect class="cls-7" x="61.04" y="46.79" width=".07" height="0"/>
              <rect class="cls-7" x="61.04" y="46.8" width=".07" height="0"/>
              <rect class="cls-7" x="61.04" y="46.8" width=".07" height="0"/>
              <rect class="cls-7" x="61.04" y="46.8" width=".07" height="0"/>
              <rect class="cls-7" x="61.04" y="46.8" width=".07" height="0"/>
              <rect class="cls-7" x="61.04" y="46.8" width=".07" height="0"/>
              <rect class="cls-7" x="61.04" y="46.8" width=".07" height="0"/>
              <rect class="cls-7" x="61.04" y="46.8" width=".07" height="0"/>
              <rect class="cls-7" x="61.04" y="46.8" width=".07" height="0"/>
              <rect class="cls-7" x="61.04" y="46.8" width=".07" height="0"/>
              <rect class="cls-7" x="61.04" y="46.81" width=".07" height="0"/>
              <rect class="cls-7" x="61.04" y="46.81" width=".07" height="0"/>
              <rect class="cls-7" x="61.04" y="46.81" width=".07" height="0"/>
              <rect class="cls-7" x="61.04" y="46.81" width=".07" height="0"/>
              <rect class="cls-7" x="61.04" y="46.81" width=".07" height="0"/>
              <rect class="cls-7" x="61.04" y="46.81" width=".07" height="0"/>
              <rect class="cls-7" x="61.04" y="46.81" width=".07" height="0"/>
              <rect class="cls-7" x="61.04" y="46.81" width=".07" height="0"/>
              <rect class="cls-7" x="61.04" y="46.81" width=".07" height="0"/>
              <rect class="cls-7" x="61.04" y="46.82" width=".07" height="0"/>
              <rect class="cls-7" x="61.04" y="46.82" width=".07" height="0"/>
              <rect class="cls-7" x="61.04" y="46.82" width=".07" height="0"/>
              <rect class="cls-7" x="61.04" y="46.82" width=".07" height="0"/>
              <rect class="cls-7" x="61.04" y="46.82" width=".07" height="0"/>
              <rect class="cls-7" x="61.04" y="46.82" width=".07" height="0"/>
              <rect class="cls-7" x="61.04" y="46.82" width=".07" height="0"/>
              <rect class="cls-7" x="61.04" y="46.82" width=".07" height="0"/>
              <rect class="cls-7" x="61.04" y="46.82" width=".07" height="0"/>
              <rect class="cls-7" x="61.04" y="46.83" width=".07" height="0"/>
              <rect class="cls-7" x="61.04" y="46.83" width=".07" height="0"/>
              <rect class="cls-7" x="61.04" y="46.83" width=".07" height="0"/>
              <rect class="cls-7" x="61.04" y="46.83" width=".07" height="0"/>
              <rect class="cls-7" x="61.04" y="46.83" width=".07" height="0"/>
            </g>
          </g>
          <g>
            <path class="cls-7" d="M61.1,46.76h-3.21c-.17-1.26-.48-2.5-.93-3.7-.67-1.79-1.65-3.48-2.94-4.97-1.33-1.52-3-2.8-4.88-3.67-.87-.4-1.79-.71-2.73-.93-.6-.14-1.21-.24-1.82-.3h-.02v-1.33s.04,0,.06,0c3.98.35,7.88,1.93,10.97,4.66,1.73,1.54,3.17,3.45,4.16,5.59.68,1.46,1.13,3.03,1.35,4.64Z"/>
            <g class="cls-4">
              <rect class="cls-7" x="44.57" y="31.87" width="16.54" height=".25"/>
              <rect class="cls-7" x="44.57" y="32.13" width="16.54" height=".25"/>
              <rect class="cls-7" x="44.57" y="32.38" width="16.54" height=".25"/>
              <rect class="cls-7" x="44.57" y="32.63" width="16.54" height=".25"/>
              <rect class="cls-7" x="44.57" y="32.88" width="16.54" height=".25"/>
              <rect class="cls-7" x="44.57" y="33.14" width="16.54" height=".25"/>
              <rect class="cls-7" x="44.57" y="33.39" width="16.54" height=".25"/>
              <rect class="cls-7" x="44.57" y="33.64" width="16.54" height=".25"/>
              <rect class="cls-7" x="44.57" y="33.89" width="16.54" height=".25"/>
              <rect class="cls-7" x="44.57" y="34.14" width="16.54" height=".25"/>
              <rect class="cls-7" x="44.57" y="34.4" width="16.54" height=".25"/>
              <rect class="cls-7" x="44.57" y="34.65" width="16.54" height=".25"/>
              <rect class="cls-7" x="44.57" y="34.9" width="16.54" height=".25"/>
              <rect class="cls-7" x="44.57" y="35.15" width="16.54" height=".25"/>
              <rect class="cls-7" x="44.57" y="35.41" width="16.54" height=".25"/>
              <rect class="cls-7" x="44.57" y="35.66" width="16.54" height=".25"/>
              <rect class="cls-7" x="44.57" y="35.91" width="16.54" height=".25"/>
              <rect class="cls-7" x="44.57" y="36.16" width="16.54" height=".25"/>
              <rect class="cls-7" x="44.57" y="36.42" width="16.54" height=".25"/>
              <rect class="cls-7" x="44.57" y="36.67" width="16.54" height=".25"/>
              <rect class="cls-7" x="44.57" y="36.92" width="16.54" height=".25"/>
              <rect class="cls-7" x="44.57" y="37.17" width="16.54" height=".25"/>
              <rect class="cls-7" x="44.57" y="37.43" width="16.54" height=".25"/>
              <rect class="cls-7" x="44.57" y="37.68" width="16.54" height=".25"/>
              <rect class="cls-7" x="44.57" y="37.93" width="16.54" height=".25"/>
              <rect class="cls-7" x="44.57" y="38.18" width="16.54" height=".25"/>
              <rect class="cls-7" x="44.57" y="38.44" width="16.54" height=".25"/>
              <rect class="cls-7" x="44.57" y="38.69" width="16.54" height=".25"/>
              <rect class="cls-7" x="44.57" y="38.94" width="16.54" height=".25"/>
              <rect class="cls-7" x="44.57" y="39.19" width="16.54" height=".25"/>
              <rect class="cls-7" x="44.57" y="39.44" width="16.54" height=".25"/>
              <rect class="cls-7" x="44.57" y="39.7" width="16.54" height=".25"/>
              <rect class="cls-7" x="44.57" y="39.95" width="16.54" height=".25"/>
              <rect class="cls-7" x="44.57" y="40.2" width="16.54" height=".25"/>
              <rect class="cls-7" x="44.57" y="40.45" width="16.54" height=".25"/>
              <rect class="cls-7" x="44.57" y="40.71" width="16.54" height=".25"/>
              <rect class="cls-7" x="44.57" y="40.96" width="16.54" height=".25"/>
              <rect class="cls-7" x="44.57" y="41.21" width="16.54" height=".25"/>
              <rect class="cls-7" x="44.57" y="41.46" width="16.54" height=".25"/>
              <rect class="cls-7" x="44.57" y="41.72" width="16.54" height=".25"/>
              <rect class="cls-7" x="44.57" y="41.97" width="16.54" height=".25"/>
              <rect class="cls-7" x="44.57" y="42.22" width="16.54" height=".25"/>
              <rect class="cls-7" x="44.57" y="42.47" width="16.54" height=".25"/>
              <rect class="cls-7" x="44.57" y="42.73" width="16.54" height=".25"/>
              <rect class="cls-7" x="44.57" y="42.98" width="16.54" height=".25"/>
              <rect class="cls-7" x="44.57" y="43.23" width="16.54" height=".25"/>
              <rect class="cls-7" x="44.57" y="43.48" width="16.54" height=".25"/>
              <rect class="cls-7" x="44.57" y="43.74" width="16.54" height=".25"/>
              <rect class="cls-7" x="44.57" y="43.99" width="16.54" height=".25"/>
              <rect class="cls-7" x="44.57" y="44.24" width="16.54" height=".25"/>
              <rect class="cls-7" x="44.57" y="44.49" width="16.54" height=".25"/>
              <rect class="cls-7" x="44.57" y="44.75" width="16.54" height=".25"/>
              <rect class="cls-7" x="44.57" y="45" width="16.54" height=".25"/>
              <rect class="cls-7" x="44.57" y="45.25" width="16.54" height=".25"/>
              <rect class="cls-7" x="44.57" y="45.5" width="16.54" height=".25"/>
              <rect class="cls-7" x="44.57" y="45.75" width="16.54" height=".25"/>
              <rect class="cls-7" x="44.57" y="46.01" width="16.54" height=".25"/>
              <rect class="cls-7" x="44.57" y="46.26" width="16.54" height=".25"/>
              <rect class="cls-7" x="44.57" y="46.51" width="16.54" height=".25"/>
            </g>
          </g>
        </g>
        <g>
          <g>
            <path class="cls-7" d="M61.1,46.76h-.06l.07.07s0-.04-.01-.07Z"/>
            <g class="cls-5">
              <rect class="cls-7" x="61.04" y="46.76" width=".07" height="0"/>
              <rect class="cls-7" x="61.04" y="46.77" width=".07" height="0"/>
              <rect class="cls-7" x="61.04" y="46.77" width=".07" height="0"/>
              <rect class="cls-7" x="61.04" y="46.77" width=".07" height="0"/>
              <rect class="cls-7" x="61.04" y="46.77" width=".07" height="0"/>
              <rect class="cls-7" x="61.04" y="46.77" width=".07" height="0"/>
              <rect class="cls-7" x="61.04" y="46.77" width=".07" height="0"/>
              <rect class="cls-7" x="61.04" y="46.77" width=".07" height="0"/>
              <rect class="cls-7" x="61.04" y="46.77" width=".07" height="0"/>
              <rect class="cls-7" x="61.04" y="46.77" width=".07" height="0"/>
              <rect class="cls-7" x="61.04" y="46.78" width=".07" height="0"/>
              <rect class="cls-7" x="61.04" y="46.78" width=".07" height="0"/>
              <rect class="cls-7" x="61.04" y="46.78" width=".07" height="0"/>
              <rect class="cls-7" x="61.04" y="46.78" width=".07" height="0"/>
              <rect class="cls-7" x="61.04" y="46.78" width=".07" height="0"/>
              <rect class="cls-7" x="61.04" y="46.78" width=".07" height="0"/>
              <rect class="cls-7" x="61.04" y="46.78" width=".07" height="0"/>
              <rect class="cls-7" x="61.04" y="46.78" width=".07" height="0"/>
              <rect class="cls-7" x="61.04" y="46.78" width=".07" height="0"/>
              <rect class="cls-7" x="61.04" y="46.79" width=".07" height="0"/>
              <rect class="cls-7" x="61.04" y="46.79" width=".07" height="0"/>
              <rect class="cls-7" x="61.04" y="46.79" width=".07" height="0"/>
              <rect class="cls-7" x="61.04" y="46.79" width=".07" height="0"/>
              <rect class="cls-7" x="61.04" y="46.79" width=".07" height="0"/>
              <rect class="cls-7" x="61.04" y="46.79" width=".07" height="0"/>
              <rect class="cls-7" x="61.04" y="46.79" width=".07" height="0"/>
              <rect class="cls-7" x="61.04" y="46.79" width=".07" height="0"/>
              <rect class="cls-7" x="61.04" y="46.8" width=".07" height="0"/>
              <rect class="cls-7" x="61.04" y="46.8" width=".07" height="0"/>
              <rect class="cls-7" x="61.04" y="46.8" width=".07" height="0"/>
              <rect class="cls-7" x="61.04" y="46.8" width=".07" height="0"/>
              <rect class="cls-7" x="61.04" y="46.8" width=".07" height="0"/>
              <rect class="cls-7" x="61.04" y="46.8" width=".07" height="0"/>
              <rect class="cls-7" x="61.04" y="46.8" width=".07" height="0"/>
              <rect class="cls-7" x="61.04" y="46.8" width=".07" height="0"/>
              <rect class="cls-7" x="61.04" y="46.8" width=".07" height="0"/>
              <rect class="cls-7" x="61.04" y="46.81" width=".07" height="0"/>
              <rect class="cls-7" x="61.04" y="46.81" width=".07" height="0"/>
              <rect class="cls-7" x="61.04" y="46.81" width=".07" height="0"/>
              <rect class="cls-7" x="61.04" y="46.81" width=".07" height="0"/>
              <rect class="cls-7" x="61.04" y="46.81" width=".07" height="0"/>
              <rect class="cls-7" x="61.04" y="46.81" width=".07" height="0"/>
              <rect class="cls-7" x="61.04" y="46.81" width=".07" height="0"/>
              <rect class="cls-7" x="61.04" y="46.81" width=".07" height="0"/>
              <rect class="cls-7" x="61.04" y="46.81" width=".07" height="0"/>
              <rect class="cls-7" x="61.04" y="46.82" width=".07" height="0"/>
              <rect class="cls-7" x="61.04" y="46.82" width=".07" height="0"/>
              <rect class="cls-7" x="61.04" y="46.82" width=".07" height="0"/>
              <rect class="cls-7" x="61.04" y="46.82" width=".07" height="0"/>
              <rect class="cls-7" x="61.04" y="46.82" width=".07" height="0"/>
              <rect class="cls-7" x="61.04" y="46.82" width=".07" height="0"/>
              <rect class="cls-7" x="61.04" y="46.82" width=".07" height="0"/>
              <rect class="cls-7" x="61.04" y="46.82" width=".07" height="0"/>
              <rect class="cls-7" x="61.04" y="46.82" width=".07" height="0"/>
              <rect class="cls-7" x="61.04" y="46.83" width=".07" height="0"/>
              <rect class="cls-7" x="61.04" y="46.83" width=".07" height="0"/>
              <rect class="cls-7" x="61.04" y="46.83" width=".07" height="0"/>
              <rect class="cls-7" x="61.04" y="46.83" width=".07" height="0"/>
              <rect class="cls-7" x="61.04" y="46.83" width=".07" height="0"/>
            </g>
          </g>
          <g>
            <path class="cls-7" d="M61.1,46.76h-3.21c-.17-1.26-.48-2.5-.93-3.7-.67-1.79-1.65-3.48-2.94-4.97-1.33-1.52-3-2.8-4.88-3.67-.87-.4-1.79-.71-2.73-.93-.6-.14-1.21-.24-1.82-.3h-.02v-1.33s.04,0,.06,0c3.98.35,7.88,1.93,10.97,4.66,1.73,1.54,3.17,3.45,4.16,5.59.68,1.46,1.13,3.03,1.35,4.64Z"/>
            <g class="cls-3">
              <rect class="cls-7" x="44.57" y="31.87" width="16.54" height=".25"/>
              <rect class="cls-7" x="44.57" y="32.13" width="16.54" height=".25"/>
              <rect class="cls-7" x="44.57" y="32.38" width="16.54" height=".25"/>
              <rect class="cls-7" x="44.57" y="32.63" width="16.54" height=".25"/>
              <rect class="cls-7" x="44.57" y="32.88" width="16.54" height=".25"/>
              <rect class="cls-7" x="44.57" y="33.14" width="16.54" height=".25"/>
              <rect class="cls-7" x="44.57" y="33.39" width="16.54" height=".25"/>
              <rect class="cls-7" x="44.57" y="33.64" width="16.54" height=".25"/>
              <rect class="cls-7" x="44.57" y="33.89" width="16.54" height=".25"/>
              <rect class="cls-7" x="44.57" y="34.14" width="16.54" height=".25"/>
              <rect class="cls-7" x="44.57" y="34.4" width="16.54" height=".25"/>
              <rect class="cls-7" x="44.57" y="34.65" width="16.54" height=".25"/>
              <rect class="cls-7" x="44.57" y="34.9" width="16.54" height=".25"/>
              <rect class="cls-7" x="44.57" y="35.15" width="16.54" height=".25"/>
              <rect class="cls-7" x="44.57" y="35.41" width="16.54" height=".25"/>
              <rect class="cls-7" x="44.57" y="35.66" width="16.54" height=".25"/>
              <rect class="cls-7" x="44.57" y="35.91" width="16.54" height=".25"/>
              <rect class="cls-7" x="44.57" y="36.16" width="16.54" height=".25"/>
              <rect class="cls-7" x="44.57" y="36.42" width="16.54" height=".25"/>
              <rect class="cls-7" x="44.57" y="36.67" width="16.54" height=".25"/>
              <rect class="cls-7" x="44.57" y="36.92" width="16.54" height=".25"/>
              <rect class="cls-7" x="44.57" y="37.17" width="16.54" height=".25"/>
              <rect class="cls-7" x="44.57" y="37.43" width="16.54" height=".25"/>
              <rect class="cls-7" x="44.57" y="37.68" width="16.54" height=".25"/>
              <rect class="cls-7" x="44.57" y="37.93" width="16.54" height=".25"/>
              <rect class="cls-7" x="44.57" y="38.18" width="16.54" height=".25"/>
              <rect class="cls-7" x="44.57" y="38.44" width="16.54" height=".25"/>
              <rect class="cls-7" x="44.57" y="38.69" width="16.54" height=".25"/>
              <rect class="cls-7" x="44.57" y="38.94" width="16.54" height=".25"/>
              <rect class="cls-7" x="44.57" y="39.19" width="16.54" height=".25"/>
              <rect class="cls-7" x="44.57" y="39.44" width="16.54" height=".25"/>
              <rect class="cls-7" x="44.57" y="39.7" width="16.54" height=".25"/>
              <rect class="cls-7" x="44.57" y="39.95" width="16.54" height=".25"/>
              <rect class="cls-7" x="44.57" y="40.2" width="16.54" height=".25"/>
              <rect class="cls-7" x="44.57" y="40.45" width="16.54" height=".25"/>
              <rect class="cls-7" x="44.57" y="40.71" width="16.54" height=".25"/>
              <rect class="cls-7" x="44.57" y="40.96" width="16.54" height=".25"/>
              <rect class="cls-7" x="44.57" y="41.21" width="16.54" height=".25"/>
              <rect class="cls-7" x="44.57" y="41.46" width="16.54" height=".25"/>
              <rect class="cls-7" x="44.57" y="41.72" width="16.54" height=".25"/>
              <rect class="cls-7" x="44.57" y="41.97" width="16.54" height=".25"/>
              <rect class="cls-7" x="44.57" y="42.22" width="16.54" height=".25"/>
              <rect class="cls-7" x="44.57" y="42.47" width="16.54" height=".25"/>
              <rect class="cls-7" x="44.57" y="42.73" width="16.54" height=".25"/>
              <rect class="cls-7" x="44.57" y="42.98" width="16.54" height=".25"/>
              <rect class="cls-7" x="44.57" y="43.23" width="16.54" height=".25"/>
              <rect class="cls-7" x="44.57" y="43.48" width="16.54" height=".25"/>
              <rect class="cls-7" x="44.57" y="43.74" width="16.54" height=".25"/>
              <rect class="cls-7" x="44.57" y="43.99" width="16.54" height=".25"/>
              <rect class="cls-7" x="44.57" y="44.24" width="16.54" height=".25"/>
              <rect class="cls-7" x="44.57" y="44.49" width="16.54" height=".25"/>
              <rect class="cls-7" x="44.57" y="44.75" width="16.54" height=".25"/>
              <rect class="cls-7" x="44.57" y="45" width="16.54" height=".25"/>
              <rect class="cls-7" x="44.57" y="45.25" width="16.54" height=".25"/>
              <rect class="cls-7" x="44.57" y="45.5" width="16.54" height=".25"/>
              <rect class="cls-7" x="44.57" y="45.75" width="16.54" height=".25"/>
              <rect class="cls-7" x="44.57" y="46.01" width="16.54" height=".25"/>
              <rect class="cls-7" x="44.57" y="46.26" width="16.54" height=".25"/>
              <rect class="cls-7" x="44.57" y="46.51" width="16.54" height=".25"/>
            </g>
          </g>
        </g>
        <path class="cls-7" d="M61.04,46.76h-3.15s0,.05.01.08c.09.72.14,1.45.14,2.18,0,3.91-1.35,7.85-4.02,10.92-1.33,1.53-3,2.8-4.88,3.67-1.88.87-3.96,1.31-6.04,1.3-2.08-.02-4.15-.51-6-1.41-1.84-.91-3.46-2.21-4.74-3.74-1.28-1.54-2.23-3.28-2.85-5.11-.63-1.82-.94-3.72-.94-5.63,0-1.91.32-3.81.94-5.63.62-1.82,1.58-3.57,2.85-5.11,1.28-1.54,2.89-2.83,4.74-3.74,1.84-.9,3.91-1.39,6-1.41.49,0,.98.02,1.46.07v-1.32c-.49-.04-.98-.06-1.46-.07-4.49-.03-9.08,1.48-12.67,4.54-.43.4-.86.8-1.28,1.22-.39.45-.79.89-1.16,1.35-.34.49-.69.97-1.01,1.48-.29.52-.6,1.04-.86,1.58-1.03,2.18-1.57,4.61-1.58,7.04,0,2.43.54,4.86,1.58,7.04.26.54.57,1.06.86,1.58.32.5.68.99,1.01,1.48.37.47.78.91,1.16,1.35.42.41.86.82,1.28,1.22,3.59,3.06,8.18,4.57,12.67,4.54,4.5-.03,9.01-1.65,12.49-4.73,1.73-1.54,3.17-3.44,4.16-5.59.99-2.14,1.51-4.52,1.51-6.9,0-.73-.05-1.46-.15-2.19l-.07-.07Z"/>
      </g>
    </g>
  </g>
</svg>