<?xml version="1.0" encoding="UTF-8"?>
<svg id="Layer_2" data-name="Layer 2" xmlns="http://www.w3.org/2000/svg" viewBox="0 0 187.9 26.1">
  <defs>
    <style>
      .cls-1 {
        fill: #303030;
      }
    </style>
  </defs>
  <g id="Layer_1-2" data-name="Layer 1">
    <g>
      <path class="cls-1" d="M143.96,21.18v-5.67h6.75c3.08,0,5.58-2.5,5.58-5.58v-4.34c0-3.08-2.5-5.58-5.58-5.58h-21.53v26.09h4.92V4.93h17.27v5.67h-6.75c-3.08,0-5.58,2.5-5.58,5.58v4.34c0,3.08,2.5,5.58,5.58,5.58h22.79v-4.92h-23.45Z"/>
      <path class="cls-1" d="M27.14,4.93V0H5.58C2.5,0,0,2.51,0,5.59v14.93c0,3.08,2.5,5.58,5.58,5.58h21.56v-4.92H4.92V4.93h22.22Z"/>
      <polygon class="cls-1" points="58.73 4.93 58.73 0 31.59 0 31.59 26.1 58.73 26.1 58.73 21.18 36.51 21.18 36.51 15.52 57.74 15.52 57.74 10.6 36.51 10.6 36.51 4.93 58.73 4.93"/>
      <polygon class="cls-1" points="121.37 26.1 126.53 26.1 115.36 0 106.83 0 95.72 26.1 100.87 26.1 109.92 4.93 112.28 4.93 121.37 26.1"/>
      <polygon class="cls-1" points="84.28 0 77.96 18.99 71.72 0 63.17 0 63.17 26.1 68.09 26.1 68.09 4.93 69.01 4.93 76 26.1 79.9 26.1 86.97 4.93 87.87 4.93 87.87 26.1 92.8 26.1 92.8 0 84.28 0"/>
      <polygon class="cls-1" points="187.9 0 160.72 0 160.72 4.93 171.85 4.93 171.85 26.1 176.77 26.1 176.77 4.93 187.9 4.93 187.9 0"/>
    </g>
  </g>
</svg>